<?xml version="1.0" encoding="utf-8"?>
<!-- Generator: Adobe Illustrator 22.1.0, SVG Export Plug-In . SVG Version: 6.00 Build 0)  -->
<svg version="1.1" id="Capa_1" xmlns="http://www.w3.org/2000/svg" xmlns:xlink="http://www.w3.org/1999/xlink" x="0px" y="0px"
	 viewBox="0 0 70 70" style="enable-background:new 0 0 70 70;" xml:space="preserve">
<style type="text/css">
	.st0{filter:url(#Adobe_OpacityMaskFilter);}
	.st1{fill:#FFFFFF;}
	.st2{mask:url(#b_1_);}
	.st3{fill:url(#SVGID_1_);}
	.st4{fill:#FFFFFF;fill-opacity:0.383;}
	.st5{opacity:0.33;}
	.st6{fill:#393939;}
	.st7{display:none;opacity:0.33;fill:#393939;enable-background:new    ;}
	.st8{fill-opacity:0.383;}
	.st9{display:none;opacity:0.3;enable-background:new    ;}
	.st10{opacity:0.3;}
	.st11{display:none;fill:#FFFFFF;}
</style>
<g>
	<defs>
		<filter id="Adobe_OpacityMaskFilter" filterUnits="userSpaceOnUse" x="-195.3" y="0" width="265.3" height="263.8">
			<feColorMatrix  type="matrix" values="1 0 0 0 0  0 1 0 0 0  0 0 1 0 0  0 0 0 1 0"/>
		</filter>
	</defs>
	<mask maskUnits="userSpaceOnUse" x="-195.3" y="0" width="265.3" height="263.8" id="b_1_">
		<g class="st0">
			<path id="a_1_" class="st1" d="M4,0h61c4,0,5,1,5,5v60c0,4-1,5-5,5H4c-3,0-4-1-4-5V5C0,1,1,0,4,0z"/>
		</g>
	</mask>
	<g class="st2">
		
			<linearGradient id="SVGID_1_" gradientUnits="userSpaceOnUse" x1="-636.7571" y1="415.0286" x2="-637.7571" y2="414.0286" gradientTransform="matrix(70 0 0 -70 44643 29052)">
			<stop  offset="0" style="stop-color:#B06161"/>
			<stop  offset="0.4578" style="stop-color:#984E4E"/>
			<stop  offset="1" style="stop-color:#7C3838"/>
		</linearGradient>
		<path class="st3" d="M0,0h70v70H0V0z"/>
		<path class="st4" d="M4,1h61c2.7,0,4.3,0.7,5,2V0H0v3C0.7,1.7,2,1,4,1z"/>
		<g id="Sombra" class="st5">
			<g>
				<g>
					<g>
						<path class="st6" d="M0.8,76.7h-26.5c-0.6,0-1-0.4-1-1v-4.9c0-0.6,0.4-1,1-1H0.8c0.6,0,1,0.4,1,1v4.9
							C1.8,76.2,1.3,76.7,0.8,76.7z"/>
					</g>
				</g>
			</g>
			<g>
				<g>
					<g>
						<path class="st6" d="M1.3,76.2h-26.5c-0.6,0-1-0.4-1-1v-4.9c0-0.6,0.4-1,1-1H1.3c0.6,0,1,0.4,1,1v4.9
							C2.3,75.7,1.8,76.2,1.3,76.2z"/>
					</g>
				</g>
			</g>
			<g>
				<g>
					<g>
						<path class="st6" d="M1.8,75.7h-26.5c-0.6,0-1-0.4-1-1v-4.9c0-0.6,0.4-1,1-1H1.8c0.6,0,1,0.4,1,1v4.9
							C2.8,75.2,2.3,75.7,1.8,75.7z"/>
					</g>
				</g>
			</g>
			<g>
				<g>
					<g>
						<path class="st6" d="M2.3,75.2h-26.5c-0.6,0-1-0.4-1-1v-4.9c0-0.6,0.4-1,1-1H2.3c0.6,0,1,0.4,1,1v4.9
							C3.3,74.7,2.8,75.2,2.3,75.2z"/>
					</g>
				</g>
			</g>
			<g>
				<g>
					<g>
						<path class="st6" d="M2.8,74.7h-26.5c-0.6,0-1-0.4-1-1v-4.9c0-0.6,0.4-1,1-1H2.8c0.6,0,1,0.4,1,1v4.9
							C3.8,74.2,3.3,74.7,2.8,74.7z"/>
					</g>
				</g>
			</g>
			<g>
				<g>
					<g>
						<path class="st6" d="M3.3,74.2h-26.5c-0.6,0-1-0.4-1-1v-4.9c0-0.6,0.4-1,1-1H3.3c0.6,0,1,0.4,1,1v4.9
							C4.3,73.7,3.8,74.2,3.3,74.2z"/>
					</g>
				</g>
			</g>
			<g>
				<g>
					<g>
						<path class="st6" d="M3.8,73.7h-26.5c-0.6,0-1-0.4-1-1v-4.9c0-0.6,0.4-1,1-1H3.8c0.6,0,1,0.4,1,1v4.9
							C4.8,73.2,4.3,73.7,3.8,73.7z"/>
					</g>
				</g>
			</g>
			<g>
				<g>
					<g>
						<path class="st6" d="M4.3,73.2h-26.5c-0.6,0-1-0.4-1-1v-4.9c0-0.6,0.4-1,1-1H4.3c0.6,0,1,0.4,1,1v4.9
							C5.3,72.7,4.8,73.2,4.3,73.2z"/>
					</g>
				</g>
			</g>
			<g>
				<g>
					<g>
						<path class="st6" d="M4.8,72.7h-26.5c-0.6,0-1-0.4-1-1v-4.9c0-0.6,0.4-1,1-1H4.8c0.6,0,1,0.4,1,1v4.9
							C5.8,72.2,5.3,72.7,4.8,72.7z"/>
					</g>
				</g>
			</g>
			<g>
				<g>
					<g>
						<path class="st6" d="M5.3,72.2h-26.5c-0.6,0-1-0.4-1-1v-4.9c0-0.6,0.4-1,1-1H5.3c0.6,0,1,0.4,1,1v4.9
							C6.3,71.7,5.8,72.2,5.3,72.2z"/>
					</g>
				</g>
			</g>
			<g>
				<g>
					<g>
						<path class="st6" d="M5.8,71.7h-26.5c-0.6,0-1-0.4-1-1v-4.9c0-0.6,0.4-1,1-1H5.8c0.6,0,1,0.4,1,1v4.9
							C6.8,71.2,6.3,71.7,5.8,71.7z"/>
					</g>
				</g>
			</g>
			<g>
				<g>
					<g>
						<path class="st6" d="M6.3,71.2h-26.5c-0.6,0-1-0.4-1-1v-4.9c0-0.6,0.4-1,1-1H6.3c0.6,0,1,0.4,1,1v4.9
							C7.3,70.7,6.8,71.2,6.3,71.2z"/>
					</g>
				</g>
			</g>
			<g>
				<g>
					<g>
						<path class="st6" d="M6.8,70.7h-26.5c-0.6,0-1-0.4-1-1v-4.9c0-0.6,0.4-1,1-1H6.8c0.6,0,1,0.4,1,1v4.9
							C7.8,70.2,7.3,70.7,6.8,70.7z"/>
					</g>
				</g>
			</g>
			<g>
				<g>
					<g>
						<path class="st6" d="M7.3,70.2h-26.5c-0.6,0-1-0.4-1-1v-4.9c0-0.6,0.4-1,1-1H7.3c0.6,0,1,0.4,1,1v4.9
							C8.3,69.7,7.8,70.2,7.3,70.2z"/>
					</g>
				</g>
			</g>
			<g>
				<g>
					<g>
						<path class="st6" d="M7.8,69.7h-26.5c-0.6,0-1-0.4-1-1v-4.9c0-0.6,0.4-1,1-1H7.8c0.6,0,1,0.4,1,1v4.9
							C8.8,69.2,8.3,69.7,7.8,69.7z"/>
					</g>
				</g>
			</g>
			<g>
				<g>
					<g>
						<path class="st6" d="M8.3,69.2h-26.5c-0.6,0-1-0.4-1-1v-4.9c0-0.6,0.4-1,1-1H8.3c0.6,0,1,0.4,1,1v4.9
							C9.3,68.7,8.8,69.2,8.3,69.2z"/>
					</g>
				</g>
			</g>
			<g>
				<g>
					<g>
						<path class="st6" d="M8.8,68.7h-26.5c-0.6,0-1-0.4-1-1v-4.9c0-0.6,0.4-1,1-1H8.8c0.6,0,1,0.4,1,1v4.9
							C9.8,68.2,9.3,68.7,8.8,68.7z"/>
					</g>
				</g>
			</g>
			<g>
				<g>
					<g>
						<path class="st6" d="M9.3,68.2h-26.5c-0.6,0-1-0.4-1-1v-4.9c0-0.6,0.4-1,1-1H9.3c0.6,0,1,0.4,1,1v4.9
							C10.3,67.7,9.8,68.2,9.3,68.2z"/>
					</g>
				</g>
			</g>
			<g>
				<g>
					<g>
						<path class="st6" d="M9.8,67.7h-26.5c-0.6,0-1-0.4-1-1v-4.9c0-0.6,0.4-1,1-1H9.8c0.6,0,1,0.4,1,1v4.9
							C10.8,67.2,10.3,67.7,9.8,67.7z"/>
					</g>
				</g>
			</g>
			<g>
				<g>
					<g>
						<path class="st6" d="M10.3,67.2h-26.5c-0.6,0-1-0.4-1-1v-4.9c0-0.6,0.4-1,1-1h26.5c0.6,0,1,0.4,1,1v4.9
							C11.3,66.7,10.8,67.2,10.3,67.2z"/>
					</g>
				</g>
			</g>
			<g>
				<g>
					<g>
						<path class="st6" d="M10.8,66.7h-26.5c-0.6,0-1-0.4-1-1v-4.9c0-0.6,0.4-1,1-1h26.5c0.6,0,1,0.4,1,1v4.9
							C11.8,66.2,11.3,66.7,10.8,66.7z"/>
					</g>
					<g>
						<path class="st6" d="M10.8,76.7h-26.5c-0.6,0-1-0.4-1-1v-4.9c0-0.6,0.4-1,1-1h26.5c0.6,0,1,0.4,1,1v4.9
							C11.8,76.3,11.3,76.7,10.8,76.7z"/>
					</g>
				</g>
			</g>
			<g>
				<g>
					<g>
						<path class="st6" d="M11.3,66.2h-26.5c-0.6,0-1-0.4-1-1v-4.9c0-0.6,0.4-1,1-1h26.5c0.6,0,1,0.4,1,1v4.9
							C12.3,65.7,11.8,66.2,11.3,66.2z"/>
					</g>
					<g>
						<path class="st6" d="M11.3,76.2h-26.5c-0.6,0-1-0.4-1-1v-4.9c0-0.6,0.4-1,1-1h26.5c0.6,0,1,0.4,1,1v4.9
							C12.3,75.8,11.8,76.2,11.3,76.2z"/>
					</g>
				</g>
			</g>
			<g>
				<g>
					<g>
						<path class="st6" d="M11.8,65.7h-26.5c-0.6,0-1-0.4-1-1v-4.9c0-0.6,0.4-1,1-1h26.5c0.6,0,1,0.4,1,1v4.9
							C12.8,65.2,12.3,65.7,11.8,65.7z"/>
					</g>
					<g>
						<path class="st6" d="M11.8,75.7h-26.5c-0.6,0-1-0.4-1-1v-4.9c0-0.6,0.4-1,1-1h26.5c0.6,0,1,0.4,1,1v4.9
							C12.8,75.3,12.3,75.7,11.8,75.7z"/>
					</g>
				</g>
			</g>
			<g>
				<g>
					<g>
						<path class="st6" d="M12.3,65.2h-26.5c-0.6,0-1-0.4-1-1v-4.9c0-0.6,0.4-1,1-1h26.5c0.6,0,1,0.4,1,1v4.9
							C13.3,64.7,12.8,65.2,12.3,65.2z"/>
					</g>
					<g>
						<path class="st6" d="M12.3,75.2h-26.5c-0.6,0-1-0.4-1-1v-4.9c0-0.6,0.4-1,1-1h26.5c0.6,0,1,0.4,1,1v4.9
							C13.3,74.8,12.8,75.2,12.3,75.2z"/>
					</g>
				</g>
			</g>
			<g>
				<g>
					<g>
						<path class="st6" d="M12.8,64.7h-26.5c-0.6,0-1-0.4-1-1v-4.9c0-0.6,0.4-1,1-1h26.5c0.6,0,1,0.4,1,1v4.9
							C13.8,64.2,13.3,64.7,12.8,64.7z"/>
					</g>
					<g>
						<path class="st6" d="M12.8,74.7h-26.5c-0.6,0-1-0.4-1-1v-4.9c0-0.6,0.4-1,1-1h26.5c0.6,0,1,0.4,1,1v4.9
							C13.8,74.3,13.3,74.7,12.8,74.7z"/>
					</g>
				</g>
			</g>
			<g>
				<g>
					<g>
						<path class="st6" d="M13.3,64.2h-26.5c-0.6,0-1-0.4-1-1v-4.9c0-0.6,0.4-1,1-1h26.5c0.6,0,1,0.4,1,1v4.9
							C14.3,63.7,13.8,64.2,13.3,64.2z"/>
					</g>
					<g>
						<path class="st6" d="M13.3,74.2h-26.5c-0.6,0-1-0.4-1-1v-4.9c0-0.6,0.4-1,1-1h26.5c0.6,0,1,0.4,1,1v4.9
							C14.3,73.8,13.8,74.2,13.3,74.2z"/>
					</g>
				</g>
			</g>
			<g>
				<g>
					<g>
						<path class="st6" d="M13.8,63.7h-26.5c-0.6,0-1-0.4-1-1v-4.9c0-0.6,0.4-1,1-1h26.5c0.6,0,1,0.4,1,1v4.9
							C14.8,63.2,14.3,63.7,13.8,63.7z"/>
					</g>
					<g>
						<path class="st6" d="M13.8,73.7h-26.5c-0.6,0-1-0.4-1-1v-4.9c0-0.6,0.4-1,1-1h26.5c0.6,0,1,0.4,1,1v4.9
							C14.8,73.3,14.3,73.7,13.8,73.7z"/>
					</g>
				</g>
			</g>
			<g>
				<g>
					<g>
						<path class="st6" d="M14.3,63.2h-26.5c-0.6,0-1-0.4-1-1v-4.9c0-0.6,0.4-1,1-1h26.5c0.6,0,1,0.4,1,1v4.9
							C15.3,62.7,14.8,63.2,14.3,63.2z"/>
					</g>
					<g>
						<path class="st6" d="M14.3,73.2h-26.5c-0.6,0-1-0.4-1-1v-4.9c0-0.6,0.4-1,1-1h26.5c0.6,0,1,0.4,1,1v4.9
							C15.3,72.8,14.8,73.2,14.3,73.2z"/>
					</g>
				</g>
			</g>
			<g>
				<g>
					<g>
						<path class="st6" d="M14.8,62.7h-26.5c-0.6,0-1-0.4-1-1v-4.9c0-0.6,0.4-1,1-1h26.5c0.6,0,1,0.4,1,1v4.9
							C15.8,62.2,15.3,62.7,14.8,62.7z"/>
					</g>
					<g>
						<path class="st6" d="M14.8,72.7h-26.5c-0.6,0-1-0.4-1-1v-4.9c0-0.6,0.4-1,1-1h26.5c0.6,0,1,0.4,1,1v4.9
							C15.8,72.3,15.3,72.7,14.8,72.7z"/>
					</g>
				</g>
			</g>
			<g>
				<g>
					<g>
						<path class="st6" d="M15.3,62.2h-26.5c-0.6,0-1-0.4-1-1v-4.9c0-0.6,0.4-1,1-1h26.5c0.6,0,1,0.4,1,1v4.9
							C16.3,61.7,15.8,62.2,15.3,62.2z"/>
					</g>
					<g>
						<path class="st6" d="M15.3,72.2h-26.5c-0.6,0-1-0.4-1-1v-4.9c0-0.6,0.4-1,1-1h26.5c0.6,0,1,0.4,1,1v4.9
							C16.3,71.8,15.8,72.2,15.3,72.2z"/>
					</g>
				</g>
			</g>
			<g>
				<g>
					<g>
						<path class="st6" d="M15.8,61.7h-26.5c-0.6,0-1-0.4-1-1v-4.9c0-0.6,0.4-1,1-1h26.5c0.6,0,1,0.4,1,1v4.9
							C16.8,61.2,16.3,61.7,15.8,61.7z"/>
					</g>
					<g>
						<path class="st6" d="M15.8,71.7h-26.5c-0.6,0-1-0.4-1-1v-4.9c0-0.6,0.4-1,1-1h26.5c0.6,0,1,0.4,1,1v4.9
							C16.8,71.3,16.3,71.7,15.8,71.7z"/>
					</g>
				</g>
			</g>
			<g>
				<g>
					<g>
						<path class="st6" d="M16.3,61.2h-26.5c-0.6,0-1-0.4-1-1v-4.9c0-0.6,0.4-1,1-1h26.5c0.6,0,1,0.4,1,1v4.9
							C17.3,60.7,16.8,61.2,16.3,61.2z"/>
					</g>
					<g>
						<path class="st6" d="M16.3,71.2h-26.5c-0.6,0-1-0.4-1-1v-4.9c0-0.6,0.4-1,1-1h26.5c0.6,0,1,0.4,1,1v4.9
							C17.3,70.8,16.8,71.2,16.3,71.2z"/>
					</g>
				</g>
			</g>
			<g>
				<g>
					<g>
						<path class="st6" d="M16.8,60.7H-9.7c-0.6,0-1-0.4-1-1v-4.9c0-0.6,0.4-1,1-1h26.5c0.6,0,1,0.4,1,1v4.9
							C17.8,60.2,17.3,60.7,16.8,60.7z"/>
					</g>
					<g>
						<path class="st6" d="M16.8,70.7H-9.7c-0.6,0-1-0.4-1-1v-4.9c0-0.6,0.4-1,1-1h26.5c0.6,0,1,0.4,1,1v4.9
							C17.8,70.3,17.3,70.7,16.8,70.7z"/>
					</g>
				</g>
			</g>
			<g>
				<g>
					<g>
						<path class="st6" d="M17.3,60.2H-9.2c-0.6,0-1-0.4-1-1v-4.9c0-0.6,0.4-1,1-1h26.5c0.6,0,1,0.4,1,1v4.9
							C18.3,59.7,17.8,60.2,17.3,60.2z"/>
					</g>
					<g>
						<path class="st6" d="M17.3,70.2H-9.2c-0.6,0-1-0.4-1-1v-4.9c0-0.6,0.4-1,1-1h26.5c0.6,0,1,0.4,1,1v4.9
							C18.3,69.8,17.8,70.2,17.3,70.2z"/>
					</g>
				</g>
			</g>
			<g>
				<g>
					<g>
						<path class="st6" d="M17.8,59.7H-8.7c-0.6,0-1-0.4-1-1v-4.9c0-0.6,0.4-1,1-1h26.5c0.6,0,1,0.4,1,1v4.9
							C18.8,59.2,18.3,59.7,17.8,59.7z"/>
					</g>
					<g>
						<path class="st6" d="M17.8,69.7H-8.7c-0.6,0-1-0.4-1-1v-4.9c0-0.6,0.4-1,1-1h26.5c0.6,0,1,0.4,1,1v4.9
							C18.8,69.3,18.3,69.7,17.8,69.7z"/>
					</g>
				</g>
			</g>
			<g>
				<g>
					<g>
						<path class="st6" d="M18.3,59.2H-8.2c-0.6,0-1-0.4-1-1v-4.9c0-0.6,0.4-1,1-1h26.5c0.6,0,1,0.4,1,1v4.9
							C19.3,58.7,18.8,59.2,18.3,59.2z"/>
					</g>
					<g>
						<path class="st6" d="M18.3,69.2H-8.2c-0.6,0-1-0.4-1-1v-4.9c0-0.6,0.4-1,1-1h26.5c0.6,0,1,0.4,1,1v4.9
							C19.3,68.8,18.8,69.2,18.3,69.2z"/>
					</g>
				</g>
			</g>
			<g>
				<g>
					<g>
						<path class="st6" d="M18.8,58.7H-7.7c-0.6,0-1-0.4-1-1v-4.9c0-0.6,0.4-1,1-1h26.5c0.6,0,1,0.4,1,1v4.9
							C19.8,58.2,19.3,58.7,18.8,58.7z"/>
					</g>
					<g>
						<path class="st6" d="M18.8,68.7H-7.7c-0.6,0-1-0.4-1-1v-4.9c0-0.6,0.4-1,1-1h26.5c0.6,0,1,0.4,1,1v4.9
							C19.8,68.3,19.3,68.7,18.8,68.7z"/>
					</g>
				</g>
			</g>
			<g>
				<g>
					<g>
						<path class="st6" d="M19.3,58.2H-7.2c-0.6,0-1-0.4-1-1v-4.9c0-0.6,0.4-1,1-1h26.5c0.6,0,1,0.4,1,1v4.9
							C20.3,57.7,19.8,58.2,19.3,58.2z"/>
					</g>
					<g>
						<path class="st6" d="M19.3,68.2H-7.2c-0.6,0-1-0.4-1-1v-4.9c0-0.6,0.4-1,1-1h26.5c0.6,0,1,0.4,1,1v4.9
							C20.3,67.8,19.8,68.2,19.3,68.2z"/>
					</g>
				</g>
			</g>
			<g>
				<g>
					<g>
						<path class="st6" d="M19.8,57.7H-6.7c-0.6,0-1-0.4-1-1v-4.9c0-0.6,0.4-1,1-1h26.5c0.6,0,1,0.4,1,1v4.9
							C20.8,57.2,20.3,57.7,19.8,57.7z"/>
					</g>
					<g>
						<path class="st6" d="M19.8,67.7H-6.7c-0.6,0-1-0.4-1-1v-4.9c0-0.6,0.4-1,1-1h26.5c0.6,0,1,0.4,1,1v4.9
							C20.8,67.3,20.3,67.7,19.8,67.7z"/>
					</g>
				</g>
			</g>
			<g>
				<g>
					<g>
						<path class="st6" d="M20.3,57.2H-6.2c-0.6,0-1-0.4-1-1v-4.9c0-0.6,0.4-1,1-1h26.5c0.6,0,1,0.4,1,1v4.9
							C21.3,56.7,20.8,57.2,20.3,57.2z"/>
					</g>
					<g>
						<path class="st6" d="M20.3,67.2H-6.2c-0.6,0-1-0.4-1-1v-4.9c0-0.6,0.4-1,1-1h26.5c0.6,0,1,0.4,1,1v4.9
							C21.3,66.8,20.8,67.2,20.3,67.2z"/>
					</g>
				</g>
			</g>
			<g>
				<g>
					<g>
						<path class="st6" d="M20.8,56.7H-5.7c-0.6,0-1-0.4-1-1v-4.9c0-0.6,0.4-1,1-1h26.5c0.6,0,1,0.4,1,1v4.9
							C21.8,56.2,21.3,56.7,20.8,56.7z"/>
					</g>
					<g>
						<path class="st6" d="M20.8,66.7H-5.7c-0.6,0-1-0.4-1-1v-4.9c0-0.6,0.4-1,1-1h26.5c0.6,0,1,0.4,1,1v4.9
							C21.8,66.3,21.3,66.7,20.8,66.7z"/>
					</g>
				</g>
			</g>
			<g>
				<g>
					<g>
						<path class="st6" d="M21.3,56.2H-5.2c-0.6,0-1-0.4-1-1v-4.9c0-0.6,0.4-1,1-1h26.5c0.6,0,1,0.4,1,1v4.9
							C22.3,55.7,21.8,56.2,21.3,56.2z"/>
					</g>
					<g>
						<path class="st6" d="M21.3,66.2H-5.2c-0.6,0-1-0.4-1-1v-4.9c0-0.6,0.4-1,1-1h26.5c0.6,0,1,0.4,1,1v4.9
							C22.3,65.8,21.8,66.2,21.3,66.2z"/>
					</g>
					<g>
						<path class="st6" d="M21.3,76.5H-5.2c-0.6,0-1-0.4-1-1v-4.9c0-0.6,0.4-1,1-1h26.5c0.6,0,1,0.4,1,1v4.9
							C22.3,76,21.8,76.5,21.3,76.5z"/>
					</g>
				</g>
			</g>
			<g>
				<g>
					<g>
						<path class="st6" d="M21.8,55.7H-4.7c-0.6,0-1-0.4-1-1v-4.9c0-0.6,0.4-1,1-1h26.5c0.6,0,1,0.4,1,1v4.9
							C22.8,55.2,22.3,55.7,21.8,55.7z"/>
					</g>
					<g>
						<path class="st6" d="M21.8,65.7H-4.7c-0.6,0-1-0.4-1-1v-4.9c0-0.6,0.4-1,1-1h26.5c0.6,0,1,0.4,1,1v4.9
							C22.8,65.3,22.3,65.7,21.8,65.7z"/>
					</g>
					<g>
						<path class="st6" d="M21.8,76H-4.7c-0.6,0-1-0.4-1-1v-4.9c0-0.6,0.4-1,1-1h26.5c0.6,0,1,0.4,1,1V75C22.8,75.5,22.3,76,21.8,76
							z"/>
					</g>
				</g>
			</g>
			<g>
				<g>
					<g>
						<path class="st6" d="M22.3,55.2H-4.2c-0.6,0-1-0.4-1-1v-4.9c0-0.6,0.4-1,1-1h26.5c0.6,0,1,0.4,1,1v4.9
							C23.3,54.7,22.8,55.2,22.3,55.2z"/>
					</g>
					<g>
						<path class="st6" d="M22.3,65.2H-4.2c-0.6,0-1-0.4-1-1v-4.9c0-0.6,0.4-1,1-1h26.5c0.6,0,1,0.4,1,1v4.9
							C23.3,64.8,22.8,65.2,22.3,65.2z"/>
					</g>
					<g>
						<path class="st6" d="M22.3,75.5H-4.2c-0.6,0-1-0.4-1-1v-4.9c0-0.6,0.4-1,1-1h26.5c0.6,0,1,0.4,1,1v4.9
							C23.3,75,22.8,75.5,22.3,75.5z"/>
					</g>
				</g>
			</g>
			<g>
				<g>
					<g>
						<path class="st6" d="M22.8,54.7H-3.7c-0.6,0-1-0.4-1-1v-4.9c0-0.6,0.4-1,1-1h26.5c0.6,0,1,0.4,1,1v4.9
							C23.8,54.2,23.3,54.7,22.8,54.7z"/>
					</g>
					<g>
						<path class="st6" d="M22.8,64.7H-3.7c-0.6,0-1-0.4-1-1v-4.9c0-0.6,0.4-1,1-1h26.5c0.6,0,1,0.4,1,1v4.9
							C23.8,64.3,23.3,64.7,22.8,64.7z"/>
					</g>
					<g>
						<path class="st6" d="M22.8,75H-3.7c-0.6,0-1-0.4-1-1v-4.9c0-0.6,0.4-1,1-1h26.5c0.6,0,1,0.4,1,1V74C23.8,74.5,23.3,75,22.8,75
							z"/>
					</g>
				</g>
			</g>
			<g>
				<g>
					<g>
						<path class="st6" d="M23.3,54.2H-3.2c-0.6,0-1-0.4-1-1v-4.9c0-0.6,0.4-1,1-1h26.5c0.6,0,1,0.4,1,1v4.9
							C24.3,53.7,23.8,54.2,23.3,54.2z"/>
					</g>
					<g>
						<path class="st6" d="M23.3,64.2H-3.2c-0.6,0-1-0.4-1-1v-4.9c0-0.6,0.4-1,1-1h26.5c0.6,0,1,0.4,1,1v4.9
							C24.3,63.8,23.8,64.2,23.3,64.2z"/>
					</g>
					<g>
						<path class="st6" d="M23.3,74.5H-3.2c-0.6,0-1-0.4-1-1v-4.9c0-0.6,0.4-1,1-1h26.5c0.6,0,1,0.4,1,1v4.9
							C24.3,74,23.8,74.5,23.3,74.5z"/>
					</g>
				</g>
			</g>
			<g>
				<g>
					<g>
						<path class="st6" d="M23.8,53.7H-2.7c-0.6,0-1-0.4-1-1v-4.9c0-0.6,0.4-1,1-1h26.5c0.6,0,1,0.4,1,1v4.9
							C24.8,53.2,24.3,53.7,23.8,53.7z"/>
					</g>
					<g>
						<path class="st6" d="M23.8,63.7H-2.7c-0.6,0-1-0.4-1-1v-4.9c0-0.6,0.4-1,1-1h26.5c0.6,0,1,0.4,1,1v4.9
							C24.8,63.3,24.3,63.7,23.8,63.7z"/>
					</g>
					<g>
						<path class="st6" d="M23.8,74H-2.7c-0.6,0-1-0.4-1-1v-4.9c0-0.6,0.4-1,1-1h26.5c0.6,0,1,0.4,1,1V73C24.8,73.5,24.3,74,23.8,74
							z"/>
					</g>
				</g>
			</g>
			<g>
				<g>
					<g>
						<path class="st6" d="M24.3,53.2H-2.2c-0.6,0-1-0.4-1-1v-4.9c0-0.6,0.4-1,1-1h26.5c0.6,0,1,0.4,1,1v4.9
							C25.3,52.7,24.8,53.2,24.3,53.2z"/>
					</g>
					<g>
						<path class="st6" d="M24.3,63.2H-2.2c-0.6,0-1-0.4-1-1v-4.9c0-0.6,0.4-1,1-1h26.5c0.6,0,1,0.4,1,1v4.9
							C25.3,62.8,24.8,63.2,24.3,63.2z"/>
					</g>
					<g>
						<path class="st6" d="M24.3,73.5H-2.2c-0.6,0-1-0.4-1-1v-4.9c0-0.6,0.4-1,1-1h26.5c0.6,0,1,0.4,1,1v4.9
							C25.3,73,24.8,73.5,24.3,73.5z"/>
					</g>
				</g>
			</g>
			<g>
				<g>
					<g>
						<path class="st6" d="M24.8,52.7H-1.7c-0.6,0-1-0.4-1-1v-4.9c0-0.6,0.4-1,1-1h26.5c0.6,0,1,0.4,1,1v4.9
							C25.8,52.2,25.3,52.7,24.8,52.7z"/>
					</g>
					<g>
						<path class="st6" d="M24.8,62.7H-1.7c-0.6,0-1-0.4-1-1v-4.9c0-0.6,0.4-1,1-1h26.5c0.6,0,1,0.4,1,1v4.9
							C25.8,62.3,25.3,62.7,24.8,62.7z"/>
					</g>
					<g>
						<path class="st6" d="M24.8,73H-1.7c-0.6,0-1-0.4-1-1v-4.9c0-0.6,0.4-1,1-1h26.5c0.6,0,1,0.4,1,1V72C25.8,72.5,25.3,73,24.8,73
							z"/>
					</g>
				</g>
			</g>
			<g>
				<g>
					<g>
						<path class="st6" d="M25.3,52.2H-1.2c-0.6,0-1-0.4-1-1v-4.9c0-0.6,0.4-1,1-1h26.5c0.6,0,1,0.4,1,1v4.9
							C26.3,51.7,25.8,52.2,25.3,52.2z"/>
					</g>
					<g>
						<path class="st6" d="M25.3,62.2H-1.2c-0.6,0-1-0.4-1-1v-4.9c0-0.6,0.4-1,1-1h26.5c0.6,0,1,0.4,1,1v4.9
							C26.3,61.8,25.8,62.2,25.3,62.2z"/>
					</g>
					<g>
						<path class="st6" d="M25.3,72.5H-1.2c-0.6,0-1-0.4-1-1v-4.9c0-0.6,0.4-1,1-1h26.5c0.6,0,1,0.4,1,1v4.9
							C26.3,72,25.8,72.5,25.3,72.5z"/>
					</g>
				</g>
			</g>
			<g>
				<g>
					<g>
						<path class="st6" d="M25.8,51.7H-0.7c-0.6,0-1-0.4-1-1v-4.9c0-0.6,0.4-1,1-1h26.5c0.6,0,1,0.4,1,1v4.9
							C26.8,51.2,26.3,51.7,25.8,51.7z"/>
					</g>
					<g>
						<path class="st6" d="M25.8,61.7H-0.7c-0.6,0-1-0.4-1-1v-4.9c0-0.6,0.4-1,1-1h26.5c0.6,0,1,0.4,1,1v4.9
							C26.8,61.3,26.3,61.7,25.8,61.7z"/>
					</g>
					<g>
						<path class="st6" d="M25.8,72H-0.7c-0.6,0-1-0.4-1-1v-4.9c0-0.6,0.4-1,1-1h26.5c0.6,0,1,0.4,1,1V71C26.8,71.5,26.3,72,25.8,72
							z"/>
					</g>
				</g>
			</g>
			<g>
				<g>
					<g>
						<path class="st6" d="M26.3,51.2H-0.2c-0.6,0-1-0.4-1-1v-4.9c0-0.6,0.4-1,1-1h26.5c0.6,0,1,0.4,1,1v4.9
							C27.3,50.7,26.8,51.2,26.3,51.2z"/>
					</g>
					<g>
						<path class="st6" d="M26.3,61.2H-0.2c-0.6,0-1-0.4-1-1v-4.9c0-0.6,0.4-1,1-1h26.5c0.6,0,1,0.4,1,1v4.9
							C27.3,60.8,26.8,61.2,26.3,61.2z"/>
					</g>
					<g>
						<path class="st6" d="M26.3,71.5H-0.2c-0.6,0-1-0.4-1-1v-4.9c0-0.6,0.4-1,1-1h26.5c0.6,0,1,0.4,1,1v4.9
							C27.3,71,26.8,71.5,26.3,71.5z"/>
					</g>
				</g>
			</g>
			<g>
				<g>
					<g>
						<path class="st6" d="M26.8,50.7H0.3c-0.6,0-1-0.4-1-1v-4.9c0-0.6,0.4-1,1-1h26.5c0.6,0,1,0.4,1,1v4.9
							C27.8,50.2,27.3,50.7,26.8,50.7z"/>
					</g>
					<g>
						<path class="st6" d="M26.8,60.7H0.3c-0.6,0-1-0.4-1-1v-4.9c0-0.6,0.4-1,1-1h26.5c0.6,0,1,0.4,1,1v4.9
							C27.8,60.3,27.3,60.7,26.8,60.7z"/>
					</g>
					<g>
						<path class="st6" d="M26.8,71H0.3c-0.6,0-1-0.4-1-1v-4.9c0-0.6,0.4-1,1-1h26.5c0.6,0,1,0.4,1,1V70C27.8,70.5,27.3,71,26.8,71z
							"/>
					</g>
				</g>
			</g>
			<g>
				<g>
					<g>
						<path class="st6" d="M27.3,50.2H0.8c-0.6,0-1-0.4-1-1v-4.9c0-0.6,0.4-1,1-1h26.5c0.6,0,1,0.4,1,1v4.9
							C28.3,49.7,27.8,50.2,27.3,50.2z"/>
					</g>
					<g>
						<path class="st6" d="M27.3,60.2H0.8c-0.6,0-1-0.4-1-1v-4.9c0-0.6,0.4-1,1-1h26.5c0.6,0,1,0.4,1,1v4.9
							C28.3,59.8,27.8,60.2,27.3,60.2z"/>
					</g>
					<g>
						<path class="st6" d="M27.3,70.5H0.8c-0.6,0-1-0.4-1-1v-4.9c0-0.6,0.4-1,1-1h26.5c0.6,0,1,0.4,1,1v4.9
							C28.3,70,27.8,70.5,27.3,70.5z"/>
					</g>
				</g>
			</g>
			<g>
				<g>
					<g>
						<path class="st6" d="M27.8,49.7H1.3c-0.6,0-1-0.4-1-1v-4.9c0-0.6,0.4-1,1-1h26.5c0.6,0,1,0.4,1,1v4.9
							C28.8,49.2,28.3,49.7,27.8,49.7z"/>
					</g>
					<g>
						<path class="st6" d="M27.8,59.7H1.3c-0.6,0-1-0.4-1-1v-4.9c0-0.6,0.4-1,1-1h26.5c0.6,0,1,0.4,1,1v4.9
							C28.8,59.3,28.3,59.7,27.8,59.7z"/>
					</g>
					<g>
						<path class="st6" d="M27.8,70H1.3c-0.6,0-1-0.4-1-1v-4.9c0-0.6,0.4-1,1-1h26.5c0.6,0,1,0.4,1,1V69C28.8,69.5,28.3,70,27.8,70z
							"/>
					</g>
				</g>
			</g>
			<g>
				<g>
					<g>
						<path class="st6" d="M28.3,49.2H1.8c-0.6,0-1-0.4-1-1v-4.9c0-0.6,0.4-1,1-1h26.5c0.6,0,1,0.4,1,1v4.9
							C29.3,48.7,28.8,49.2,28.3,49.2z"/>
					</g>
					<g>
						<path class="st6" d="M28.3,59.2H1.8c-0.6,0-1-0.4-1-1v-4.9c0-0.6,0.4-1,1-1h26.5c0.6,0,1,0.4,1,1v4.9
							C29.3,58.8,28.8,59.2,28.3,59.2z"/>
					</g>
					<g>
						<path class="st6" d="M28.3,69.5H1.8c-0.6,0-1-0.4-1-1v-4.9c0-0.6,0.4-1,1-1h26.5c0.6,0,1,0.4,1,1v4.9
							C29.3,69,28.8,69.5,28.3,69.5z"/>
					</g>
				</g>
			</g>
			<g>
				<g>
					<g>
						<path class="st6" d="M28.8,48.7H2.3c-0.6,0-1-0.4-1-1v-4.9c0-0.6,0.4-1,1-1h26.5c0.6,0,1,0.4,1,1v4.9
							C29.8,48.2,29.3,48.7,28.8,48.7z"/>
					</g>
					<g>
						<path class="st6" d="M28.8,58.7H2.3c-0.6,0-1-0.4-1-1v-4.9c0-0.6,0.4-1,1-1h26.5c0.6,0,1,0.4,1,1v4.9
							C29.8,58.3,29.3,58.7,28.8,58.7z"/>
					</g>
					<g>
						<path class="st6" d="M28.8,69H2.3c-0.6,0-1-0.4-1-1v-4.9c0-0.6,0.4-1,1-1h26.5c0.6,0,1,0.4,1,1V68C29.8,68.5,29.3,69,28.8,69z
							"/>
					</g>
				</g>
			</g>
			<g>
				<g>
					<g>
						<path class="st6" d="M29.3,48.2H2.8c-0.6,0-1-0.4-1-1v-4.9c0-0.6,0.4-1,1-1h26.5c0.6,0,1,0.4,1,1v4.9
							C30.3,47.7,29.8,48.2,29.3,48.2z"/>
					</g>
					<g>
						<path class="st6" d="M29.3,58.2H2.8c-0.6,0-1-0.4-1-1v-4.9c0-0.6,0.4-1,1-1h26.5c0.6,0,1,0.4,1,1v4.9
							C30.3,57.8,29.8,58.2,29.3,58.2z"/>
					</g>
					<g>
						<path class="st6" d="M29.3,68.5H2.8c-0.6,0-1-0.4-1-1v-4.9c0-0.6,0.4-1,1-1h26.5c0.6,0,1,0.4,1,1v4.9
							C30.3,68,29.8,68.5,29.3,68.5z"/>
					</g>
				</g>
			</g>
			<g>
				<g>
					<g>
						<path class="st6" d="M29.8,47.7H3.3c-0.6,0-1-0.4-1-1v-4.9c0-0.6,0.4-1,1-1h26.5c0.6,0,1,0.4,1,1v4.9
							C30.8,47.2,30.3,47.7,29.8,47.7z"/>
					</g>
					<g>
						<path class="st6" d="M29.8,57.7H3.3c-0.6,0-1-0.4-1-1v-4.9c0-0.6,0.4-1,1-1h26.5c0.6,0,1,0.4,1,1v4.9
							C30.8,57.3,30.3,57.7,29.8,57.7z"/>
					</g>
					<g>
						<path class="st6" d="M29.8,68H3.3c-0.6,0-1-0.4-1-1v-4.9c0-0.6,0.4-1,1-1h26.5c0.6,0,1,0.4,1,1V67C30.8,67.5,30.3,68,29.8,68z
							"/>
					</g>
				</g>
			</g>
			<g>
				<g>
					<g>
						<path class="st6" d="M30.3,47.2H3.8c-0.6,0-1-0.4-1-1v-4.9c0-0.6,0.4-1,1-1h26.5c0.6,0,1,0.4,1,1v4.9
							C31.3,46.7,30.8,47.2,30.3,47.2z"/>
					</g>
					<g>
						<path class="st6" d="M30.3,57.2H3.8c-0.6,0-1-0.4-1-1v-4.9c0-0.6,0.4-1,1-1h26.5c0.6,0,1,0.4,1,1v4.9
							C31.3,56.8,30.8,57.2,30.3,57.2z"/>
					</g>
					<g>
						<path class="st6" d="M30.3,67.5H3.8c-0.6,0-1-0.4-1-1v-4.9c0-0.6,0.4-1,1-1h26.5c0.6,0,1,0.4,1,1v4.9
							C31.3,67,30.8,67.5,30.3,67.5z"/>
					</g>
				</g>
			</g>
			<g>
				<g>
					<g>
						<path class="st6" d="M30.8,46.7H4.3c-0.6,0-1-0.4-1-1v-4.9c0-0.6,0.4-1,1-1h26.5c0.6,0,1,0.4,1,1v4.9
							C31.8,46.2,31.3,46.7,30.8,46.7z"/>
					</g>
					<g>
						<path class="st6" d="M30.8,56.7H4.3c-0.6,0-1-0.4-1-1v-4.9c0-0.6,0.4-1,1-1h26.5c0.6,0,1,0.4,1,1v4.9
							C31.8,56.3,31.3,56.7,30.8,56.7z"/>
					</g>
					<g>
						<path class="st6" d="M30.8,67H4.3c-0.6,0-1-0.4-1-1v-4.9c0-0.6,0.4-1,1-1h26.5c0.6,0,1,0.4,1,1V66C31.8,66.5,31.3,67,30.8,67z
							"/>
					</g>
				</g>
			</g>
			<g>
				<g>
					<g>
						<path class="st6" d="M31.3,46.2H4.8c-0.6,0-1-0.4-1-1v-4.9c0-0.6,0.4-1,1-1h26.5c0.6,0,1,0.4,1,1v4.9
							C32.3,45.7,31.8,46.2,31.3,46.2z"/>
					</g>
					<g>
						<path class="st6" d="M31.3,56.2H4.8c-0.6,0-1-0.4-1-1v-4.9c0-0.6,0.4-1,1-1h26.5c0.6,0,1,0.4,1,1v4.9
							C32.3,55.8,31.8,56.2,31.3,56.2z"/>
					</g>
					<g>
						<path class="st6" d="M31.3,66.5H4.8c-0.6,0-1-0.4-1-1v-4.9c0-0.6,0.4-1,1-1h26.5c0.6,0,1,0.4,1,1v4.9
							C32.3,66,31.8,66.5,31.3,66.5z"/>
					</g>
					<g>
						<path class="st6" d="M31.3,76.8H4.8c-0.6,0-1-0.4-1-1v-4.9c0-0.6,0.4-1,1-1h26.5c0.6,0,1,0.4,1,1v4.9
							C32.3,76.3,31.8,76.8,31.3,76.8z"/>
					</g>
				</g>
			</g>
			<g>
				<g>
					<g>
						<path class="st6" d="M31.8,45.7H5.3c-0.6,0-1-0.4-1-1v-4.9c0-0.6,0.4-1,1-1h26.5c0.6,0,1,0.4,1,1v4.9
							C32.8,45.2,32.3,45.7,31.8,45.7z"/>
					</g>
					<g>
						<path class="st6" d="M31.8,55.7H5.3c-0.6,0-1-0.4-1-1v-4.9c0-0.6,0.4-1,1-1h26.5c0.6,0,1,0.4,1,1v4.9
							C32.8,55.3,32.3,55.7,31.8,55.7z"/>
					</g>
					<g>
						<path class="st6" d="M31.8,66H5.3c-0.6,0-1-0.4-1-1v-4.9c0-0.6,0.4-1,1-1h26.5c0.6,0,1,0.4,1,1V65C32.8,65.5,32.3,66,31.8,66z
							"/>
					</g>
					<g>
						<path class="st6" d="M31.8,76.3H5.3c-0.6,0-1-0.4-1-1v-4.9c0-0.6,0.4-1,1-1h26.5c0.6,0,1,0.4,1,1v4.9
							C32.8,75.8,32.3,76.3,31.8,76.3z"/>
					</g>
				</g>
			</g>
			<g>
				<g>
					<g>
						<path class="st6" d="M-0.5,45.2h-5.8c-0.6,0-1-0.4-1-1v-4.9c0-0.6,0.4-1,1-1h5.8c0.6,0,1,0.4,1,1v4.9
							C0.5,44.7,0,45.2-0.5,45.2z"/>
						<path class="st6" d="M32.3,45.2H5.8c-0.6,0-1-0.4-1-1v-4.9c0-0.6,0.4-1,1-1h26.5c0.6,0,1,0.4,1,1v4.9
							C33.3,44.7,32.8,45.2,32.3,45.2z"/>
					</g>
					<g>
						<path class="st6" d="M-0.5,55.2h-5.8c-0.6,0-1-0.4-1-1v-4.9c0-0.6,0.4-1,1-1h5.8c0.6,0,1,0.4,1,1v4.9
							C0.5,54.8,0,55.2-0.5,55.2z"/>
						<path class="st6" d="M32.3,55.2H5.8c-0.6,0-1-0.4-1-1v-4.9c0-0.6,0.4-1,1-1h26.5c0.6,0,1,0.4,1,1v4.9
							C33.3,54.8,32.8,55.2,32.3,55.2z"/>
					</g>
					<g>
						<path class="st6" d="M-0.5,65.5h-5.8c-0.6,0-1-0.4-1-1v-4.9c0-0.6,0.4-1,1-1h5.8c0.6,0,1,0.4,1,1v4.9C0.5,65,0,65.5-0.5,65.5z
							"/>
						<path class="st6" d="M32.3,65.5H5.8c-0.6,0-1-0.4-1-1v-4.9c0-0.6,0.4-1,1-1h26.5c0.6,0,1,0.4,1,1v4.9
							C33.3,65,32.8,65.5,32.3,65.5z"/>
					</g>
					<g>
						<path class="st6" d="M-0.5,75.8h-5.8c-0.6,0-1-0.4-1-1v-4.9c0-0.6,0.4-1,1-1h5.8c0.6,0,1,0.4,1,1v4.9
							C0.5,75.3,0,75.8-0.5,75.8z"/>
						<path class="st6" d="M32.3,75.8H5.8c-0.6,0-1-0.4-1-1v-4.9c0-0.6,0.4-1,1-1h26.5c0.6,0,1,0.4,1,1v4.9
							C33.3,75.3,32.8,75.8,32.3,75.8z"/>
					</g>
				</g>
			</g>
			<g>
				<g>
					<g>
						<path class="st6" d="M0,44.7h-5.8c-0.6,0-1-0.4-1-1v-4.9c0-0.6,0.4-1,1-1H0c0.6,0,1,0.4,1,1v4.9C1,44.2,0.5,44.7,0,44.7z"/>
						<path class="st6" d="M32.8,44.7H6.3c-0.6,0-1-0.4-1-1v-4.9c0-0.6,0.4-1,1-1h26.5c0.6,0,1,0.4,1,1v4.9
							C33.8,44.2,33.3,44.7,32.8,44.7z"/>
					</g>
					<g>
						<path class="st6" d="M0,54.7h-5.8c-0.6,0-1-0.4-1-1v-4.9c0-0.6,0.4-1,1-1H0c0.6,0,1,0.4,1,1v4.9C1,54.3,0.5,54.7,0,54.7z"/>
						<path class="st6" d="M32.8,54.7H6.3c-0.6,0-1-0.4-1-1v-4.9c0-0.6,0.4-1,1-1h26.5c0.6,0,1,0.4,1,1v4.9
							C33.8,54.3,33.3,54.7,32.8,54.7z"/>
					</g>
					<g>
						<path class="st6" d="M0,65h-5.8c-0.6,0-1-0.4-1-1v-4.9c0-0.6,0.4-1,1-1H0c0.6,0,1,0.4,1,1V64C1,64.5,0.5,65,0,65z"/>
						<path class="st6" d="M32.8,65H6.3c-0.6,0-1-0.4-1-1v-4.9c0-0.6,0.4-1,1-1h26.5c0.6,0,1,0.4,1,1V64C33.8,64.5,33.3,65,32.8,65z
							"/>
					</g>
					<g>
						<path class="st6" d="M0,75.3h-5.8c-0.6,0-1-0.4-1-1v-4.9c0-0.6,0.4-1,1-1H0c0.6,0,1,0.4,1,1v4.9C1,74.8,0.5,75.3,0,75.3z"/>
						<path class="st6" d="M32.8,75.3H6.3c-0.6,0-1-0.4-1-1v-4.9c0-0.6,0.4-1,1-1h26.5c0.6,0,1,0.4,1,1v4.9
							C33.8,74.8,33.3,75.3,32.8,75.3z"/>
					</g>
				</g>
			</g>
			<g>
				<g>
					<g>
						<path class="st6" d="M0.5,44.2h-5.8c-0.6,0-1-0.4-1-1v-4.9c0-0.6,0.4-1,1-1h5.8c0.6,0,1,0.4,1,1v4.9C1.5,43.7,1,44.2,0.5,44.2
							z"/>
						<path class="st6" d="M33.3,44.2H6.8c-0.6,0-1-0.4-1-1v-4.9c0-0.6,0.4-1,1-1h26.5c0.6,0,1,0.4,1,1v4.9
							C34.3,43.7,33.8,44.2,33.3,44.2z"/>
					</g>
					<g>
						<path class="st6" d="M0.5,54.2h-5.8c-0.6,0-1-0.4-1-1v-4.9c0-0.6,0.4-1,1-1h5.8c0.6,0,1,0.4,1,1v4.9C1.5,53.8,1,54.2,0.5,54.2
							z"/>
						<path class="st6" d="M33.3,54.2H6.8c-0.6,0-1-0.4-1-1v-4.9c0-0.6,0.4-1,1-1h26.5c0.6,0,1,0.4,1,1v4.9
							C34.3,53.8,33.8,54.2,33.3,54.2z"/>
					</g>
					<g>
						<path class="st6" d="M0.5,64.5h-5.8c-0.6,0-1-0.4-1-1v-4.9c0-0.6,0.4-1,1-1h5.8c0.6,0,1,0.4,1,1v4.9C1.5,64,1,64.5,0.5,64.5z"
							/>
						<path class="st6" d="M33.3,64.5H6.8c-0.6,0-1-0.4-1-1v-4.9c0-0.6,0.4-1,1-1h26.5c0.6,0,1,0.4,1,1v4.9
							C34.3,64,33.8,64.5,33.3,64.5z"/>
					</g>
					<g>
						<path class="st6" d="M0.5,74.8h-5.8c-0.6,0-1-0.4-1-1v-4.9c0-0.6,0.4-1,1-1h5.8c0.6,0,1,0.4,1,1v4.9C1.5,74.3,1,74.8,0.5,74.8
							z"/>
						<path class="st6" d="M33.3,74.8H6.8c-0.6,0-1-0.4-1-1v-4.9c0-0.6,0.4-1,1-1h26.5c0.6,0,1,0.4,1,1v4.9
							C34.3,74.3,33.8,74.8,33.3,74.8z"/>
					</g>
				</g>
			</g>
			<g>
				<g>
					<g>
						<path class="st6" d="M1,43.7h-5.8c-0.6,0-1-0.4-1-1v-4.9c0-0.6,0.4-1,1-1H1c0.6,0,1,0.4,1,1v4.9C2,43.2,1.5,43.7,1,43.7z"/>
						<path class="st6" d="M33.8,43.7H7.3c-0.6,0-1-0.4-1-1v-4.9c0-0.6,0.4-1,1-1h26.5c0.6,0,1,0.4,1,1v4.9
							C34.8,43.2,34.3,43.7,33.8,43.7z"/>
					</g>
					<g>
						<path class="st6" d="M1,53.7h-5.8c-0.6,0-1-0.4-1-1v-4.9c0-0.6,0.4-1,1-1H1c0.6,0,1,0.4,1,1v4.9C2,53.3,1.5,53.7,1,53.7z"/>
						<path class="st6" d="M33.8,53.7H7.3c-0.6,0-1-0.4-1-1v-4.9c0-0.6,0.4-1,1-1h26.5c0.6,0,1,0.4,1,1v4.9
							C34.8,53.3,34.3,53.7,33.8,53.7z"/>
					</g>
					<g>
						<path class="st6" d="M1,64h-5.8c-0.6,0-1-0.4-1-1v-4.9c0-0.6,0.4-1,1-1H1c0.6,0,1,0.4,1,1V63C2,63.5,1.5,64,1,64z"/>
						<path class="st6" d="M33.8,64H7.3c-0.6,0-1-0.4-1-1v-4.9c0-0.6,0.4-1,1-1h26.5c0.6,0,1,0.4,1,1V63C34.8,63.5,34.3,64,33.8,64z
							"/>
					</g>
					<g>
						<path class="st6" d="M1,74.3h-5.8c-0.6,0-1-0.4-1-1v-4.9c0-0.6,0.4-1,1-1H1c0.6,0,1,0.4,1,1v4.9C2,73.8,1.5,74.3,1,74.3z"/>
						<path class="st6" d="M33.8,74.3H7.3c-0.6,0-1-0.4-1-1v-4.9c0-0.6,0.4-1,1-1h26.5c0.6,0,1,0.4,1,1v4.9
							C34.8,73.8,34.3,74.3,33.8,74.3z"/>
					</g>
				</g>
			</g>
			<g>
				<g>
					<g>
						<path class="st6" d="M1.5,43.2h-5.8c-0.6,0-1-0.4-1-1v-4.9c0-0.6,0.4-1,1-1h5.8c0.6,0,1,0.4,1,1v4.9C2.5,42.7,2,43.2,1.5,43.2
							z"/>
						<path class="st6" d="M34.3,43.2H7.8c-0.6,0-1-0.4-1-1v-4.9c0-0.6,0.4-1,1-1h26.5c0.6,0,1,0.4,1,1v4.9
							C35.3,42.7,34.8,43.2,34.3,43.2z"/>
					</g>
					<g>
						<path class="st6" d="M1.5,53.2h-5.8c-0.6,0-1-0.4-1-1v-4.9c0-0.6,0.4-1,1-1h5.8c0.6,0,1,0.4,1,1v4.9C2.5,52.8,2,53.2,1.5,53.2
							z"/>
						<path class="st6" d="M34.3,53.2H7.8c-0.6,0-1-0.4-1-1v-4.9c0-0.6,0.4-1,1-1h26.5c0.6,0,1,0.4,1,1v4.9
							C35.3,52.8,34.8,53.2,34.3,53.2z"/>
					</g>
					<g>
						<path class="st6" d="M1.5,63.5h-5.8c-0.6,0-1-0.4-1-1v-4.9c0-0.6,0.4-1,1-1h5.8c0.6,0,1,0.4,1,1v4.9C2.5,63,2,63.5,1.5,63.5z"
							/>
						<path class="st6" d="M34.3,63.5H7.8c-0.6,0-1-0.4-1-1v-4.9c0-0.6,0.4-1,1-1h26.5c0.6,0,1,0.4,1,1v4.9
							C35.3,63,34.8,63.5,34.3,63.5z"/>
					</g>
					<g>
						<path class="st6" d="M1.5,73.8h-5.8c-0.6,0-1-0.4-1-1v-4.9c0-0.6,0.4-1,1-1h5.8c0.6,0,1,0.4,1,1v4.9C2.5,73.3,2,73.8,1.5,73.8
							z"/>
						<path class="st6" d="M34.3,73.8H7.8c-0.6,0-1-0.4-1-1v-4.9c0-0.6,0.4-1,1-1h26.5c0.6,0,1,0.4,1,1v4.9
							C35.3,73.3,34.8,73.8,34.3,73.8z"/>
					</g>
				</g>
			</g>
			<g>
				<g>
					<g>
						<path class="st6" d="M2,42.7h-5.8c-0.6,0-1-0.4-1-1v-4.9c0-0.6,0.4-1,1-1H2c0.6,0,1,0.4,1,1v4.9C3,42.2,2.5,42.7,2,42.7z"/>
						<path class="st6" d="M34.8,42.7H8.3c-0.6,0-1-0.4-1-1v-4.9c0-0.6,0.4-1,1-1h26.5c0.6,0,1,0.4,1,1v4.9
							C35.8,42.2,35.3,42.7,34.8,42.7z"/>
					</g>
					<g>
						<path class="st6" d="M2,52.7h-5.8c-0.6,0-1-0.4-1-1v-4.9c0-0.6,0.4-1,1-1H2c0.6,0,1,0.4,1,1v4.9C3,52.3,2.5,52.7,2,52.7z"/>
						<path class="st6" d="M34.8,52.7H8.3c-0.6,0-1-0.4-1-1v-4.9c0-0.6,0.4-1,1-1h26.5c0.6,0,1,0.4,1,1v4.9
							C35.8,52.3,35.3,52.7,34.8,52.7z"/>
					</g>
					<g>
						<path class="st6" d="M2,63h-5.8c-0.6,0-1-0.4-1-1v-4.9c0-0.6,0.4-1,1-1H2c0.6,0,1,0.4,1,1V62C3,62.5,2.5,63,2,63z"/>
						<path class="st6" d="M34.8,63H8.3c-0.6,0-1-0.4-1-1v-4.9c0-0.6,0.4-1,1-1h26.5c0.6,0,1,0.4,1,1V62C35.8,62.5,35.3,63,34.8,63z
							"/>
					</g>
					<g>
						<path class="st6" d="M2,73.3h-5.8c-0.6,0-1-0.4-1-1v-4.9c0-0.6,0.4-1,1-1H2c0.6,0,1,0.4,1,1v4.9C3,72.8,2.5,73.3,2,73.3z"/>
						<path class="st6" d="M34.8,73.3H8.3c-0.6,0-1-0.4-1-1v-4.9c0-0.6,0.4-1,1-1h26.5c0.6,0,1,0.4,1,1v4.9
							C35.8,72.8,35.3,73.3,34.8,73.3z"/>
					</g>
				</g>
			</g>
			<g>
				<g>
					<g>
						<path class="st6" d="M2.5,42.2h-5.8c-0.6,0-1-0.4-1-1v-4.9c0-0.6,0.4-1,1-1h5.8c0.6,0,1,0.4,1,1v4.9C3.5,41.7,3,42.2,2.5,42.2
							z"/>
						<path class="st6" d="M35.3,42.2H8.8c-0.6,0-1-0.4-1-1v-4.9c0-0.6,0.4-1,1-1h26.5c0.6,0,1,0.4,1,1v4.9
							C36.3,41.7,35.8,42.2,35.3,42.2z"/>
					</g>
					<g>
						<path class="st6" d="M2.5,52.2h-5.8c-0.6,0-1-0.4-1-1v-4.9c0-0.6,0.4-1,1-1h5.8c0.6,0,1,0.4,1,1v4.9C3.5,51.8,3,52.2,2.5,52.2
							z"/>
						<path class="st6" d="M35.3,52.2H8.8c-0.6,0-1-0.4-1-1v-4.9c0-0.6,0.4-1,1-1h26.5c0.6,0,1,0.4,1,1v4.9
							C36.3,51.8,35.8,52.2,35.3,52.2z"/>
					</g>
					<g>
						<path class="st6" d="M2.5,62.5h-5.8c-0.6,0-1-0.4-1-1v-4.9c0-0.6,0.4-1,1-1h5.8c0.6,0,1,0.4,1,1v4.9C3.5,62,3,62.5,2.5,62.5z"
							/>
						<path class="st6" d="M35.3,62.5H8.8c-0.6,0-1-0.4-1-1v-4.9c0-0.6,0.4-1,1-1h26.5c0.6,0,1,0.4,1,1v4.9
							C36.3,62,35.8,62.5,35.3,62.5z"/>
					</g>
					<g>
						<path class="st6" d="M2.5,72.8h-5.8c-0.6,0-1-0.4-1-1v-4.9c0-0.6,0.4-1,1-1h5.8c0.6,0,1,0.4,1,1v4.9C3.5,72.3,3,72.8,2.5,72.8
							z"/>
						<path class="st6" d="M35.3,72.8H8.8c-0.6,0-1-0.4-1-1v-4.9c0-0.6,0.4-1,1-1h26.5c0.6,0,1,0.4,1,1v4.9
							C36.3,72.3,35.8,72.8,35.3,72.8z"/>
					</g>
				</g>
			</g>
			<g>
				<g>
					<g>
						<path class="st6" d="M3,41.7h-5.8c-0.6,0-1-0.4-1-1v-4.9c0-0.6,0.4-1,1-1H3c0.6,0,1,0.4,1,1v4.9C4,41.2,3.5,41.7,3,41.7z"/>
						<path class="st6" d="M35.8,41.7H9.3c-0.6,0-1-0.4-1-1v-4.9c0-0.6,0.4-1,1-1h26.5c0.6,0,1,0.4,1,1v4.9
							C36.8,41.2,36.3,41.7,35.8,41.7z"/>
					</g>
					<g>
						<path class="st6" d="M3,51.7h-5.8c-0.6,0-1-0.4-1-1v-4.9c0-0.6,0.4-1,1-1H3c0.6,0,1,0.4,1,1v4.9C4,51.3,3.5,51.7,3,51.7z"/>
						<path class="st6" d="M35.8,51.7H9.3c-0.6,0-1-0.4-1-1v-4.9c0-0.6,0.4-1,1-1h26.5c0.6,0,1,0.4,1,1v4.9
							C36.8,51.3,36.3,51.7,35.8,51.7z"/>
					</g>
					<g>
						<path class="st6" d="M3,62h-5.8c-0.6,0-1-0.4-1-1v-4.9c0-0.6,0.4-1,1-1H3c0.6,0,1,0.4,1,1V61C4,61.5,3.5,62,3,62z"/>
						<path class="st6" d="M35.8,62H9.3c-0.6,0-1-0.4-1-1v-4.9c0-0.6,0.4-1,1-1h26.5c0.6,0,1,0.4,1,1V61C36.8,61.5,36.3,62,35.8,62z
							"/>
					</g>
					<g>
						<path class="st6" d="M3,72.3h-5.8c-0.6,0-1-0.4-1-1v-4.9c0-0.6,0.4-1,1-1H3c0.6,0,1,0.4,1,1v4.9C4,71.8,3.5,72.3,3,72.3z"/>
						<path class="st6" d="M35.8,72.3H9.3c-0.6,0-1-0.4-1-1v-4.9c0-0.6,0.4-1,1-1h26.5c0.6,0,1,0.4,1,1v4.9
							C36.8,71.8,36.3,72.3,35.8,72.3z"/>
					</g>
				</g>
			</g>
			<g>
				<g>
					<g>
						<path class="st6" d="M3.5,41.2h-5.8c-0.6,0-1-0.4-1-1v-4.9c0-0.6,0.4-1,1-1h5.8c0.6,0,1,0.4,1,1v4.9C4.5,40.7,4,41.2,3.5,41.2
							z"/>
						<path class="st6" d="M36.3,41.2H9.8c-0.6,0-1-0.4-1-1v-4.9c0-0.6,0.4-1,1-1h26.5c0.6,0,1,0.4,1,1v4.9
							C37.3,40.7,36.8,41.2,36.3,41.2z"/>
					</g>
					<g>
						<path class="st6" d="M3.5,51.2h-5.8c-0.6,0-1-0.4-1-1v-4.9c0-0.6,0.4-1,1-1h5.8c0.6,0,1,0.4,1,1v4.9C4.5,50.8,4,51.2,3.5,51.2
							z"/>
						<path class="st6" d="M36.3,51.2H9.8c-0.6,0-1-0.4-1-1v-4.9c0-0.6,0.4-1,1-1h26.5c0.6,0,1,0.4,1,1v4.9
							C37.3,50.8,36.8,51.2,36.3,51.2z"/>
					</g>
					<g>
						<path class="st6" d="M3.5,61.5h-5.8c-0.6,0-1-0.4-1-1v-4.9c0-0.6,0.4-1,1-1h5.8c0.6,0,1,0.4,1,1v4.9C4.5,61,4,61.5,3.5,61.5z"
							/>
						<path class="st6" d="M36.3,61.5H9.8c-0.6,0-1-0.4-1-1v-4.9c0-0.6,0.4-1,1-1h26.5c0.6,0,1,0.4,1,1v4.9
							C37.3,61,36.8,61.5,36.3,61.5z"/>
					</g>
					<g>
						<path class="st6" d="M3.5,71.8h-5.8c-0.6,0-1-0.4-1-1v-4.9c0-0.6,0.4-1,1-1h5.8c0.6,0,1,0.4,1,1v4.9C4.5,71.3,4,71.8,3.5,71.8
							z"/>
						<path class="st6" d="M36.3,71.8H9.8c-0.6,0-1-0.4-1-1v-4.9c0-0.6,0.4-1,1-1h26.5c0.6,0,1,0.4,1,1v4.9
							C37.3,71.3,36.8,71.8,36.3,71.8z"/>
					</g>
				</g>
			</g>
			<g>
				<g>
					<g>
						<path class="st6" d="M4,40.7h-5.8c-0.6,0-1-0.4-1-1v-4.9c0-0.6,0.4-1,1-1H4c0.6,0,1,0.4,1,1v4.9C5,40.2,4.5,40.7,4,40.7z"/>
						<path class="st6" d="M36.8,40.7H10.3c-0.6,0-1-0.4-1-1v-4.9c0-0.6,0.4-1,1-1h26.5c0.6,0,1,0.4,1,1v4.9
							C37.8,40.2,37.3,40.7,36.8,40.7z"/>
					</g>
					<g>
						<path class="st6" d="M4,50.7h-5.8c-0.6,0-1-0.4-1-1v-4.9c0-0.6,0.4-1,1-1H4c0.6,0,1,0.4,1,1v4.9C5,50.3,4.5,50.7,4,50.7z"/>
						<path class="st6" d="M36.8,50.7H10.3c-0.6,0-1-0.4-1-1v-4.9c0-0.6,0.4-1,1-1h26.5c0.6,0,1,0.4,1,1v4.9
							C37.8,50.3,37.3,50.7,36.8,50.7z"/>
					</g>
					<g>
						<path class="st6" d="M4,61h-5.8c-0.6,0-1-0.4-1-1v-4.9c0-0.6,0.4-1,1-1H4c0.6,0,1,0.4,1,1V60C5,60.5,4.5,61,4,61z"/>
						<path class="st6" d="M36.8,61H10.3c-0.6,0-1-0.4-1-1v-4.9c0-0.6,0.4-1,1-1h26.5c0.6,0,1,0.4,1,1V60C37.8,60.5,37.3,61,36.8,61
							z"/>
					</g>
					<g>
						<path class="st6" d="M4,71.3h-5.8c-0.6,0-1-0.4-1-1v-4.9c0-0.6,0.4-1,1-1H4c0.6,0,1,0.4,1,1v4.9C5,70.8,4.5,71.3,4,71.3z"/>
						<path class="st6" d="M36.8,71.3H10.3c-0.6,0-1-0.4-1-1v-4.9c0-0.6,0.4-1,1-1h26.5c0.6,0,1,0.4,1,1v4.9
							C37.8,70.8,37.3,71.3,36.8,71.3z"/>
					</g>
				</g>
			</g>
			<g>
				<g>
					<g>
						<path class="st6" d="M4.5,40.2h-5.8c-0.6,0-1-0.4-1-1v-4.9c0-0.6,0.4-1,1-1h5.8c0.6,0,1,0.4,1,1v4.9C5.5,39.7,5,40.2,4.5,40.2
							z"/>
						<path class="st6" d="M37.3,40.2H10.8c-0.6,0-1-0.4-1-1v-4.9c0-0.6,0.4-1,1-1h26.5c0.6,0,1,0.4,1,1v4.9
							C38.3,39.7,37.8,40.2,37.3,40.2z"/>
					</g>
					<g>
						<path class="st6" d="M4.5,50.2h-5.8c-0.6,0-1-0.4-1-1v-4.9c0-0.6,0.4-1,1-1h5.8c0.6,0,1,0.4,1,1v4.9C5.5,49.8,5,50.2,4.5,50.2
							z"/>
						<path class="st6" d="M37.3,50.2H10.8c-0.6,0-1-0.4-1-1v-4.9c0-0.6,0.4-1,1-1h26.5c0.6,0,1,0.4,1,1v4.9
							C38.3,49.8,37.8,50.2,37.3,50.2z"/>
					</g>
					<g>
						<path class="st6" d="M4.5,60.5h-5.8c-0.6,0-1-0.4-1-1v-4.9c0-0.6,0.4-1,1-1h5.8c0.6,0,1,0.4,1,1v4.9C5.5,60,5,60.5,4.5,60.5z"
							/>
						<path class="st6" d="M37.3,60.5H10.8c-0.6,0-1-0.4-1-1v-4.9c0-0.6,0.4-1,1-1h26.5c0.6,0,1,0.4,1,1v4.9
							C38.3,60,37.8,60.5,37.3,60.5z"/>
					</g>
					<g>
						<path class="st6" d="M4.5,70.8h-5.8c-0.6,0-1-0.4-1-1v-4.9c0-0.6,0.4-1,1-1h5.8c0.6,0,1,0.4,1,1v4.9C5.5,70.3,5,70.8,4.5,70.8
							z"/>
						<path class="st6" d="M37.3,70.8H10.8c-0.6,0-1-0.4-1-1v-4.9c0-0.6,0.4-1,1-1h26.5c0.6,0,1,0.4,1,1v4.9
							C38.3,70.3,37.8,70.8,37.3,70.8z"/>
					</g>
				</g>
			</g>
			<g>
				<g>
					<g>
						<path class="st6" d="M5,39.7h-5.8c-0.6,0-1-0.4-1-1v-4.9c0-0.6,0.4-1,1-1H5c0.6,0,1,0.4,1,1v4.9C6,39.2,5.5,39.7,5,39.7z"/>
						<path class="st6" d="M37.8,39.7H11.3c-0.6,0-1-0.4-1-1v-4.9c0-0.6,0.4-1,1-1h26.5c0.6,0,1,0.4,1,1v4.9
							C38.8,39.2,38.3,39.7,37.8,39.7z"/>
					</g>
					<g>
						<path class="st6" d="M5,49.7h-5.8c-0.6,0-1-0.4-1-1v-4.9c0-0.6,0.4-1,1-1H5c0.6,0,1,0.4,1,1v4.9C6,49.3,5.5,49.7,5,49.7z"/>
						<path class="st6" d="M37.8,49.7H11.3c-0.6,0-1-0.4-1-1v-4.9c0-0.6,0.4-1,1-1h26.5c0.6,0,1,0.4,1,1v4.9
							C38.8,49.3,38.3,49.7,37.8,49.7z"/>
					</g>
					<g>
						<path class="st6" d="M5,60h-5.8c-0.6,0-1-0.4-1-1v-4.9c0-0.6,0.4-1,1-1H5c0.6,0,1,0.4,1,1V59C6,59.5,5.5,60,5,60z"/>
						<path class="st6" d="M37.8,60H11.3c-0.6,0-1-0.4-1-1v-4.9c0-0.6,0.4-1,1-1h26.5c0.6,0,1,0.4,1,1V59C38.8,59.5,38.3,60,37.8,60
							z"/>
					</g>
					<g>
						<path class="st6" d="M5,70.3h-5.8c-0.6,0-1-0.4-1-1v-4.9c0-0.6,0.4-1,1-1H5c0.6,0,1,0.4,1,1v4.9C6,69.8,5.5,70.3,5,70.3z"/>
						<path class="st6" d="M37.8,70.3H11.3c-0.6,0-1-0.4-1-1v-4.9c0-0.6,0.4-1,1-1h26.5c0.6,0,1,0.4,1,1v4.9
							C38.8,69.8,38.3,70.3,37.8,70.3z"/>
					</g>
				</g>
			</g>
			<g>
				<g>
					<g>
						<path class="st6" d="M5.5,39.2h-5.8c-0.6,0-1-0.4-1-1v-4.9c0-0.6,0.4-1,1-1h5.8c0.6,0,1,0.4,1,1v4.9C6.5,38.7,6,39.2,5.5,39.2
							z"/>
						<path class="st6" d="M38.3,39.2H11.8c-0.6,0-1-0.4-1-1v-4.9c0-0.6,0.4-1,1-1h26.5c0.6,0,1,0.4,1,1v4.9
							C39.3,38.7,38.8,39.2,38.3,39.2z"/>
					</g>
					<g>
						<path class="st6" d="M5.5,49.2h-5.8c-0.6,0-1-0.4-1-1v-4.9c0-0.6,0.4-1,1-1h5.8c0.6,0,1,0.4,1,1v4.9C6.5,48.8,6,49.2,5.5,49.2
							z"/>
						<path class="st6" d="M38.3,49.2H11.8c-0.6,0-1-0.4-1-1v-4.9c0-0.6,0.4-1,1-1h26.5c0.6,0,1,0.4,1,1v4.9
							C39.3,48.8,38.8,49.2,38.3,49.2z"/>
					</g>
					<g>
						<path class="st6" d="M5.5,59.5h-5.8c-0.6,0-1-0.4-1-1v-4.9c0-0.6,0.4-1,1-1h5.8c0.6,0,1,0.4,1,1v4.9C6.5,59,6,59.5,5.5,59.5z"
							/>
						<path class="st6" d="M38.3,59.5H11.8c-0.6,0-1-0.4-1-1v-4.9c0-0.6,0.4-1,1-1h26.5c0.6,0,1,0.4,1,1v4.9
							C39.3,59,38.8,59.5,38.3,59.5z"/>
					</g>
					<g>
						<path class="st6" d="M5.5,69.8h-5.8c-0.6,0-1-0.4-1-1v-4.9c0-0.6,0.4-1,1-1h5.8c0.6,0,1,0.4,1,1v4.9C6.5,69.3,6,69.8,5.5,69.8
							z"/>
						<path class="st6" d="M38.3,69.8H11.8c-0.6,0-1-0.4-1-1v-4.9c0-0.6,0.4-1,1-1h26.5c0.6,0,1,0.4,1,1v4.9
							C39.3,69.3,38.8,69.8,38.3,69.8z"/>
					</g>
				</g>
			</g>
			<g>
				<g>
					<g>
						<path class="st6" d="M6,38.7H0.2c-0.6,0-1-0.4-1-1v-4.9c0-0.6,0.4-1,1-1H6c0.6,0,1,0.4,1,1v4.9C7,38.2,6.5,38.7,6,38.7z"/>
						<path class="st6" d="M38.8,38.7H12.3c-0.6,0-1-0.4-1-1v-4.9c0-0.6,0.4-1,1-1h26.5c0.6,0,1,0.4,1,1v4.9
							C39.8,38.2,39.3,38.7,38.8,38.7z"/>
					</g>
					<g>
						<path class="st6" d="M6,48.7H0.2c-0.6,0-1-0.4-1-1v-4.9c0-0.6,0.4-1,1-1H6c0.6,0,1,0.4,1,1v4.9C7,48.3,6.5,48.7,6,48.7z"/>
						<path class="st6" d="M38.8,48.7H12.3c-0.6,0-1-0.4-1-1v-4.9c0-0.6,0.4-1,1-1h26.5c0.6,0,1,0.4,1,1v4.9
							C39.8,48.3,39.3,48.7,38.8,48.7z"/>
					</g>
					<g>
						<path class="st6" d="M6,59H0.2c-0.6,0-1-0.4-1-1v-4.9c0-0.6,0.4-1,1-1H6c0.6,0,1,0.4,1,1V58C7,58.5,6.5,59,6,59z"/>
						<path class="st6" d="M38.8,59H12.3c-0.6,0-1-0.4-1-1v-4.9c0-0.6,0.4-1,1-1h26.5c0.6,0,1,0.4,1,1V58C39.8,58.5,39.3,59,38.8,59
							z"/>
					</g>
					<g>
						<path class="st6" d="M6,69.3H0.2c-0.6,0-1-0.4-1-1v-4.9c0-0.6,0.4-1,1-1H6c0.6,0,1,0.4,1,1v4.9C7,68.8,6.5,69.3,6,69.3z"/>
						<path class="st6" d="M38.8,69.3H12.3c-0.6,0-1-0.4-1-1v-4.9c0-0.6,0.4-1,1-1h26.5c0.6,0,1,0.4,1,1v4.9
							C39.8,68.8,39.3,69.3,38.8,69.3z"/>
					</g>
				</g>
			</g>
			<g>
				<g>
					<g>
						<path class="st6" d="M6.5,38.2H0.7c-0.6,0-1-0.4-1-1v-4.9c0-0.6,0.4-1,1-1h5.8c0.6,0,1,0.4,1,1v4.9C7.5,37.7,7,38.2,6.5,38.2z
							"/>
						<path class="st6" d="M39.3,38.2H12.8c-0.6,0-1-0.4-1-1v-4.9c0-0.6,0.4-1,1-1h26.5c0.6,0,1,0.4,1,1v4.9
							C40.3,37.7,39.8,38.2,39.3,38.2z"/>
					</g>
					<g>
						<path class="st6" d="M6.5,48.2H0.7c-0.6,0-1-0.4-1-1v-4.9c0-0.6,0.4-1,1-1h5.8c0.6,0,1,0.4,1,1v4.9C7.5,47.8,7,48.2,6.5,48.2z
							"/>
						<path class="st6" d="M39.3,48.2H12.8c-0.6,0-1-0.4-1-1v-4.9c0-0.6,0.4-1,1-1h26.5c0.6,0,1,0.4,1,1v4.9
							C40.3,47.8,39.8,48.2,39.3,48.2z"/>
					</g>
					<g>
						<path class="st6" d="M6.5,58.5H0.7c-0.6,0-1-0.4-1-1v-4.9c0-0.6,0.4-1,1-1h5.8c0.6,0,1,0.4,1,1v4.9C7.5,58,7,58.5,6.5,58.5z"
							/>
						<path class="st6" d="M39.3,58.5H12.8c-0.6,0-1-0.4-1-1v-4.9c0-0.6,0.4-1,1-1h26.5c0.6,0,1,0.4,1,1v4.9
							C40.3,58,39.8,58.5,39.3,58.5z"/>
					</g>
					<g>
						<path class="st6" d="M6.5,68.8H0.7c-0.6,0-1-0.4-1-1v-4.9c0-0.6,0.4-1,1-1h5.8c0.6,0,1,0.4,1,1v4.9C7.5,68.3,7,68.8,6.5,68.8z
							"/>
						<path class="st6" d="M39.3,68.8H12.8c-0.6,0-1-0.4-1-1v-4.9c0-0.6,0.4-1,1-1h26.5c0.6,0,1,0.4,1,1v4.9
							C40.3,68.3,39.8,68.8,39.3,68.8z"/>
					</g>
				</g>
			</g>
			<g>
				<g>
					<g>
						<path class="st6" d="M7,37.7H1.2c-0.6,0-1-0.4-1-1v-4.9c0-0.6,0.4-1,1-1H7c0.6,0,1,0.4,1,1v4.9C8,37.2,7.5,37.7,7,37.7z"/>
						<path class="st6" d="M39.8,37.7H13.3c-0.6,0-1-0.4-1-1v-4.9c0-0.6,0.4-1,1-1h26.5c0.6,0,1,0.4,1,1v4.9
							C40.8,37.2,40.3,37.7,39.8,37.7z"/>
					</g>
					<g>
						<path class="st6" d="M7,47.7H1.2c-0.6,0-1-0.4-1-1v-4.9c0-0.6,0.4-1,1-1H7c0.6,0,1,0.4,1,1v4.9C8,47.3,7.5,47.7,7,47.7z"/>
						<path class="st6" d="M39.8,47.7H13.3c-0.6,0-1-0.4-1-1v-4.9c0-0.6,0.4-1,1-1h26.5c0.6,0,1,0.4,1,1v4.9
							C40.8,47.3,40.3,47.7,39.8,47.7z"/>
					</g>
					<g>
						<path class="st6" d="M7,58H1.2c-0.6,0-1-0.4-1-1v-4.9c0-0.6,0.4-1,1-1H7c0.6,0,1,0.4,1,1V57C8,57.5,7.5,58,7,58z"/>
						<path class="st6" d="M39.8,58H13.3c-0.6,0-1-0.4-1-1v-4.9c0-0.6,0.4-1,1-1h26.5c0.6,0,1,0.4,1,1V57C40.8,57.5,40.3,58,39.8,58
							z"/>
					</g>
					<g>
						<path class="st6" d="M7,68.3H1.2c-0.6,0-1-0.4-1-1v-4.9c0-0.6,0.4-1,1-1H7c0.6,0,1,0.4,1,1v4.9C8,67.8,7.5,68.3,7,68.3z"/>
						<path class="st6" d="M39.8,68.3H13.3c-0.6,0-1-0.4-1-1v-4.9c0-0.6,0.4-1,1-1h26.5c0.6,0,1,0.4,1,1v4.9
							C40.8,67.8,40.3,68.3,39.8,68.3z"/>
					</g>
				</g>
			</g>
			<g>
				<g>
					<g>
						<path class="st6" d="M7.5,37.2H1.7c-0.6,0-1-0.4-1-1v-4.9c0-0.6,0.4-1,1-1h5.8c0.6,0,1,0.4,1,1v4.9C8.5,36.7,8,37.2,7.5,37.2z
							"/>
						<path class="st6" d="M40.3,37.2H13.8c-0.6,0-1-0.4-1-1v-4.9c0-0.6,0.4-1,1-1h26.5c0.6,0,1,0.4,1,1v4.9
							C41.3,36.7,40.8,37.2,40.3,37.2z"/>
					</g>
					<g>
						<path class="st6" d="M7.5,47.2H1.7c-0.6,0-1-0.4-1-1v-4.9c0-0.6,0.4-1,1-1h5.8c0.6,0,1,0.4,1,1v4.9C8.5,46.8,8,47.2,7.5,47.2z
							"/>
						<path class="st6" d="M40.3,47.2H13.8c-0.6,0-1-0.4-1-1v-4.9c0-0.6,0.4-1,1-1h26.5c0.6,0,1,0.4,1,1v4.9
							C41.3,46.8,40.8,47.2,40.3,47.2z"/>
					</g>
					<g>
						<path class="st6" d="M7.5,57.5H1.7c-0.6,0-1-0.4-1-1v-4.9c0-0.6,0.4-1,1-1h5.8c0.6,0,1,0.4,1,1v4.9C8.5,57,8,57.5,7.5,57.5z"
							/>
						<path class="st6" d="M40.3,57.5H13.8c-0.6,0-1-0.4-1-1v-4.9c0-0.6,0.4-1,1-1h26.5c0.6,0,1,0.4,1,1v4.9
							C41.3,57,40.8,57.5,40.3,57.5z"/>
					</g>
					<g>
						<path class="st6" d="M7.5,67.8H1.7c-0.6,0-1-0.4-1-1v-4.9c0-0.6,0.4-1,1-1h5.8c0.6,0,1,0.4,1,1v4.9C8.5,67.3,8,67.8,7.5,67.8z
							"/>
						<path class="st6" d="M40.3,67.8H13.8c-0.6,0-1-0.4-1-1v-4.9c0-0.6,0.4-1,1-1h26.5c0.6,0,1,0.4,1,1v4.9
							C41.3,67.3,40.8,67.8,40.3,67.8z"/>
					</g>
				</g>
			</g>
			<g>
				<g>
					<g>
						<path class="st6" d="M8,36.7H2.2c-0.6,0-1-0.4-1-1v-4.9c0-0.6,0.4-1,1-1H8c0.6,0,1,0.4,1,1v4.9C9,36.2,8.5,36.7,8,36.7z"/>
						<path class="st6" d="M40.8,36.7H14.3c-0.6,0-1-0.4-1-1v-4.9c0-0.6,0.4-1,1-1h26.5c0.6,0,1,0.4,1,1v4.9
							C41.8,36.2,41.3,36.7,40.8,36.7z"/>
					</g>
					<g>
						<path class="st6" d="M8,46.7H2.2c-0.6,0-1-0.4-1-1v-4.9c0-0.6,0.4-1,1-1H8c0.6,0,1,0.4,1,1v4.9C9,46.3,8.5,46.7,8,46.7z"/>
						<path class="st6" d="M40.8,46.7H14.3c-0.6,0-1-0.4-1-1v-4.9c0-0.6,0.4-1,1-1h26.5c0.6,0,1,0.4,1,1v4.9
							C41.8,46.3,41.3,46.7,40.8,46.7z"/>
					</g>
					<g>
						<path class="st6" d="M8,57H2.2c-0.6,0-1-0.4-1-1v-4.9c0-0.6,0.4-1,1-1H8c0.6,0,1,0.4,1,1V56C9,56.5,8.5,57,8,57z"/>
						<path class="st6" d="M40.8,57H14.3c-0.6,0-1-0.4-1-1v-4.9c0-0.6,0.4-1,1-1h26.5c0.6,0,1,0.4,1,1V56C41.8,56.5,41.3,57,40.8,57
							z"/>
					</g>
					<g>
						<path class="st6" d="M8,67.3H2.2c-0.6,0-1-0.4-1-1v-4.9c0-0.6,0.4-1,1-1H8c0.6,0,1,0.4,1,1v4.9C9,66.8,8.5,67.3,8,67.3z"/>
						<path class="st6" d="M40.8,67.3H14.3c-0.6,0-1-0.4-1-1v-4.9c0-0.6,0.4-1,1-1h26.5c0.6,0,1,0.4,1,1v4.9
							C41.8,66.8,41.3,67.3,40.8,67.3z"/>
					</g>
				</g>
			</g>
			<g>
				<g>
					<g>
						<path class="st6" d="M8.5,36.2H2.7c-0.6,0-1-0.4-1-1v-4.9c0-0.6,0.4-1,1-1h5.8c0.6,0,1,0.4,1,1v4.9C9.5,35.7,9,36.2,8.5,36.2z
							"/>
						<path class="st6" d="M41.3,36.2H14.8c-0.6,0-1-0.4-1-1v-4.9c0-0.6,0.4-1,1-1h26.5c0.6,0,1,0.4,1,1v4.9
							C42.3,35.7,41.8,36.2,41.3,36.2z"/>
					</g>
					<g>
						<path class="st6" d="M8.5,46.2H2.7c-0.6,0-1-0.4-1-1v-4.9c0-0.6,0.4-1,1-1h5.8c0.6,0,1,0.4,1,1v4.9C9.5,45.8,9,46.2,8.5,46.2z
							"/>
						<path class="st6" d="M41.3,46.2H14.8c-0.6,0-1-0.4-1-1v-4.9c0-0.6,0.4-1,1-1h26.5c0.6,0,1,0.4,1,1v4.9
							C42.3,45.8,41.8,46.2,41.3,46.2z"/>
					</g>
					<g>
						<path class="st6" d="M8.5,56.5H2.7c-0.6,0-1-0.4-1-1v-4.9c0-0.6,0.4-1,1-1h5.8c0.6,0,1,0.4,1,1v4.9C9.5,56,9,56.5,8.5,56.5z"
							/>
						<path class="st6" d="M41.3,56.5H14.8c-0.6,0-1-0.4-1-1v-4.9c0-0.6,0.4-1,1-1h26.5c0.6,0,1,0.4,1,1v4.9
							C42.3,56,41.8,56.5,41.3,56.5z"/>
					</g>
					<g>
						<path class="st6" d="M8.5,66.8H2.7c-0.6,0-1-0.4-1-1v-4.9c0-0.6,0.4-1,1-1h5.8c0.6,0,1,0.4,1,1v4.9C9.5,66.3,9,66.8,8.5,66.8z
							"/>
						<path class="st6" d="M41.3,66.8H14.8c-0.6,0-1-0.4-1-1v-4.9c0-0.6,0.4-1,1-1h26.5c0.6,0,1,0.4,1,1v4.9
							C42.3,66.3,41.8,66.8,41.3,66.8z"/>
					</g>
				</g>
			</g>
			<g>
				<g>
					<g>
						<path class="st6" d="M9,35.7H3.2c-0.6,0-1-0.4-1-1v-4.9c0-0.6,0.4-1,1-1H9c0.6,0,1,0.4,1,1v4.9C10,35.2,9.5,35.7,9,35.7z"/>
						<path class="st6" d="M41.8,35.7H15.3c-0.6,0-1-0.4-1-1v-4.9c0-0.6,0.4-1,1-1h26.5c0.6,0,1,0.4,1,1v4.9
							C42.8,35.2,42.3,35.7,41.8,35.7z"/>
					</g>
					<g>
						<path class="st6" d="M9,45.7H3.2c-0.6,0-1-0.4-1-1v-4.9c0-0.6,0.4-1,1-1H9c0.6,0,1,0.4,1,1v4.9C10,45.3,9.5,45.7,9,45.7z"/>
						<path class="st6" d="M41.8,45.7H15.3c-0.6,0-1-0.4-1-1v-4.9c0-0.6,0.4-1,1-1h26.5c0.6,0,1,0.4,1,1v4.9
							C42.8,45.3,42.3,45.7,41.8,45.7z"/>
					</g>
					<g>
						<path class="st6" d="M9,56H3.2c-0.6,0-1-0.4-1-1v-4.9c0-0.6,0.4-1,1-1H9c0.6,0,1,0.4,1,1V55C10,55.5,9.5,56,9,56z"/>
						<path class="st6" d="M41.8,56H15.3c-0.6,0-1-0.4-1-1v-4.9c0-0.6,0.4-1,1-1h26.5c0.6,0,1,0.4,1,1V55C42.8,55.5,42.3,56,41.8,56
							z"/>
					</g>
					<g>
						<path class="st6" d="M9,66.3H3.2c-0.6,0-1-0.4-1-1v-4.9c0-0.6,0.4-1,1-1H9c0.6,0,1,0.4,1,1v4.9C10,65.8,9.5,66.3,9,66.3z"/>
						<path class="st6" d="M41.8,66.3H15.3c-0.6,0-1-0.4-1-1v-4.9c0-0.6,0.4-1,1-1h26.5c0.6,0,1,0.4,1,1v4.9
							C42.8,65.8,42.3,66.3,41.8,66.3z"/>
					</g>
				</g>
			</g>
			<g>
				<g>
					<g>
						<path class="st6" d="M9.5,35.2H3.7c-0.6,0-1-0.4-1-1v-4.9c0-0.6,0.4-1,1-1h5.8c0.6,0,1,0.4,1,1v4.9
							C10.5,34.7,10,35.2,9.5,35.2z"/>
						<path class="st6" d="M42.3,35.2H15.8c-0.6,0-1-0.4-1-1v-4.9c0-0.6,0.4-1,1-1h26.5c0.6,0,1,0.4,1,1v4.9
							C43.3,34.7,42.8,35.2,42.3,35.2z"/>
					</g>
					<g>
						<path class="st6" d="M9.5,45.2H3.7c-0.6,0-1-0.4-1-1v-4.9c0-0.6,0.4-1,1-1h5.8c0.6,0,1,0.4,1,1v4.9
							C10.5,44.8,10,45.2,9.5,45.2z"/>
						<path class="st6" d="M42.3,45.2H15.8c-0.6,0-1-0.4-1-1v-4.9c0-0.6,0.4-1,1-1h26.5c0.6,0,1,0.4,1,1v4.9
							C43.3,44.8,42.8,45.2,42.3,45.2z"/>
					</g>
					<g>
						<path class="st6" d="M9.5,55.5H3.7c-0.6,0-1-0.4-1-1v-4.9c0-0.6,0.4-1,1-1h5.8c0.6,0,1,0.4,1,1v4.9C10.5,55,10,55.5,9.5,55.5z
							"/>
						<path class="st6" d="M42.3,55.5H15.8c-0.6,0-1-0.4-1-1v-4.9c0-0.6,0.4-1,1-1h26.5c0.6,0,1,0.4,1,1v4.9
							C43.3,55,42.8,55.5,42.3,55.5z"/>
					</g>
					<g>
						<path class="st6" d="M9.5,65.8H3.7c-0.6,0-1-0.4-1-1v-4.9c0-0.6,0.4-1,1-1h5.8c0.6,0,1,0.4,1,1v4.9
							C10.5,65.3,10,65.8,9.5,65.8z"/>
						<path class="st6" d="M42.3,65.8H15.8c-0.6,0-1-0.4-1-1v-4.9c0-0.6,0.4-1,1-1h26.5c0.6,0,1,0.4,1,1v4.9
							C43.3,65.3,42.8,65.8,42.3,65.8z"/>
					</g>
				</g>
			</g>
			<g>
				<g>
					<g>
						<path class="st6" d="M10,34.7H4.2c-0.6,0-1-0.4-1-1v-4.9c0-0.6,0.4-1,1-1H10c0.6,0,1,0.4,1,1v4.9C11,34.2,10.5,34.7,10,34.7z"
							/>
						<path class="st6" d="M42.8,34.7H16.3c-0.6,0-1-0.4-1-1v-4.9c0-0.6,0.4-1,1-1h26.5c0.6,0,1,0.4,1,1v4.9
							C43.8,34.2,43.3,34.7,42.8,34.7z"/>
					</g>
					<g>
						<path class="st6" d="M10,44.7H4.2c-0.6,0-1-0.4-1-1v-4.9c0-0.6,0.4-1,1-1H10c0.6,0,1,0.4,1,1v4.9C11,44.3,10.5,44.7,10,44.7z"
							/>
						<path class="st6" d="M42.8,44.7H16.3c-0.6,0-1-0.4-1-1v-4.9c0-0.6,0.4-1,1-1h26.5c0.6,0,1,0.4,1,1v4.9
							C43.8,44.3,43.3,44.7,42.8,44.7z"/>
					</g>
					<g>
						<path class="st6" d="M10,55H4.2c-0.6,0-1-0.4-1-1v-4.9c0-0.6,0.4-1,1-1H10c0.6,0,1,0.4,1,1V54C11,54.5,10.5,55,10,55z"/>
						<path class="st6" d="M42.8,55H16.3c-0.6,0-1-0.4-1-1v-4.9c0-0.6,0.4-1,1-1h26.5c0.6,0,1,0.4,1,1V54C43.8,54.5,43.3,55,42.8,55
							z"/>
					</g>
					<g>
						<path class="st6" d="M10,65.3H4.2c-0.6,0-1-0.4-1-1v-4.9c0-0.6,0.4-1,1-1H10c0.6,0,1,0.4,1,1v4.9C11,64.8,10.5,65.3,10,65.3z"
							/>
						<path class="st6" d="M42.8,65.3H16.3c-0.6,0-1-0.4-1-1v-4.9c0-0.6,0.4-1,1-1h26.5c0.6,0,1,0.4,1,1v4.9
							C43.8,64.8,43.3,65.3,42.8,65.3z"/>
					</g>
				</g>
			</g>
			<g>
				<g>
					<g>
						<path class="st6" d="M10.5,34.2H4.7c-0.6,0-1-0.4-1-1v-4.9c0-0.6,0.4-1,1-1h5.8c0.6,0,1,0.4,1,1v4.9
							C11.5,33.7,11,34.2,10.5,34.2z"/>
						<path class="st6" d="M43.3,34.2H16.8c-0.6,0-1-0.4-1-1v-4.9c0-0.6,0.4-1,1-1h26.5c0.6,0,1,0.4,1,1v4.9
							C44.3,33.7,43.8,34.2,43.3,34.2z"/>
					</g>
					<g>
						<path class="st6" d="M10.5,44.2H4.7c-0.6,0-1-0.4-1-1v-4.9c0-0.6,0.4-1,1-1h5.8c0.6,0,1,0.4,1,1v4.9
							C11.5,43.8,11,44.2,10.5,44.2z"/>
						<path class="st6" d="M43.3,44.2H16.8c-0.6,0-1-0.4-1-1v-4.9c0-0.6,0.4-1,1-1h26.5c0.6,0,1,0.4,1,1v4.9
							C44.3,43.8,43.8,44.2,43.3,44.2z"/>
					</g>
					<g>
						<path class="st6" d="M10.5,54.5H4.7c-0.6,0-1-0.4-1-1v-4.9c0-0.6,0.4-1,1-1h5.8c0.6,0,1,0.4,1,1v4.9
							C11.5,54,11,54.5,10.5,54.5z"/>
						<path class="st6" d="M43.3,54.5H16.8c-0.6,0-1-0.4-1-1v-4.9c0-0.6,0.4-1,1-1h26.5c0.6,0,1,0.4,1,1v4.9
							C44.3,54,43.8,54.5,43.3,54.5z"/>
					</g>
					<g>
						<path class="st6" d="M10.5,64.8H4.7c-0.6,0-1-0.4-1-1v-4.9c0-0.6,0.4-1,1-1h5.8c0.6,0,1,0.4,1,1v4.9
							C11.5,64.3,11,64.8,10.5,64.8z"/>
						<path class="st6" d="M43.3,64.8H16.8c-0.6,0-1-0.4-1-1v-4.9c0-0.6,0.4-1,1-1h26.5c0.6,0,1,0.4,1,1v4.9
							C44.3,64.3,43.8,64.8,43.3,64.8z"/>
					</g>
				</g>
			</g>
			<g>
				<g>
					<g>
						<path class="st6" d="M11,33.7H5.2c-0.6,0-1-0.4-1-1v-4.9c0-0.6,0.4-1,1-1H11c0.6,0,1,0.4,1,1v4.9C12,33.2,11.5,33.7,11,33.7z"
							/>
						<path class="st6" d="M43.8,33.7H17.3c-0.6,0-1-0.4-1-1v-4.9c0-0.6,0.4-1,1-1h26.5c0.6,0,1,0.4,1,1v4.9
							C44.8,33.2,44.3,33.7,43.8,33.7z"/>
					</g>
					<g>
						<path class="st6" d="M11,43.7H5.2c-0.6,0-1-0.4-1-1v-4.9c0-0.6,0.4-1,1-1H11c0.6,0,1,0.4,1,1v4.9C12,43.3,11.5,43.7,11,43.7z"
							/>
						<path class="st6" d="M43.8,43.7H17.3c-0.6,0-1-0.4-1-1v-4.9c0-0.6,0.4-1,1-1h26.5c0.6,0,1,0.4,1,1v4.9
							C44.8,43.3,44.3,43.7,43.8,43.7z"/>
					</g>
					<g>
						<path class="st6" d="M11,54H5.2c-0.6,0-1-0.4-1-1v-4.9c0-0.6,0.4-1,1-1H11c0.6,0,1,0.4,1,1V53C12,53.5,11.5,54,11,54z"/>
						<path class="st6" d="M43.8,54H17.3c-0.6,0-1-0.4-1-1v-4.9c0-0.6,0.4-1,1-1h26.5c0.6,0,1,0.4,1,1V53C44.8,53.5,44.3,54,43.8,54
							z"/>
					</g>
					<g>
						<path class="st6" d="M11,64.3H5.2c-0.6,0-1-0.4-1-1v-4.9c0-0.6,0.4-1,1-1H11c0.6,0,1,0.4,1,1v4.9C12,63.8,11.5,64.3,11,64.3z"
							/>
						<path class="st6" d="M43.8,64.3H17.3c-0.6,0-1-0.4-1-1v-4.9c0-0.6,0.4-1,1-1h26.5c0.6,0,1,0.4,1,1v4.9
							C44.8,63.8,44.3,64.3,43.8,64.3z"/>
					</g>
				</g>
			</g>
			<g>
				<g>
					<g>
						<path class="st6" d="M11.5,33.2H5.7c-0.6,0-1-0.4-1-1v-4.9c0-0.6,0.4-1,1-1h5.8c0.6,0,1,0.4,1,1v4.9
							C12.5,32.7,12,33.2,11.5,33.2z"/>
						<path class="st6" d="M44.3,33.2H17.8c-0.6,0-1-0.4-1-1v-4.9c0-0.6,0.4-1,1-1h26.5c0.6,0,1,0.4,1,1v4.9
							C45.3,32.7,44.8,33.2,44.3,33.2z"/>
					</g>
					<g>
						<path class="st6" d="M11.5,43.2H5.7c-0.6,0-1-0.4-1-1v-4.9c0-0.6,0.4-1,1-1h5.8c0.6,0,1,0.4,1,1v4.9
							C12.5,42.8,12,43.2,11.5,43.2z"/>
						<path class="st6" d="M44.3,43.2H17.8c-0.6,0-1-0.4-1-1v-4.9c0-0.6,0.4-1,1-1h26.5c0.6,0,1,0.4,1,1v4.9
							C45.3,42.8,44.8,43.2,44.3,43.2z"/>
					</g>
					<g>
						<path class="st6" d="M11.5,53.5H5.7c-0.6,0-1-0.4-1-1v-4.9c0-0.6,0.4-1,1-1h5.8c0.6,0,1,0.4,1,1v4.9
							C12.5,53,12,53.5,11.5,53.5z"/>
						<path class="st6" d="M44.3,53.5H17.8c-0.6,0-1-0.4-1-1v-4.9c0-0.6,0.4-1,1-1h26.5c0.6,0,1,0.4,1,1v4.9
							C45.3,53,44.8,53.5,44.3,53.5z"/>
					</g>
					<g>
						<path class="st6" d="M11.5,63.8H5.7c-0.6,0-1-0.4-1-1v-4.9c0-0.6,0.4-1,1-1h5.8c0.6,0,1,0.4,1,1v4.9
							C12.5,63.3,12,63.8,11.5,63.8z"/>
						<path class="st6" d="M44.3,63.8H17.8c-0.6,0-1-0.4-1-1v-4.9c0-0.6,0.4-1,1-1h26.5c0.6,0,1,0.4,1,1v4.9
							C45.3,63.3,44.8,63.8,44.3,63.8z"/>
					</g>
				</g>
			</g>
			<g>
				<g>
					<g>
						<path class="st6" d="M12,32.7H6.2c-0.6,0-1-0.4-1-1v-4.9c0-0.6,0.4-1,1-1H12c0.6,0,1,0.4,1,1v4.9C13,32.2,12.5,32.7,12,32.7z"
							/>
						<path class="st6" d="M44.8,32.7H18.3c-0.6,0-1-0.4-1-1v-4.9c0-0.6,0.4-1,1-1h26.5c0.6,0,1,0.4,1,1v4.9
							C45.8,32.2,45.3,32.7,44.8,32.7z"/>
					</g>
					<g>
						<path class="st6" d="M12,42.7H6.2c-0.6,0-1-0.4-1-1v-4.9c0-0.6,0.4-1,1-1H12c0.6,0,1,0.4,1,1v4.9C13,42.3,12.5,42.7,12,42.7z"
							/>
						<path class="st6" d="M44.8,42.7H18.3c-0.6,0-1-0.4-1-1v-4.9c0-0.6,0.4-1,1-1h26.5c0.6,0,1,0.4,1,1v4.9
							C45.8,42.3,45.3,42.7,44.8,42.7z"/>
					</g>
					<g>
						<path class="st6" d="M12,53H6.2c-0.6,0-1-0.4-1-1v-4.9c0-0.6,0.4-1,1-1H12c0.6,0,1,0.4,1,1V52C13,52.5,12.5,53,12,53z"/>
						<path class="st6" d="M44.8,53H18.3c-0.6,0-1-0.4-1-1v-4.9c0-0.6,0.4-1,1-1h26.5c0.6,0,1,0.4,1,1V52C45.8,52.5,45.3,53,44.8,53
							z"/>
					</g>
					<g>
						<path class="st6" d="M12,63.3H6.2c-0.6,0-1-0.4-1-1v-4.9c0-0.6,0.4-1,1-1H12c0.6,0,1,0.4,1,1v4.9C13,62.8,12.5,63.3,12,63.3z"
							/>
						<path class="st6" d="M44.8,63.3H18.3c-0.6,0-1-0.4-1-1v-4.9c0-0.6,0.4-1,1-1h26.5c0.6,0,1,0.4,1,1v4.9
							C45.8,62.8,45.3,63.3,44.8,63.3z"/>
					</g>
				</g>
			</g>
			<g>
				<g>
					<g>
						<path class="st6" d="M12.5,32.2H6.7c-0.6,0-1-0.4-1-1v-4.9c0-0.6,0.4-1,1-1h5.8c0.6,0,1,0.4,1,1v4.9
							C13.5,31.7,13,32.2,12.5,32.2z"/>
						<path class="st6" d="M45.3,32.2H18.8c-0.6,0-1-0.4-1-1v-4.9c0-0.6,0.4-1,1-1h26.5c0.6,0,1,0.4,1,1v4.9
							C46.3,31.7,45.8,32.2,45.3,32.2z"/>
					</g>
					<g>
						<path class="st6" d="M12.5,42.2H6.7c-0.6,0-1-0.4-1-1v-4.9c0-0.6,0.4-1,1-1h5.8c0.6,0,1,0.4,1,1v4.9
							C13.5,41.8,13,42.2,12.5,42.2z"/>
						<path class="st6" d="M45.3,42.2H18.8c-0.6,0-1-0.4-1-1v-4.9c0-0.6,0.4-1,1-1h26.5c0.6,0,1,0.4,1,1v4.9
							C46.3,41.8,45.8,42.2,45.3,42.2z"/>
					</g>
					<g>
						<path class="st6" d="M12.5,52.5H6.7c-0.6,0-1-0.4-1-1v-4.9c0-0.6,0.4-1,1-1h5.8c0.6,0,1,0.4,1,1v4.9
							C13.5,52,13,52.5,12.5,52.5z"/>
						<path class="st6" d="M45.3,52.5H18.8c-0.6,0-1-0.4-1-1v-4.9c0-0.6,0.4-1,1-1h26.5c0.6,0,1,0.4,1,1v4.9
							C46.3,52,45.8,52.5,45.3,52.5z"/>
					</g>
					<g>
						<path class="st6" d="M12.5,62.8H6.7c-0.6,0-1-0.4-1-1v-4.9c0-0.6,0.4-1,1-1h5.8c0.6,0,1,0.4,1,1v4.9
							C13.5,62.3,13,62.8,12.5,62.8z"/>
						<path class="st6" d="M45.3,62.8H18.8c-0.6,0-1-0.4-1-1v-4.9c0-0.6,0.4-1,1-1h26.5c0.6,0,1,0.4,1,1v4.9
							C46.3,62.3,45.8,62.8,45.3,62.8z"/>
					</g>
				</g>
			</g>
			<g>
				<g>
					<g>
						<path class="st6" d="M13,31.7H7.2c-0.6,0-1-0.4-1-1v-4.9c0-0.6,0.4-1,1-1H13c0.6,0,1,0.4,1,1v4.9C14,31.2,13.5,31.7,13,31.7z"
							/>
						<path class="st6" d="M45.8,31.7H19.3c-0.6,0-1-0.4-1-1v-4.9c0-0.6,0.4-1,1-1h26.5c0.6,0,1,0.4,1,1v4.9
							C46.8,31.2,46.3,31.7,45.8,31.7z"/>
					</g>
					<g>
						<path class="st6" d="M13,41.7H7.2c-0.6,0-1-0.4-1-1v-4.9c0-0.6,0.4-1,1-1H13c0.6,0,1,0.4,1,1v4.9C14,41.3,13.5,41.7,13,41.7z"
							/>
						<path class="st6" d="M45.8,41.7H19.3c-0.6,0-1-0.4-1-1v-4.9c0-0.6,0.4-1,1-1h26.5c0.6,0,1,0.4,1,1v4.9
							C46.8,41.3,46.3,41.7,45.8,41.7z"/>
					</g>
					<g>
						<path class="st6" d="M13,52H7.2c-0.6,0-1-0.4-1-1v-4.9c0-0.6,0.4-1,1-1H13c0.6,0,1,0.4,1,1V51C14,51.5,13.5,52,13,52z"/>
						<path class="st6" d="M45.8,52H19.3c-0.6,0-1-0.4-1-1v-4.9c0-0.6,0.4-1,1-1h26.5c0.6,0,1,0.4,1,1V51C46.8,51.5,46.3,52,45.8,52
							z"/>
					</g>
					<g>
						<path class="st6" d="M13,62.3H7.2c-0.6,0-1-0.4-1-1v-4.9c0-0.6,0.4-1,1-1H13c0.6,0,1,0.4,1,1v4.9C14,61.8,13.5,62.3,13,62.3z"
							/>
						<path class="st6" d="M45.8,62.3H19.3c-0.6,0-1-0.4-1-1v-4.9c0-0.6,0.4-1,1-1h26.5c0.6,0,1,0.4,1,1v4.9
							C46.8,61.8,46.3,62.3,45.8,62.3z"/>
					</g>
				</g>
			</g>
			<g>
				<g>
					<g>
						<path class="st6" d="M13.5,31.2H7.7c-0.6,0-1-0.4-1-1v-4.9c0-0.6,0.4-1,1-1h5.8c0.6,0,1,0.4,1,1v4.9
							C14.5,30.7,14,31.2,13.5,31.2z"/>
						<path class="st6" d="M46.3,31.2H19.8c-0.6,0-1-0.4-1-1v-4.9c0-0.6,0.4-1,1-1h26.5c0.6,0,1,0.4,1,1v4.9
							C47.3,30.7,46.8,31.2,46.3,31.2z"/>
					</g>
					<g>
						<path class="st6" d="M13.5,41.2H7.7c-0.6,0-1-0.4-1-1v-4.9c0-0.6,0.4-1,1-1h5.8c0.6,0,1,0.4,1,1v4.9
							C14.5,40.8,14,41.2,13.5,41.2z"/>
						<path class="st6" d="M46.3,41.2H19.8c-0.6,0-1-0.4-1-1v-4.9c0-0.6,0.4-1,1-1h26.5c0.6,0,1,0.4,1,1v4.9
							C47.3,40.8,46.8,41.2,46.3,41.2z"/>
					</g>
					<g>
						<path class="st6" d="M13.5,51.5H7.7c-0.6,0-1-0.4-1-1v-4.9c0-0.6,0.4-1,1-1h5.8c0.6,0,1,0.4,1,1v4.9
							C14.5,51,14,51.5,13.5,51.5z"/>
						<path class="st6" d="M46.3,51.5H19.8c-0.6,0-1-0.4-1-1v-4.9c0-0.6,0.4-1,1-1h26.5c0.6,0,1,0.4,1,1v4.9
							C47.3,51,46.8,51.5,46.3,51.5z"/>
					</g>
					<g>
						<path class="st6" d="M13.5,61.8H7.7c-0.6,0-1-0.4-1-1v-4.9c0-0.6,0.4-1,1-1h5.8c0.6,0,1,0.4,1,1v4.9
							C14.5,61.3,14,61.8,13.5,61.8z"/>
						<path class="st6" d="M46.3,61.8H19.8c-0.6,0-1-0.4-1-1v-4.9c0-0.6,0.4-1,1-1h26.5c0.6,0,1,0.4,1,1v4.9
							C47.3,61.3,46.8,61.8,46.3,61.8z"/>
					</g>
				</g>
			</g>
			<g>
				<g>
					<g>
						<path class="st6" d="M14,30.7H8.2c-0.6,0-1-0.4-1-1v-4.9c0-0.6,0.4-1,1-1H14c0.6,0,1,0.4,1,1v4.9C15,30.2,14.5,30.7,14,30.7z"
							/>
						<path class="st6" d="M46.8,30.7H20.3c-0.6,0-1-0.4-1-1v-4.9c0-0.6,0.4-1,1-1h26.5c0.6,0,1,0.4,1,1v4.9
							C47.8,30.2,47.3,30.7,46.8,30.7z"/>
					</g>
					<g>
						<path class="st6" d="M14,40.7H8.2c-0.6,0-1-0.4-1-1v-4.9c0-0.6,0.4-1,1-1H14c0.6,0,1,0.4,1,1v4.9C15,40.3,14.5,40.7,14,40.7z"
							/>
						<path class="st6" d="M46.8,40.7H20.3c-0.6,0-1-0.4-1-1v-4.9c0-0.6,0.4-1,1-1h26.5c0.6,0,1,0.4,1,1v4.9
							C47.8,40.3,47.3,40.7,46.8,40.7z"/>
					</g>
					<g>
						<path class="st6" d="M14,51H8.2c-0.6,0-1-0.4-1-1v-4.9c0-0.6,0.4-1,1-1H14c0.6,0,1,0.4,1,1V50C15,50.5,14.5,51,14,51z"/>
						<path class="st6" d="M46.8,51H20.3c-0.6,0-1-0.4-1-1v-4.9c0-0.6,0.4-1,1-1h26.5c0.6,0,1,0.4,1,1V50C47.8,50.5,47.3,51,46.8,51
							z"/>
					</g>
					<g>
						<path class="st6" d="M14,61.3H8.2c-0.6,0-1-0.4-1-1v-4.9c0-0.6,0.4-1,1-1H14c0.6,0,1,0.4,1,1v4.9C15,60.8,14.5,61.3,14,61.3z"
							/>
						<path class="st6" d="M46.8,61.3H20.3c-0.6,0-1-0.4-1-1v-4.9c0-0.6,0.4-1,1-1h26.5c0.6,0,1,0.4,1,1v4.9
							C47.8,60.8,47.3,61.3,46.8,61.3z"/>
					</g>
				</g>
			</g>
			<g>
				<g>
					<g>
						<path class="st6" d="M14.5,30.2H8.7c-0.6,0-1-0.4-1-1v-4.9c0-0.6,0.4-1,1-1h5.8c0.6,0,1,0.4,1,1v4.9
							C15.5,29.7,15,30.2,14.5,30.2z"/>
						<path class="st6" d="M47.3,30.2H20.8c-0.6,0-1-0.4-1-1v-4.9c0-0.6,0.4-1,1-1h26.5c0.6,0,1,0.4,1,1v4.9
							C48.3,29.7,47.8,30.2,47.3,30.2z"/>
					</g>
					<g>
						<path class="st6" d="M14.5,40.2H8.7c-0.6,0-1-0.4-1-1v-4.9c0-0.6,0.4-1,1-1h5.8c0.6,0,1,0.4,1,1v4.9
							C15.5,39.8,15,40.2,14.5,40.2z"/>
						<path class="st6" d="M47.3,40.2H20.8c-0.6,0-1-0.4-1-1v-4.9c0-0.6,0.4-1,1-1h26.5c0.6,0,1,0.4,1,1v4.9
							C48.3,39.8,47.8,40.2,47.3,40.2z"/>
					</g>
					<g>
						<path class="st6" d="M14.5,50.5H8.7c-0.6,0-1-0.4-1-1v-4.9c0-0.6,0.4-1,1-1h5.8c0.6,0,1,0.4,1,1v4.9
							C15.5,50,15,50.5,14.5,50.5z"/>
						<path class="st6" d="M47.3,50.5H20.8c-0.6,0-1-0.4-1-1v-4.9c0-0.6,0.4-1,1-1h26.5c0.6,0,1,0.4,1,1v4.9
							C48.3,50,47.8,50.5,47.3,50.5z"/>
					</g>
					<g>
						<path class="st6" d="M14.5,60.8H8.7c-0.6,0-1-0.4-1-1v-4.9c0-0.6,0.4-1,1-1h5.8c0.6,0,1,0.4,1,1v4.9
							C15.5,60.3,15,60.8,14.5,60.8z"/>
						<path class="st6" d="M47.3,60.8H20.8c-0.6,0-1-0.4-1-1v-4.9c0-0.6,0.4-1,1-1h26.5c0.6,0,1,0.4,1,1v4.9
							C48.3,60.3,47.8,60.8,47.3,60.8z"/>
					</g>
				</g>
			</g>
			<g>
				<g>
					<g>
						<path class="st6" d="M15,29.7H9.2c-0.6,0-1-0.4-1-1v-4.9c0-0.6,0.4-1,1-1H15c0.6,0,1,0.4,1,1v4.9C16,29.2,15.5,29.7,15,29.7z"
							/>
						<path class="st6" d="M47.8,29.7H21.3c-0.6,0-1-0.4-1-1v-4.9c0-0.6,0.4-1,1-1h26.5c0.6,0,1,0.4,1,1v4.9
							C48.8,29.2,48.3,29.7,47.8,29.7z"/>
					</g>
					<g>
						<path class="st6" d="M15,39.7H9.2c-0.6,0-1-0.4-1-1v-4.9c0-0.6,0.4-1,1-1H15c0.6,0,1,0.4,1,1v4.9C16,39.3,15.5,39.7,15,39.7z"
							/>
						<path class="st6" d="M47.8,39.7H21.3c-0.6,0-1-0.4-1-1v-4.9c0-0.6,0.4-1,1-1h26.5c0.6,0,1,0.4,1,1v4.9
							C48.8,39.3,48.3,39.7,47.8,39.7z"/>
					</g>
					<g>
						<path class="st6" d="M15,50H9.2c-0.6,0-1-0.4-1-1v-4.9c0-0.6,0.4-1,1-1H15c0.6,0,1,0.4,1,1V49C16,49.5,15.5,50,15,50z"/>
						<path class="st6" d="M47.8,50H21.3c-0.6,0-1-0.4-1-1v-4.9c0-0.6,0.4-1,1-1h26.5c0.6,0,1,0.4,1,1V49C48.8,49.5,48.3,50,47.8,50
							z"/>
					</g>
					<g>
						<path class="st6" d="M15,60.3H9.2c-0.6,0-1-0.4-1-1v-4.9c0-0.6,0.4-1,1-1H15c0.6,0,1,0.4,1,1v4.9C16,59.8,15.5,60.3,15,60.3z"
							/>
						<path class="st6" d="M47.8,60.3H21.3c-0.6,0-1-0.4-1-1v-4.9c0-0.6,0.4-1,1-1h26.5c0.6,0,1,0.4,1,1v4.9
							C48.8,59.8,48.3,60.3,47.8,60.3z"/>
					</g>
				</g>
			</g>
			<g>
				<g>
					<g>
						<path class="st6" d="M15.5,29.2H9.7c-0.6,0-1-0.4-1-1v-4.9c0-0.6,0.4-1,1-1h5.8c0.6,0,1,0.4,1,1v4.9
							C16.5,28.7,16,29.2,15.5,29.2z"/>
						<path class="st6" d="M48.3,29.2H21.8c-0.6,0-1-0.4-1-1v-4.9c0-0.6,0.4-1,1-1h26.5c0.6,0,1,0.4,1,1v4.9
							C49.3,28.7,48.8,29.2,48.3,29.2z"/>
					</g>
					<g>
						<path class="st6" d="M15.5,39.2H9.7c-0.6,0-1-0.4-1-1v-4.9c0-0.6,0.4-1,1-1h5.8c0.6,0,1,0.4,1,1v4.9
							C16.5,38.8,16,39.2,15.5,39.2z"/>
						<path class="st6" d="M48.3,39.2H21.8c-0.6,0-1-0.4-1-1v-4.9c0-0.6,0.4-1,1-1h26.5c0.6,0,1,0.4,1,1v4.9
							C49.3,38.8,48.8,39.2,48.3,39.2z"/>
					</g>
					<g>
						<path class="st6" d="M15.5,49.5H9.7c-0.6,0-1-0.4-1-1v-4.9c0-0.6,0.4-1,1-1h5.8c0.6,0,1,0.4,1,1v4.9
							C16.5,49,16,49.5,15.5,49.5z"/>
						<path class="st6" d="M48.3,49.5H21.8c-0.6,0-1-0.4-1-1v-4.9c0-0.6,0.4-1,1-1h26.5c0.6,0,1,0.4,1,1v4.9
							C49.3,49,48.8,49.5,48.3,49.5z"/>
					</g>
					<g>
						<path class="st6" d="M15.5,59.8H9.7c-0.6,0-1-0.4-1-1v-4.9c0-0.6,0.4-1,1-1h5.8c0.6,0,1,0.4,1,1v4.9
							C16.5,59.3,16,59.8,15.5,59.8z"/>
						<path class="st6" d="M48.3,59.8H21.8c-0.6,0-1-0.4-1-1v-4.9c0-0.6,0.4-1,1-1h26.5c0.6,0,1,0.4,1,1v4.9
							C49.3,59.3,48.8,59.8,48.3,59.8z"/>
					</g>
				</g>
			</g>
			<g>
				<g>
					<g>
						<path class="st6" d="M16,28.7h-5.8c-0.6,0-1-0.4-1-1v-4.9c0-0.6,0.4-1,1-1H16c0.6,0,1,0.4,1,1v4.9C17,28.2,16.5,28.7,16,28.7z
							"/>
						<path class="st6" d="M48.8,28.7H22.3c-0.6,0-1-0.4-1-1v-4.9c0-0.6,0.4-1,1-1h26.5c0.6,0,1,0.4,1,1v4.9
							C49.8,28.2,49.3,28.7,48.8,28.7z"/>
					</g>
					<g>
						<path class="st6" d="M16,38.7h-5.8c-0.6,0-1-0.4-1-1v-4.9c0-0.6,0.4-1,1-1H16c0.6,0,1,0.4,1,1v4.9C17,38.3,16.5,38.7,16,38.7z
							"/>
						<path class="st6" d="M48.8,38.7H22.3c-0.6,0-1-0.4-1-1v-4.9c0-0.6,0.4-1,1-1h26.5c0.6,0,1,0.4,1,1v4.9
							C49.8,38.3,49.3,38.7,48.8,38.7z"/>
					</g>
					<g>
						<path class="st6" d="M16,49h-5.8c-0.6,0-1-0.4-1-1v-4.9c0-0.6,0.4-1,1-1H16c0.6,0,1,0.4,1,1V48C17,48.5,16.5,49,16,49z"/>
						<path class="st6" d="M48.8,49H22.3c-0.6,0-1-0.4-1-1v-4.9c0-0.6,0.4-1,1-1h26.5c0.6,0,1,0.4,1,1V48C49.8,48.5,49.3,49,48.8,49
							z"/>
					</g>
					<g>
						<path class="st6" d="M16,59.3h-5.8c-0.6,0-1-0.4-1-1v-4.9c0-0.6,0.4-1,1-1H16c0.6,0,1,0.4,1,1v4.9C17,58.8,16.5,59.3,16,59.3z
							"/>
						<path class="st6" d="M48.8,59.3H22.3c-0.6,0-1-0.4-1-1v-4.9c0-0.6,0.4-1,1-1h26.5c0.6,0,1,0.4,1,1v4.9
							C49.8,58.8,49.3,59.3,48.8,59.3z"/>
					</g>
				</g>
			</g>
			<g>
				<g>
					<g>
						<path class="st6" d="M16.5,28.2h-5.8c-0.6,0-1-0.4-1-1v-4.9c0-0.6,0.4-1,1-1h5.8c0.6,0,1,0.4,1,1v4.9
							C17.5,27.7,17,28.2,16.5,28.2z"/>
						<path class="st6" d="M49.3,28.2H22.8c-0.6,0-1-0.4-1-1v-4.9c0-0.6,0.4-1,1-1h26.5c0.6,0,1,0.4,1,1v4.9
							C50.3,27.7,49.8,28.2,49.3,28.2z"/>
					</g>
					<g>
						<path class="st6" d="M16.5,38.2h-5.8c-0.6,0-1-0.4-1-1v-4.9c0-0.6,0.4-1,1-1h5.8c0.6,0,1,0.4,1,1v4.9
							C17.5,37.8,17,38.2,16.5,38.2z"/>
						<path class="st6" d="M49.3,38.2H22.8c-0.6,0-1-0.4-1-1v-4.9c0-0.6,0.4-1,1-1h26.5c0.6,0,1,0.4,1,1v4.9
							C50.3,37.8,49.8,38.2,49.3,38.2z"/>
					</g>
					<g>
						<path class="st6" d="M16.5,48.5h-5.8c-0.6,0-1-0.4-1-1v-4.9c0-0.6,0.4-1,1-1h5.8c0.6,0,1,0.4,1,1v4.9
							C17.5,48,17,48.5,16.5,48.5z"/>
						<path class="st6" d="M49.3,48.5H22.8c-0.6,0-1-0.4-1-1v-4.9c0-0.6,0.4-1,1-1h26.5c0.6,0,1,0.4,1,1v4.9
							C50.3,48,49.8,48.5,49.3,48.5z"/>
					</g>
					<g>
						<path class="st6" d="M16.5,58.8h-5.8c-0.6,0-1-0.4-1-1v-4.9c0-0.6,0.4-1,1-1h5.8c0.6,0,1,0.4,1,1v4.9
							C17.5,58.3,17,58.8,16.5,58.8z"/>
						<path class="st6" d="M49.3,58.8H22.8c-0.6,0-1-0.4-1-1v-4.9c0-0.6,0.4-1,1-1h26.5c0.6,0,1,0.4,1,1v4.9
							C50.3,58.3,49.8,58.8,49.3,58.8z"/>
					</g>
				</g>
			</g>
			<g>
				<g>
					<g>
						<path class="st6" d="M17,27.7h-5.8c-0.6,0-1-0.4-1-1v-4.9c0-0.6,0.4-1,1-1H17c0.6,0,1,0.4,1,1v4.9C18,27.2,17.5,27.7,17,27.7z
							"/>
						<path class="st6" d="M49.8,27.7H23.3c-0.6,0-1-0.4-1-1v-4.9c0-0.6,0.4-1,1-1h26.5c0.6,0,1,0.4,1,1v4.9
							C50.8,27.2,50.3,27.7,49.8,27.7z"/>
					</g>
					<g>
						<path class="st6" d="M17,37.7h-5.8c-0.6,0-1-0.4-1-1v-4.9c0-0.6,0.4-1,1-1H17c0.6,0,1,0.4,1,1v4.9C18,37.3,17.5,37.7,17,37.7z
							"/>
						<path class="st6" d="M49.8,37.7H23.3c-0.6,0-1-0.4-1-1v-4.9c0-0.6,0.4-1,1-1h26.5c0.6,0,1,0.4,1,1v4.9
							C50.8,37.3,50.3,37.7,49.8,37.7z"/>
					</g>
					<g>
						<path class="st6" d="M17,48h-5.8c-0.6,0-1-0.4-1-1v-4.9c0-0.6,0.4-1,1-1H17c0.6,0,1,0.4,1,1V47C18,47.5,17.5,48,17,48z"/>
						<path class="st6" d="M49.8,48H23.3c-0.6,0-1-0.4-1-1v-4.9c0-0.6,0.4-1,1-1h26.5c0.6,0,1,0.4,1,1V47C50.8,47.5,50.3,48,49.8,48
							z"/>
					</g>
					<g>
						<path class="st6" d="M17,58.3h-5.8c-0.6,0-1-0.4-1-1v-4.9c0-0.6,0.4-1,1-1H17c0.6,0,1,0.4,1,1v4.9C18,57.8,17.5,58.3,17,58.3z
							"/>
						<path class="st6" d="M49.8,58.3H23.3c-0.6,0-1-0.4-1-1v-4.9c0-0.6,0.4-1,1-1h26.5c0.6,0,1,0.4,1,1v4.9
							C50.8,57.8,50.3,58.3,49.8,58.3z"/>
					</g>
				</g>
			</g>
			<g>
				<g>
					<g>
						<path class="st6" d="M17.5,27.2h-5.8c-0.6,0-1-0.4-1-1v-4.9c0-0.6,0.4-1,1-1h5.8c0.6,0,1,0.4,1,1v4.9
							C18.5,26.7,18,27.2,17.5,27.2z"/>
						<path class="st6" d="M50.3,27.2H23.8c-0.6,0-1-0.4-1-1v-4.9c0-0.6,0.4-1,1-1h26.5c0.6,0,1,0.4,1,1v4.9
							C51.3,26.7,50.8,27.2,50.3,27.2z"/>
					</g>
					<g>
						<path class="st6" d="M17.5,37.2h-5.8c-0.6,0-1-0.4-1-1v-4.9c0-0.6,0.4-1,1-1h5.8c0.6,0,1,0.4,1,1v4.9
							C18.5,36.8,18,37.2,17.5,37.2z"/>
						<path class="st6" d="M50.3,37.2H23.8c-0.6,0-1-0.4-1-1v-4.9c0-0.6,0.4-1,1-1h26.5c0.6,0,1,0.4,1,1v4.9
							C51.3,36.8,50.8,37.2,50.3,37.2z"/>
					</g>
					<g>
						<path class="st6" d="M17.5,47.5h-5.8c-0.6,0-1-0.4-1-1v-4.9c0-0.6,0.4-1,1-1h5.8c0.6,0,1,0.4,1,1v4.9
							C18.5,47,18,47.5,17.5,47.5z"/>
						<path class="st6" d="M50.3,47.5H23.8c-0.6,0-1-0.4-1-1v-4.9c0-0.6,0.4-1,1-1h26.5c0.6,0,1,0.4,1,1v4.9
							C51.3,47,50.8,47.5,50.3,47.5z"/>
					</g>
					<g>
						<path class="st6" d="M17.5,57.8h-5.8c-0.6,0-1-0.4-1-1v-4.9c0-0.6,0.4-1,1-1h5.8c0.6,0,1,0.4,1,1v4.9
							C18.5,57.3,18,57.8,17.5,57.8z"/>
						<path class="st6" d="M50.3,57.8H23.8c-0.6,0-1-0.4-1-1v-4.9c0-0.6,0.4-1,1-1h26.5c0.6,0,1,0.4,1,1v4.9
							C51.3,57.3,50.8,57.8,50.3,57.8z"/>
					</g>
				</g>
			</g>
			<g>
				<g>
					<g>
						<path class="st6" d="M18,26.7h-5.8c-0.6,0-1-0.4-1-1v-4.9c0-0.6,0.4-1,1-1H18c0.6,0,1,0.4,1,1v4.9C19,26.2,18.5,26.7,18,26.7z
							"/>
						<path class="st6" d="M50.8,26.7H24.3c-0.6,0-1-0.4-1-1v-4.9c0-0.6,0.4-1,1-1h26.5c0.6,0,1,0.4,1,1v4.9
							C51.8,26.2,51.3,26.7,50.8,26.7z"/>
					</g>
					<g>
						<path class="st6" d="M18,36.7h-5.8c-0.6,0-1-0.4-1-1v-4.9c0-0.6,0.4-1,1-1H18c0.6,0,1,0.4,1,1v4.9C19,36.3,18.5,36.7,18,36.7z
							"/>
						<path class="st6" d="M50.8,36.7H24.3c-0.6,0-1-0.4-1-1v-4.9c0-0.6,0.4-1,1-1h26.5c0.6,0,1,0.4,1,1v4.9
							C51.8,36.3,51.3,36.7,50.8,36.7z"/>
					</g>
					<g>
						<path class="st6" d="M18,47h-5.8c-0.6,0-1-0.4-1-1v-4.9c0-0.6,0.4-1,1-1H18c0.6,0,1,0.4,1,1V46C19,46.5,18.5,47,18,47z"/>
						<path class="st6" d="M50.8,47H24.3c-0.6,0-1-0.4-1-1v-4.9c0-0.6,0.4-1,1-1h26.5c0.6,0,1,0.4,1,1V46C51.8,46.5,51.3,47,50.8,47
							z"/>
					</g>
					<g>
						<path class="st6" d="M18,57.3h-5.8c-0.6,0-1-0.4-1-1v-4.9c0-0.6,0.4-1,1-1H18c0.6,0,1,0.4,1,1v4.9C19,56.8,18.5,57.3,18,57.3z
							"/>
						<path class="st6" d="M50.8,57.3H24.3c-0.6,0-1-0.4-1-1v-4.9c0-0.6,0.4-1,1-1h26.5c0.6,0,1,0.4,1,1v4.9
							C51.8,56.8,51.3,57.3,50.8,57.3z"/>
					</g>
				</g>
			</g>
			<g>
				<g>
					<g>
						<path class="st6" d="M18.5,26.2h-5.8c-0.6,0-1-0.4-1-1v-4.9c0-0.6,0.4-1,1-1h5.8c0.6,0,1,0.4,1,1v4.9
							C19.5,25.7,19,26.2,18.5,26.2z"/>
						<path class="st6" d="M51.3,26.2H24.8c-0.6,0-1-0.4-1-1v-4.9c0-0.6,0.4-1,1-1h26.5c0.6,0,1,0.4,1,1v4.9
							C52.3,25.7,51.8,26.2,51.3,26.2z"/>
					</g>
					<g>
						<path class="st6" d="M18.5,36.2h-5.8c-0.6,0-1-0.4-1-1v-4.9c0-0.6,0.4-1,1-1h5.8c0.6,0,1,0.4,1,1v4.9
							C19.5,35.8,19,36.2,18.5,36.2z"/>
						<path class="st6" d="M51.3,36.2H24.8c-0.6,0-1-0.4-1-1v-4.9c0-0.6,0.4-1,1-1h26.5c0.6,0,1,0.4,1,1v4.9
							C52.3,35.8,51.8,36.2,51.3,36.2z"/>
					</g>
					<g>
						<path class="st6" d="M18.5,46.5h-5.8c-0.6,0-1-0.4-1-1v-4.9c0-0.6,0.4-1,1-1h5.8c0.6,0,1,0.4,1,1v4.9
							C19.5,46,19,46.5,18.5,46.5z"/>
						<path class="st6" d="M51.3,46.5H24.8c-0.6,0-1-0.4-1-1v-4.9c0-0.6,0.4-1,1-1h26.5c0.6,0,1,0.4,1,1v4.9
							C52.3,46,51.8,46.5,51.3,46.5z"/>
					</g>
					<g>
						<path class="st6" d="M18.5,56.8h-5.8c-0.6,0-1-0.4-1-1v-4.9c0-0.6,0.4-1,1-1h5.8c0.6,0,1,0.4,1,1v4.9
							C19.5,56.3,19,56.8,18.5,56.8z"/>
						<path class="st6" d="M51.3,56.8H24.8c-0.6,0-1-0.4-1-1v-4.9c0-0.6,0.4-1,1-1h26.5c0.6,0,1,0.4,1,1v4.9
							C52.3,56.3,51.8,56.8,51.3,56.8z"/>
					</g>
				</g>
			</g>
			<g>
				<g>
					<g>
						<path class="st6" d="M19,25.7h-5.8c-0.6,0-1-0.4-1-1v-4.9c0-0.6,0.4-1,1-1H19c0.6,0,1,0.4,1,1v4.9C20,25.2,19.5,25.7,19,25.7z
							"/>
						<path class="st6" d="M51.8,25.7H25.3c-0.6,0-1-0.4-1-1v-4.9c0-0.6,0.4-1,1-1h26.5c0.6,0,1,0.4,1,1v4.9
							C52.8,25.2,52.3,25.7,51.8,25.7z"/>
					</g>
					<g>
						<path class="st6" d="M19,35.7h-5.8c-0.6,0-1-0.4-1-1v-4.9c0-0.6,0.4-1,1-1H19c0.6,0,1,0.4,1,1v4.9C20,35.3,19.5,35.7,19,35.7z
							"/>
						<path class="st6" d="M51.8,35.7H25.3c-0.6,0-1-0.4-1-1v-4.9c0-0.6,0.4-1,1-1h26.5c0.6,0,1,0.4,1,1v4.9
							C52.8,35.3,52.3,35.7,51.8,35.7z"/>
					</g>
					<g>
						<path class="st6" d="M19,46h-5.8c-0.6,0-1-0.4-1-1v-4.9c0-0.6,0.4-1,1-1H19c0.6,0,1,0.4,1,1V45C20,45.5,19.5,46,19,46z"/>
						<path class="st6" d="M51.8,46H25.3c-0.6,0-1-0.4-1-1v-4.9c0-0.6,0.4-1,1-1h26.5c0.6,0,1,0.4,1,1V45C52.8,45.5,52.3,46,51.8,46
							z"/>
					</g>
					<g>
						<path class="st6" d="M19,56.3h-5.8c-0.6,0-1-0.4-1-1v-4.9c0-0.6,0.4-1,1-1H19c0.6,0,1,0.4,1,1v4.9C20,55.8,19.5,56.3,19,56.3z
							"/>
						<path class="st6" d="M51.8,56.3H25.3c-0.6,0-1-0.4-1-1v-4.9c0-0.6,0.4-1,1-1h26.5c0.6,0,1,0.4,1,1v4.9
							C52.8,55.8,52.3,56.3,51.8,56.3z"/>
					</g>
				</g>
			</g>
			<g>
				<g>
					<g>
						<path class="st6" d="M19.5,25.2h-5.8c-0.6,0-1-0.4-1-1v-4.9c0-0.6,0.4-1,1-1h5.8c0.6,0,1,0.4,1,1v4.9
							C20.5,24.7,20,25.2,19.5,25.2z"/>
						<path class="st6" d="M52.3,25.2H25.8c-0.6,0-1-0.4-1-1v-4.9c0-0.6,0.4-1,1-1h26.5c0.6,0,1,0.4,1,1v4.9
							C53.3,24.7,52.8,25.2,52.3,25.2z"/>
					</g>
					<g>
						<path class="st6" d="M19.5,35.2h-5.8c-0.6,0-1-0.4-1-1v-4.9c0-0.6,0.4-1,1-1h5.8c0.6,0,1,0.4,1,1v4.9
							C20.5,34.8,20,35.2,19.5,35.2z"/>
						<path class="st6" d="M52.3,35.2H25.8c-0.6,0-1-0.4-1-1v-4.9c0-0.6,0.4-1,1-1h26.5c0.6,0,1,0.4,1,1v4.9
							C53.3,34.8,52.8,35.2,52.3,35.2z"/>
					</g>
					<g>
						<path class="st6" d="M19.5,45.5h-5.8c-0.6,0-1-0.4-1-1v-4.9c0-0.6,0.4-1,1-1h5.8c0.6,0,1,0.4,1,1v4.9
							C20.5,45,20,45.5,19.5,45.5z"/>
						<path class="st6" d="M52.3,45.5H25.8c-0.6,0-1-0.4-1-1v-4.9c0-0.6,0.4-1,1-1h26.5c0.6,0,1,0.4,1,1v4.9
							C53.3,45,52.8,45.5,52.3,45.5z"/>
					</g>
					<g>
						<path class="st6" d="M19.5,55.8h-5.8c-0.6,0-1-0.4-1-1v-4.9c0-0.6,0.4-1,1-1h5.8c0.6,0,1,0.4,1,1v4.9
							C20.5,55.3,20,55.8,19.5,55.8z"/>
						<path class="st6" d="M52.3,55.8H25.8c-0.6,0-1-0.4-1-1v-4.9c0-0.6,0.4-1,1-1h26.5c0.6,0,1,0.4,1,1v4.9
							C53.3,55.3,52.8,55.8,52.3,55.8z"/>
					</g>
				</g>
			</g>
			<g>
				<g>
					<g>
						<path class="st6" d="M20,24.7h-5.8c-0.6,0-1-0.4-1-1v-4.9c0-0.6,0.4-1,1-1H20c0.6,0,1,0.4,1,1v4.9C21,24.2,20.5,24.7,20,24.7z
							"/>
						<path class="st6" d="M52.8,24.7H26.3c-0.6,0-1-0.4-1-1v-4.9c0-0.6,0.4-1,1-1h26.5c0.6,0,1,0.4,1,1v4.9
							C53.8,24.2,53.3,24.7,52.8,24.7z"/>
					</g>
					<g>
						<path class="st6" d="M20,34.7h-5.8c-0.6,0-1-0.4-1-1v-4.9c0-0.6,0.4-1,1-1H20c0.6,0,1,0.4,1,1v4.9C21,34.3,20.5,34.7,20,34.7z
							"/>
						<path class="st6" d="M52.8,34.7H26.3c-0.6,0-1-0.4-1-1v-4.9c0-0.6,0.4-1,1-1h26.5c0.6,0,1,0.4,1,1v4.9
							C53.8,34.3,53.3,34.7,52.8,34.7z"/>
					</g>
					<g>
						<path class="st6" d="M20,45h-5.8c-0.6,0-1-0.4-1-1v-4.9c0-0.6,0.4-1,1-1H20c0.6,0,1,0.4,1,1V44C21,44.5,20.5,45,20,45z"/>
						<path class="st6" d="M52.8,45H26.3c-0.6,0-1-0.4-1-1v-4.9c0-0.6,0.4-1,1-1h26.5c0.6,0,1,0.4,1,1V44C53.8,44.5,53.3,45,52.8,45
							z"/>
					</g>
					<g>
						<path class="st6" d="M20,55.3h-5.8c-0.6,0-1-0.4-1-1v-4.9c0-0.6,0.4-1,1-1H20c0.6,0,1,0.4,1,1v4.9C21,54.8,20.5,55.3,20,55.3z
							"/>
						<path class="st6" d="M52.8,55.3H26.3c-0.6,0-1-0.4-1-1v-4.9c0-0.6,0.4-1,1-1h26.5c0.6,0,1,0.4,1,1v4.9
							C53.8,54.8,53.3,55.3,52.8,55.3z"/>
					</g>
				</g>
			</g>
			<g>
				<g>
					<g>
						<path class="st6" d="M20.5,24.2h-5.8c-0.6,0-1-0.4-1-1v-4.9c0-0.6,0.4-1,1-1h5.8c0.6,0,1,0.4,1,1v4.9
							C21.5,23.7,21,24.2,20.5,24.2z"/>
						<path class="st6" d="M53.3,24.2H26.8c-0.6,0-1-0.4-1-1v-4.9c0-0.6,0.4-1,1-1h26.5c0.6,0,1,0.4,1,1v4.9
							C54.3,23.7,53.8,24.2,53.3,24.2z"/>
					</g>
					<g>
						<path class="st6" d="M20.5,34.2h-5.8c-0.6,0-1-0.4-1-1v-4.9c0-0.6,0.4-1,1-1h5.8c0.6,0,1,0.4,1,1v4.9
							C21.5,33.8,21,34.2,20.5,34.2z"/>
						<path class="st6" d="M53.3,34.2H26.8c-0.6,0-1-0.4-1-1v-4.9c0-0.6,0.4-1,1-1h26.5c0.6,0,1,0.4,1,1v4.9
							C54.3,33.8,53.8,34.2,53.3,34.2z"/>
					</g>
					<g>
						<path class="st6" d="M20.5,44.5h-5.8c-0.6,0-1-0.4-1-1v-4.9c0-0.6,0.4-1,1-1h5.8c0.6,0,1,0.4,1,1v4.9
							C21.5,44,21,44.5,20.5,44.5z"/>
						<path class="st6" d="M53.3,44.5H26.8c-0.6,0-1-0.4-1-1v-4.9c0-0.6,0.4-1,1-1h26.5c0.6,0,1,0.4,1,1v4.9
							C54.3,44,53.8,44.5,53.3,44.5z"/>
					</g>
					<g>
						<path class="st6" d="M20.5,54.8h-5.8c-0.6,0-1-0.4-1-1v-4.9c0-0.6,0.4-1,1-1h5.8c0.6,0,1,0.4,1,1v4.9
							C21.5,54.3,21,54.8,20.5,54.8z"/>
						<path class="st6" d="M53.3,54.8H26.8c-0.6,0-1-0.4-1-1v-4.9c0-0.6,0.4-1,1-1h26.5c0.6,0,1,0.4,1,1v4.9
							C54.3,54.3,53.8,54.8,53.3,54.8z"/>
					</g>
				</g>
			</g>
			<g>
				<g>
					<g>
						<path class="st6" d="M21,23.7h-5.8c-0.6,0-1-0.4-1-1v-4.9c0-0.6,0.4-1,1-1H21c0.6,0,1,0.4,1,1v4.9C22,23.2,21.5,23.7,21,23.7z
							"/>
						<path class="st6" d="M53.8,23.7H27.3c-0.6,0-1-0.4-1-1v-4.9c0-0.6,0.4-1,1-1h26.5c0.6,0,1,0.4,1,1v4.9
							C54.8,23.2,54.3,23.7,53.8,23.7z"/>
					</g>
					<g>
						<path class="st6" d="M21,33.7h-5.8c-0.6,0-1-0.4-1-1v-4.9c0-0.6,0.4-1,1-1H21c0.6,0,1,0.4,1,1v4.9C22,33.3,21.5,33.7,21,33.7z
							"/>
						<path class="st6" d="M53.8,33.7H27.3c-0.6,0-1-0.4-1-1v-4.9c0-0.6,0.4-1,1-1h26.5c0.6,0,1,0.4,1,1v4.9
							C54.8,33.3,54.3,33.7,53.8,33.7z"/>
					</g>
					<g>
						<path class="st6" d="M21,44h-5.8c-0.6,0-1-0.4-1-1v-4.9c0-0.6,0.4-1,1-1H21c0.6,0,1,0.4,1,1V43C22,43.5,21.5,44,21,44z"/>
						<path class="st6" d="M53.8,44H27.3c-0.6,0-1-0.4-1-1v-4.9c0-0.6,0.4-1,1-1h26.5c0.6,0,1,0.4,1,1V43C54.8,43.5,54.3,44,53.8,44
							z"/>
					</g>
					<g>
						<path class="st6" d="M21,54.3h-5.8c-0.6,0-1-0.4-1-1v-4.9c0-0.6,0.4-1,1-1H21c0.6,0,1,0.4,1,1v4.9C22,53.8,21.5,54.3,21,54.3z
							"/>
						<path class="st6" d="M53.8,54.3H27.3c-0.6,0-1-0.4-1-1v-4.9c0-0.6,0.4-1,1-1h26.5c0.6,0,1,0.4,1,1v4.9
							C54.8,53.8,54.3,54.3,53.8,54.3z"/>
					</g>
				</g>
			</g>
			<g>
				<g>
					<g>
						<path class="st6" d="M21.5,23.2h-5.8c-0.6,0-1-0.4-1-1v-4.9c0-0.6,0.4-1,1-1h5.8c0.6,0,1,0.4,1,1v4.9
							C22.5,22.7,22,23.2,21.5,23.2z"/>
						<path class="st6" d="M54.3,23.2H27.8c-0.6,0-1-0.4-1-1v-4.9c0-0.6,0.4-1,1-1h26.5c0.6,0,1,0.4,1,1v4.9
							C55.3,22.7,54.8,23.2,54.3,23.2z"/>
					</g>
					<g>
						<path class="st6" d="M21.5,33.2h-5.8c-0.6,0-1-0.4-1-1v-4.9c0-0.6,0.4-1,1-1h5.8c0.6,0,1,0.4,1,1v4.9
							C22.5,32.8,22,33.2,21.5,33.2z"/>
						<path class="st6" d="M54.3,33.2H27.8c-0.6,0-1-0.4-1-1v-4.9c0-0.6,0.4-1,1-1h26.5c0.6,0,1,0.4,1,1v4.9
							C55.3,32.8,54.8,33.2,54.3,33.2z"/>
					</g>
					<g>
						<path class="st6" d="M21.5,43.5h-5.8c-0.6,0-1-0.4-1-1v-4.9c0-0.6,0.4-1,1-1h5.8c0.6,0,1,0.4,1,1v4.9
							C22.5,43,22,43.5,21.5,43.5z"/>
						<path class="st6" d="M54.3,43.5H27.8c-0.6,0-1-0.4-1-1v-4.9c0-0.6,0.4-1,1-1h26.5c0.6,0,1,0.4,1,1v4.9
							C55.3,43,54.8,43.5,54.3,43.5z"/>
					</g>
					<g>
						<path class="st6" d="M21.5,53.8h-5.8c-0.6,0-1-0.4-1-1v-4.9c0-0.6,0.4-1,1-1h5.8c0.6,0,1,0.4,1,1v4.9
							C22.5,53.3,22,53.8,21.5,53.8z"/>
						<path class="st6" d="M54.3,53.8H27.8c-0.6,0-1-0.4-1-1v-4.9c0-0.6,0.4-1,1-1h26.5c0.6,0,1,0.4,1,1v4.9
							C55.3,53.3,54.8,53.8,54.3,53.8z"/>
					</g>
				</g>
			</g>
		</g>
		<path class="st7" d="M32.4,69H4c-2,0-4-1-4-4V42.2l15.6-16.7L36,21l16,4l7.9,5.4L55,36v8.6L32.4,69z"/>
		<path class="st8" d="M4,69h61c2.7,0,4.3-1,5-3v4H0v-4C0.7,68,2,69,4,69z"/>
		<path class="st9" d="M54.8,36.8c0.1,0.1,0.2,0.2,0.2,0.3v9.4c0,0.1-0.1,0.3-0.2,0.3L37.5,54c-0.1,0-0.2,0-0.3,0
			c-0.1-0.1-0.2-0.2-0.2-0.3V36.4c0-0.2,0.2-0.4,0.4-0.4c0.1,0,0.2,0,0.3,0.1l3.8,4.8c0,0,0.2,0.2,0.5,0.1
			c0.3-0.1,12.6-4.3,12.6-4.3C54.6,36.7,54.8,36.7,54.8,36.8z M59.9,31.9C60,32,60,32.1,60,32.3c0,0.1-0.1,0.2-0.2,0.2l-17,5.5
			c-0.1,0-0.3,0-0.4-0.1l-4.8-5.6l-1.4,0.4l0,0c-0.1,0-0.1,0-0.2,0l-1.4-0.4l-4.8,5.6C29.6,38,29.4,38,29.3,38l-17-5.5
			c-0.1,0-0.2-0.1-0.2-0.2c0-0.1,0-0.2,0.1-0.3l3.5-4.4c0.1-0.1,0.1-0.1,0.2-0.1L35.9,22c0.1,0,0.2,0,0.2,0l20.1,5.4
			c0.1,0,0.2,0.1,0.2,0.1L59.9,31.9L59.9,31.9z M36,31.1l14.4-3.8L36,23.5l-14.4,3.8L36,31.1z M34.7,36c0.2,0.1,0.3,0.2,0.3,0.3
			v17.3c0,0.1-0.1,0.2-0.2,0.3c-0.1,0.1-0.2,0.1-0.4,0l-18.2-7.1c-0.1-0.1-0.2-0.2-0.2-0.3v-9.4c0-0.1,0.1-0.2,0.2-0.3
			c0.1-0.1,0.2-0.1,0.3,0c0,0,12.9,4.2,13.3,4.3c0.3,0.1,0.5-0.1,0.5-0.1l4.1-4.8C34.4,36,34.6,36,34.7,36L34.7,36z"/>
		<g id="Barras__x28_Sombra_x29_" class="st10">
			<g>
				<path d="M21.5,25.2h-5.8c-0.6,0-1-0.4-1-1v-4.9c0-0.6,0.4-1,1-1h5.8c0.6,0,1,0.4,1,1v4.9C22.5,24.7,22,25.2,21.5,25.2z"/>
				<path d="M54.3,25.2H27.7c-0.6,0-1-0.4-1-1v-4.9c0-0.6,0.4-1,1-1h26.5c0.6,0,1,0.4,1,1v4.9C55.3,24.7,54.8,25.2,54.3,25.2z"/>
			</g>
			<g>
				<path d="M21.5,35.2h-5.8c-0.6,0-1-0.4-1-1v-4.9c0-0.6,0.4-1,1-1h5.8c0.6,0,1,0.4,1,1v4.9C22.5,34.8,22,35.2,21.5,35.2z"/>
				<path d="M54.3,35.2H27.7c-0.6,0-1-0.4-1-1v-4.9c0-0.6,0.4-1,1-1h26.5c0.6,0,1,0.4,1,1v4.9C55.3,34.8,54.8,35.2,54.3,35.2z"/>
			</g>
			<g>
				<path d="M21.5,45.5h-5.8c-0.6,0-1-0.4-1-1v-4.9c0-0.6,0.4-1,1-1h5.8c0.6,0,1,0.4,1,1v4.9C22.5,45,22,45.5,21.5,45.5z"/>
				<path d="M54.3,45.5H27.7c-0.6,0-1-0.4-1-1v-4.9c0-0.6,0.4-1,1-1h26.5c0.6,0,1,0.4,1,1v4.9C55.3,45,54.8,45.5,54.3,45.5z"/>
			</g>
			<g>
				<path d="M21.5,55.8h-5.8c-0.6,0-1-0.4-1-1v-4.9c0-0.6,0.4-1,1-1h5.8c0.6,0,1,0.4,1,1v4.9C22.5,55.3,22,55.8,21.5,55.8z"/>
				<path d="M54.3,55.8H27.7c-0.6,0-1-0.4-1-1v-4.9c0-0.6,0.4-1,1-1h26.5c0.6,0,1,0.4,1,1v4.9C55.3,55.3,54.8,55.8,54.3,55.8z"/>
			</g>
		</g>
		<g id="Barras">
			<g>
				<path class="st1" d="M21.5,23.2h-5.8c-0.6,0-1-0.4-1-1v-4.9c0-0.6,0.4-1,1-1h5.8c0.6,0,1,0.4,1,1v4.9
					C22.5,22.7,22,23.2,21.5,23.2z"/>
				<path class="st1" d="M54.3,23.2H27.8c-0.6,0-1-0.4-1-1v-4.9c0-0.6,0.4-1,1-1h26.5c0.6,0,1,0.4,1,1v4.9
					C55.3,22.7,54.8,23.2,54.3,23.2z"/>
			</g>
			<g>
				<path class="st1" d="M21.5,33.2h-5.8c-0.6,0-1-0.4-1-1v-4.9c0-0.6,0.4-1,1-1h5.8c0.6,0,1,0.4,1,1v4.9
					C22.5,32.8,22,33.2,21.5,33.2z"/>
				<path class="st1" d="M54.3,33.2H27.8c-0.6,0-1-0.4-1-1v-4.9c0-0.6,0.4-1,1-1h26.5c0.6,0,1,0.4,1,1v4.9
					C55.3,32.8,54.8,33.2,54.3,33.2z"/>
			</g>
			<g>
				<path class="st1" d="M21.5,43.5h-5.8c-0.6,0-1-0.4-1-1v-4.9c0-0.6,0.4-1,1-1h5.8c0.6,0,1,0.4,1,1v4.9C22.5,43,22,43.5,21.5,43.5
					z"/>
				<path class="st1" d="M54.3,43.5H27.8c-0.6,0-1-0.4-1-1v-4.9c0-0.6,0.4-1,1-1h26.5c0.6,0,1,0.4,1,1v4.9
					C55.3,43,54.8,43.5,54.3,43.5z"/>
			</g>
			<g>
				<path class="st1" d="M21.5,53.8h-5.8c-0.6,0-1-0.4-1-1v-4.9c0-0.6,0.4-1,1-1h5.8c0.6,0,1,0.4,1,1v4.9
					C22.5,53.3,22,53.8,21.5,53.8z"/>
				<path class="st1" d="M54.3,53.8H27.8c-0.6,0-1-0.4-1-1v-4.9c0-0.6,0.4-1,1-1h26.5c0.6,0,1,0.4,1,1v4.9
					C55.3,53.3,54.8,53.8,54.3,53.8z"/>
			</g>
		</g>
		<path class="st11" d="M54.8,34.8c0.1,0.1,0.2,0.2,0.2,0.3v9.4c0,0.1-0.1,0.3-0.2,0.3L37.5,52c-0.1,0-0.2,0-0.3,0
			c-0.1-0.1-0.2-0.2-0.2-0.3V34.4c0-0.2,0.2-0.4,0.4-0.4c0.1,0,0.2,0,0.3,0.1l3.8,4.8c0,0,0.2,0.2,0.5,0.1
			c0.3-0.1,12.6-4.3,12.6-4.3C54.6,34.7,54.8,34.7,54.8,34.8z M59.9,29.9C60,30,60,30.1,60,30.3c0,0.1-0.1,0.2-0.2,0.2l-17,5.5
			c-0.1,0-0.3,0-0.4-0.1l-4.8-5.6l-1.4,0.4l0,0c-0.1,0-0.1,0-0.2,0l-1.4-0.4l-4.8,5.6C29.6,36,29.4,36,29.3,36l-17-5.5
			c-0.1,0-0.2-0.1-0.2-0.2c0-0.1,0-0.2,0.1-0.3l3.5-4.4c0.1-0.1,0.1-0.1,0.2-0.1L35.9,20c0.1,0,0.2,0,0.2,0l20.1,5.4
			c0.1,0,0.2,0.1,0.2,0.1L59.9,29.9L59.9,29.9z M36,29.1l14.4-3.8L36,21.5l-14.4,3.8L36,29.1z M34.7,34c0.2,0.1,0.3,0.2,0.3,0.3
			v17.3c0,0.1-0.1,0.2-0.2,0.3c-0.1,0.1-0.2,0.1-0.4,0l-18.2-7.1c-0.1-0.1-0.2-0.2-0.2-0.3v-9.4c0-0.1,0.1-0.2,0.2-0.3
			c0.1-0.1,0.2-0.1,0.3,0c0,0,12.9,4.2,13.3,4.3c0.3,0.1,0.5-0.1,0.5-0.1l4.1-4.8C34.4,34,34.6,34,34.7,34L34.7,34z"/>
	</g>
</g>
</svg>
