<?xml version="1.0" encoding="UTF-8" standalone="no"?>
<!-- Created with Inkscape (http://www.inkscape.org/) -->

<svg
   xmlns:dc="http://purl.org/dc/elements/1.1/"
   xmlns:cc="http://creativecommons.org/ns#"
   xmlns:rdf="http://www.w3.org/1999/02/22-rdf-syntax-ns#"
   xmlns:svg="http://www.w3.org/2000/svg"
   xmlns="http://www.w3.org/2000/svg"
   xmlns:xlink="http://www.w3.org/1999/xlink"
   xmlns:sodipodi="http://sodipodi.sourceforge.net/DTD/sodipodi-0.dtd"
   xmlns:inkscape="http://www.inkscape.org/namespaces/inkscape"
   id="svg8"
   version="1.1"
   viewBox="0 0 140 140"
   height="140"
   width="140"
   inkscape:export-filename="./icon.png"
   inkscape:export-xdpi="96"
   inkscape:export-ydpi="96"
   sodipodi:docname="icon.svg"
   inkscape:version="0.92.3 (2405546, 2018-03-11)">
  <sodipodi:namedview
     inkscape:window-maximized="1"
     inkscape:window-y="28"
     inkscape:window-x="0"
     inkscape:window-height="1024"
     inkscape:window-width="1920"
     inkscape:snap-to-guides="true"
     inkscape:snap-page="true"
     inkscape:snap-object-midpoints="true"
     inkscape:snap-others="false"
     inkscape:lockguides="false"
     inkscape:guide-bbox="true"
     showguides="true"
     units="px"
     showgrid="false"
     inkscape:current-layer="layer2"
     inkscape:document-units="px"
     inkscape:cy="66.615172"
     inkscape:cx="65.97056"
     inkscape:zoom="4.5659091"
     inkscape:pageshadow="2"
     inkscape:pageopacity="0.0"
     borderopacity="1.0"
     bordercolor="#666666"
     pagecolor="#ffffff"
     id="base">
    <sodipodi:guide
       inkscape:color="rgb(0,0,255)"
       inkscape:label=""
       inkscape:locked="false"
       id="guide856"
       orientation="1,0"
       position="20,155.71926" />
    <sodipodi:guide
       inkscape:color="rgb(0,0,255)"
       inkscape:label=""
       inkscape:locked="false"
       id="guide858"
       orientation="1,0"
       position="120,136.88402" />
    <sodipodi:guide
       inkscape:color="rgb(0,0,255)"
       inkscape:label=""
       inkscape:locked="false"
       id="guide860"
       orientation="0,1"
       position="61.105027,115" />
    <sodipodi:guide
       inkscape:color="rgb(0,0,255)"
       inkscape:label=""
       inkscape:locked="false"
       id="guide862"
       orientation="0,1"
       position="104.25087,25" />
  </sodipodi:namedview>
  <defs
     id="defs2">
    <linearGradient
       inkscape:collect="always"
       id="linearGradient15187">
      <stop
         style="stop-color:#000000;stop-opacity:1;"
         offset="0"
         id="stop15183" />
      <stop
         style="stop-color:#000000;stop-opacity:0;"
         offset="1"
         id="stop15185" />
    </linearGradient>
    <filter
       height="1.0317333"
       y="-0.015866667"
       width="1.0192973"
       x="-0.0096486486"
       id="filter852"
       style="color-interpolation-filters:sRGB"
       inkscape:collect="always">
      <feGaussianBlur
         id="feGaussianBlur854"
         stdDeviation="0.18429124"
         inkscape:collect="always" />
    </filter>
    <linearGradient
       inkscape:collect="always"
       xlink:href="#linearGradient15187"
       id="linearGradient15189"
       x1="117.19336"
       y1="25.005859"
       x2="-50.935566"
       y2="193.13478"
       gradientUnits="userSpaceOnUse" />
    <filter
       inkscape:collect="always"
       style="color-interpolation-filters:sRGB"
       id="filter15191"
       x="-0.0011798664"
       width="1.0023597"
       y="-0.0012208326"
       height="1.0024417">
      <feGaussianBlur
         inkscape:collect="always"
         stdDeviation="0.14650489"
         id="feGaussianBlur15193" />
    </filter>
    <clipPath
       clipPathUnits="userSpaceOnUse"
       id="clipPath15265">
      <rect
         ry="7.9449983"
         y="-6.6868429"
         x="-9.588562"
         height="156.13716"
         width="156.13716"
         id="rect15267"
         style="fill:#da413b;fill-opacity:1;stroke-width:1.11526537" />
    </clipPath>
    <clipPath
       clipPathUnits="userSpaceOnUse"
       id="clipPath15269">
      <rect
         ry="7.9449983"
         y="-6.6868429"
         x="-9.588562"
         height="156.13716"
         width="156.13716"
         id="rect15271"
         style="fill:#da413b;fill-opacity:1;stroke-width:1.11526537" />
    </clipPath>
    <clipPath
       clipPathUnits="userSpaceOnUse"
       id="clipPath15273">
      <rect
         ry="7.1238632"
         y="-7.0117189e-06"
         x="0"
         height="140"
         width="140"
         id="rect15275"
         style="fill:#da413b;fill-opacity:1" />
    </clipPath>
  </defs>
  <metadata
     id="metadata5">
    <rdf:RDF>
      <cc:Work
         rdf:about="">
        <dc:format>image/svg+xml</dc:format>
        <dc:type
           rdf:resource="http://purl.org/dc/dcmitype/StillImage" />
        <dc:title></dc:title>
      </cc:Work>
    </rdf:RDF>
  </metadata>
  <g
     transform="translate(0,-259.95832)"
     id="layer1"
     inkscape:groupmode="layer"
     inkscape:label="Background">
    <rect
       ry="7.1238632"
       y="259.95831"
       x="0"
       height="140"
       width="140"
       id="rect815"
       style="fill:#da413b;fill-opacity:1" />
  </g>
  <g
     inkscape:label="Icon"
     id="layer2"
     inkscape:groupmode="layer">
    <rect
       style="fill:#cd4d48;fill-opacity:1"
       id="rect15227"
       width="140"
       height="140"
       x="0"
       y="-7.0117189e-06"
       ry="7.1238632"
       clip-path="url(#clipPath15273)" />
    <path
       style="opacity:0.503;fill:url(#linearGradient15189);fill-opacity:1;filter:url(#filter15191)"
       d="m 22.796875,25.005859 c -0.776476,0 -1.475857,0.311795 -1.982422,0.81836 -6.48e-4,6.48e-4 -0.0013,0.0013 -0.002,0.002 -0.0102,0.01007 -0.01925,0.02102 -0.0293,0.03125 -0.0082,0.0082 -0.01531,0.01712 -0.02344,0.02539 -0.01357,0.01333 -0.02577,0.02741 -0.03906,0.04102 -0.01688,0.0165 -0.03432,0.03191 -0.05078,0.04883 -0.02021,0.01966 -0.03899,0.04029 -0.05859,0.06055 -0.02362,0.02286 -0.04556,0.04664 -0.06836,0.07031 -0.02704,0.02604 -0.05215,0.05297 -0.07813,0.08008 -0.03042,0.02915 -0.06077,0.0574 -0.08984,0.08789 -0.03381,0.03224 -0.0655,0.06572 -0.09766,0.09961 -0.03595,0.03411 -0.06943,0.0695 -0.103516,0.105468 -0.04408,0.04141 -0.0876,0.08277 -0.128906,0.126954 -0.04272,0.0403 -0.08294,0.0821 -0.123047,0.125 -0.04802,0.0449 -0.09197,0.09246 -0.136719,0.140625 -0.05054,0.04697 -0.09954,0.09397 -0.146484,0.144531 -0.05752,0.05305 -0.111173,0.108346 -0.164063,0.166016 -0.05749,0.0531 -0.111215,0.108289 -0.164062,0.166015 -0.0608,0.05567 -0.118164,0.113025 -0.173828,0.173828 -0.06734,0.06112 -0.132271,0.124036 -0.19336,0.191407 -0.07064,0.06405 -0.135465,0.132207 -0.199218,0.203124 -0.07175,0.06497 -0.138475,0.133039 -0.203125,0.205079 -0.07682,0.06894 -0.149994,0.13981 -0.21875,0.216797 -0.07904,0.07059 -0.152108,0.145531 -0.222657,0.224609 -0.08658,0.07658 -0.167664,0.157472 -0.24414,0.244141 -0.08837,0.07826 -0.170234,0.161227 -0.248047,0.25 -0.09023,0.07962 -0.174639,0.16336 -0.253906,0.253906 -0.09438,0.08262 -0.181194,0.171121 -0.263672,0.265625 -0.10138,0.088 -0.195457,0.181593 -0.283203,0.283203 -0.100275,0.08717 -0.192377,0.180753 -0.279297,0.28125 -0.109279,0.09382 -0.209143,0.195208 -0.302735,0.304687 -0.109198,0.09397 -0.209246,0.195063 -0.302734,0.304688 -0.114513,0.09766 -0.220975,0.201654 -0.318359,0.316406 -0.116852,0.09917 -0.223162,0.207313 -0.322266,0.324219 -0.122957,0.103549 -0.236413,0.216783 -0.339844,0.339844 -0.126577,0.106386 -0.241761,0.222604 -0.347656,0.349609 -0.127756,0.10711 -0.244824,0.223484 -0.351562,0.351563 -0.134399,0.111496 -0.255826,0.234626 -0.367188,0.36914 -0.138337,0.114409 -0.264935,0.240194 -0.378906,0.378906 -0.141877,0.116987 -0.270424,0.246204 -0.386719,0.388672 -0.143869,0.118208 -0.274927,0.248234 -0.392578,0.392578 -0.148293,0.12087 -0.281696,0.255816 -0.402344,0.404297 -0.154882,0.125282 -0.295021,0.266672 -0.419922,0.421875 -0.155286,0.125532 -0.296711,0.264325 -0.421875,0.419922 -0.162658,0.130257 -0.309595,0.278414 -0.439453,0.441406 -0.164267,0.131462 -0.310595,0.280502 -0.441406,0.445313 -0.168477,0.133721 -0.319567,0.284513 -0.453125,0.453125 -0.1759505,0.138749 -0.3346445,0.296097 -0.4726564,0.472656 -0.174906,0.138264 -0.3314241,0.295021 -0.46875,0.470703 C 9.015794,37.630133 8.8523595,37.790832 8.7109375,37.972656 8.5254872,38.116898 8.3605829,38.282926 8.2167969,38.46875 8.0272708,38.615401 7.8590756,38.784703 7.7128906,38.974609 7.5192748,39.12365 7.3477835,39.296232 7.1992188,39.490234 7.0018989,39.64134 6.826506,39.816044 6.6757812,40.013672 6.4731607,40.167838 6.29435,40.347806 6.140625,40.550781 5.9335966,40.707576 5.7498906,40.890104 5.59375,41.097656 5.3850888,41.255323 5.2000318,41.439293 5.0429688,41.648438 4.8273301,41.809999 4.6374385,42.000613 4.4765625,42.216797 4.2591719,42.379201 4.0681206,42.571248 3.90625,42.789062 3.6811039,42.955994 3.4803267,43.152927 3.3144531,43.378906 3.0899215,43.545614 2.8920685,43.743272 2.7265625,43.96875 2.4958254,44.138116 2.2940223,44.341259 2.125,44.572266 1.8895278,44.744161 1.6812093,44.951675 1.5097656,45.1875 c -0.239372,0.174059 -0.4496798,0.383138 -0.62304685,0.623047 -0.24404443,0.176355 -0.45705596,0.390258 -0.6328125,0.634765 -0.24831276,0.178492 -0.46469534,0.39575 -0.64257813,0.644532 -0.25259441,0.180608 -0.47235447,0.401227 -0.65234372,0.654297 -0.2564787,0.182414 -0.4801892,0.405253 -0.6621094,0.662109 -0.2638647,0.186469 -0.4964263,0.414871 -0.6816406,0.679688 -0.2629489,0.186059 -0.4910124,0.415758 -0.6757813,0.679687 -0.2692775,0.188513 -0.5034113,0.421737 -0.6914062,0.691406 -0.2748285,0.191173 -0.5126078,0.429757 -0.703125,0.705078 -0.2787582,0.192885 -0.5205424,0.433731 -0.7128907,0.712891 -0.2829628,0.194957 -0.5285032,0.439094 -0.7226562,0.722656 -0.2854929,0.195468 -0.530971,0.443115 -0.7265625,0.728516 -0.296168,0.200595 -0.5519279,0.457318 -0.7519531,0.753906 -0.2932554,0.199892 -0.547613,0.45375 -0.7460938,0.748047 0,0 -0.00195,0 -0.00195,0 -0.3005159,0.202674 -0.5580004,0.462489 -0.7597656,0.763672 -0.3055233,0.204673 -0.5675539,0.467372 -0.7714844,0.773437 -0.3099391,0.206512 -0.5754916,0.472717 -0.7812506,0.783204 -0.314585,0.208474 -0.581438,0.47972 -0.789062,0.794921 -0.319308,0.21033 -0.591228,0.482868 -0.800781,0.802735 -0.323762,0.212105 -0.599228,0.488173 -0.810547,0.8125 -0.32797,0.213692 -0.605358,0.493801 -0.81836,0.822265 -0.334219,0.215996 -0.616562,0.501343 -0.832031,0.835938 -0.337704,0.217503 -0.623161,0.503511 -0.839843,0.841797 -0.342689,0.219503 -0.631143,0.510095 -0.84961,0.853515 -0.347352,0.220968 -0.640997,0.513529 -0.861328,0.861329 -0.35183,0.222838 -0.647334,0.520494 -0.869141,0.873046 -0.356908,0.224547 -0.657179,0.525301 -0.880859,0.882813 -0.361202,0.225988 -0.663445,0.530848 -0.888672,0.892578 -0.366514,0.228147 -0.673529,0.536894 -0.90039,0.904297 -0.370143,0.229351 -0.680091,0.53916 -0.908204,0.910156 -0.375717,0.231016 -0.689818,0.545532 -0.919922,0.921875 -0.380545,0.232673 -0.696089,0.552347 -0.927734,0.933594 -0.385456,0.234202 -0.706187,0.555313 -0.939453,0.941406 -0.390085,0.235678 -0.714488,0.560446 -0.949219,0.951172 -0.395532,0.237529 -0.724608,0.568503 -0.960937,0.964844 -0.39925,0.238672 -0.729332,0.570642 -0.966797,0.970703 -0.404565,0.240138 -0.73936,0.575247 -0.978516,0.980469 -0.410695,0.24228 -0.751449,0.582419 -0.992187,0.99414 -0.41265,0.242672 -0.752717,0.58457 -0.994141,0.998047 -0.420004,0.244584 -0.766117,0.591099 -1.009766,1.011719 -0.424718,0.246023 -0.772702,0.597965 -1.017578,1.023437 -0.429438,0.247159 -0.783022,0.59928 -1.029296,1.029297 -0.43407,0.248596 -0.789729,0.606155 -1.03711,1.041016 -0.43923,0.249866 -0.800029,0.610859 -1.048828,1.050781 -0.444217,0.251228 -0.806613,0.617508 -1.056641,1.0625 -0.449295,0.252446 -0.817005,0.620316 -1.068359,1.070313 -0.454077,0.253633 -0.825595,0.625295 -1.078125,1.080078 -0.458869,0.254799 -0.834207,0.630264 -1.087891,1.089843 -0.463401,0.255794 -0.840886,0.635589 -1.095703,1.09961 -0.470494,0.25761 -0.855007,0.641973 -1.111328,1.113281 -0.473174,0.258297 -0.85837,0.645065 -1.115234,1.119141 -0.478692,0.259365 -0.868751,0.649485 -1.126953,1.128906 -0.484664,0.260828 -0.879316,0.656997 -1.138672,1.142578 -0.487753,0.261318 -0.884399,0.657995 -1.144532,1.146484 -0.494841,0.262699 -0.896551,0.666621 -1.158203,1.16211 -0.499201,0.263831 -0.903695,0.66979 -1.166015,1.169922 -0.504785,0.26476 -0.914201,0.67415 -1.177735,1.179687 -0.509716,0.265712 -0.92109,0.678971 -1.185547,1.189453 -0.515149,0.266875 -0.933888,0.683131 -1.199218,1.199219 -0.51911,0.267669 -0.93715,0.688849 -1.203125,1.208987 -0.525019,0.26847 -0.949602,0.69296 -1.216797,1.21875 -0.530135,0.26914 -0.956385,0.69783 -1.22461,1.22851 -0.536938,0.27047 -0.971073,0.70447 -1.240234,1.24219 -0.539742,0.2711 -0.974681,0.70733 -1.24414,1.24805 -0.545425,0.2718 -0.985381,0.7116 -1.25586,1.25781 -0.550927,0.27282 -0.99448,0.71762 -1.265625,1.26953 -0.557007,0.27365 -1.00529,0.72136 -1.277344,1.2793 -0.560549,0.27429 -1.012741,0.72546 -1.285156,1.28711 -0.567052,0.27503 -1.023472,0.73082 -1.296875,1.29883 -0.570831,0.27576 -1.029045,0.73656 -1.302734,1.30859 -0.577303,0.27621 -1.041602,0.74025 -1.316406,1.31836 -0.582479,0.27688 -1.048842,0.74478 -1.324219,1.32812 -0.588108,0.27763 -1.061963,0.74882 -1.337891,1.33789 -0.591609,0.27825 -1.065696,0.75483 -1.341797,1.34766 -0.598133,0.27857 -1.078356,0.75846 -1.355469,1.35742 -0.603223,0.27909 -1.087619,0.76314 -1.365234,1.36719 -0.60804,0.27945 -1.094885,0.76819 -1.373047,1.37695 -0.615764,0.28026 -1.109923,0.77402 -1.388672,1.39063 -0.618395,0.28067 -1.113783,0.77704 -1.392578,1.39648 -0.62397,0.28084 -1.122831,0.78155 -1.402343,1.40625 -0.63131,0.28133 -1.135895,0.786 -1.416016,1.41797 -0.635516,0.2817 -1.143481,0.79148 -1.423828,1.42774 -0.640803,0.28235 -1.15319,0.79563 -1.433594,1.4375 -0.645894,0.28216 -1.162178,0.79888 -1.443359,1.44531 -0.653098,0.28288 -1.17575,0.80502 -1.457032,1.45898 -0.656172,0.28345 -1.179883,0.80934 -1.460937,1.4668 -0.662853,0.28336 -1.19287,0.81284 -1.47461,1.47656 -0.668058,0.28358 -1.202426,0.8174 -1.484374,1.48633 -0.673555,0.2839 -1.21015,0.8235 -1.492188,1.49805 -0.679443,0.28409 -1.219743,0.82737 -1.501953,1.50781 -0.684946,0.2841 -1.231178,0.82983 -1.513672,1.51562 -0.690304,0.28439 -1.239034,0.83603 -1.521484,1.52735 -0.696196,0.28447 -1.248694,0.83991 -1.53125,1.53711 -0.702735,0.28476 -1.258596,0.84488 -1.541014,1.54883 -0.7096,0.28468 -1.27212,0.84596 -1.55469,1.55664 -0.71263,0.28461 -1.27595,0.85081 -1.5586,1.56445 -0.72177,0.28459 -1.29161,0.85729 -1.57421,1.58008 -0.72531,0.28486 -1.29783,0.85931 -1.58008,1.58593 -0.73231,0.28449 -1.30935,0.86237 -1.5918,1.59571 -0.73779,0.28464 -1.31948,0.86834 -1.60156,1.60742 -0.74294,0.28427 -1.32716,0.87127 -1.60938,1.61523 -0.75026,0.28389 -1.34087,0.87584 -1.62304,1.62696 -0.75548,0.28396 -1.34913,0.88014 -1.63086,1.63672 -0.76151,0.28373 -1.35914,0.88386 -1.64063,1.64648 -0.76755,0.28348 -1.36918,0.88758 -1.65039,1.65625 -0.77302,0.28299 -1.37898,0.89015 -1.66016,1.66406 -0.77936,0.28259 -1.39098,0.8956 -1.67187,1.67578 -0.78485,0.28242 -1.39927,0.89974 -1.67969,1.68555 -0.79216,0.28204 -1.41156,0.90405 -1.6914,1.69727 -0.79695,0.28181 -1.41982,0.90697 -1.69922,1.70507 -0.80333,0.28123 -1.43188,0.91049 -1.71094,1.71485 -0.80902,0.28067 -1.44198,0.91467 -1.7207,1.72461 -0.81499,0.28046 -1.4506,0.92013 -1.72852,1.73633 -0.82173,0.27973 -1.46278,0.92329 -1.74023,1.74609 -0.82741,0.27908 -1.47295,0.92555 -1.75,1.75391 -0.83402,0.27856 -1.48352,0.93053 -1.75977,1.76562 -0.83919,0.27798 -1.49376,0.93323 -1.76953,1.77344 -0.84562,0.2772 -1.50414,0.93859 -1.7793,1.78515 -0.8518,0.27651 -1.51461,0.94218 -1.78906,1.79493 -0.85799,0.27577 -1.52512,0.94575 -1.79883,1.80468 -0.86474,0.27484 -1.53755,0.94888 -1.81054,1.81446 -0.87042,0.27441 -1.54841,0.95267 -1.82032,1.82422 -0.87548,0.27387 -1.55705,0.95724 -1.82812,1.83398 -0.88245,0.27284 -1.5677,0.96207 -1.83789,1.8457 -0.88906,0.27186 -1.58032,0.96332 -1.84961,1.85352 -0.89452,0.2709 -1.59074,0.96776 -1.85938,1.86328 -0.90112,0.27032 -1.60201,0.97247 -1.86914,1.875 -0.90618,0.26937 -1.61044,0.97538 -1.87695,1.88281 -0.91339,0.26826 -1.62341,0.97984 -1.88867,1.89453 -0.9193,0.26712 -1.634,0.98189 -1.89844,1.90235 -0.92573,0.26595 -1.64483,0.98721 -1.9082,1.91406 -0.93209,0.26487 -1.65578,0.9906 -1.91797,1.92383 -0.93746,0.26371 -1.66632,0.9932 -1.92774,1.93164 -0.94404,0.26239 -1.67722,0.99842 -1.9375,1.94336 -0.95077,0.26106 -1.69019,1.00149 -1.94922,1.95312 -0.95623,0.26028 -1.69943,1.00554 -1.95703,1.96289 -0.96306,0.25908 -1.7108,1.01026 -1.96679,1.97461 -1.1987,0.31821 -2.08203,1.39557 -2.08203,2.69727 v 9.39453 c 0,1.55295 1.24978,2.80273 2.80273,2.80273 h 9.125 c -0.046,0.10826 -0.0752,0.22503 -0.10742,0.33985 -0.93746,0.26371 -1.66632,0.9932 -1.92774,1.93164 -0.94404,0.26239 -1.67722,0.99842 -1.9375,1.94336 -0.95077,0.26106 -1.69019,1.00149 -1.94922,1.95312 -0.95631,0.26023 -1.69941,1.00548 -1.95703,1.96289 -0.96306,0.25908 -1.7108,1.01026 -1.96679,1.97461 -1.1987,0.31821 -2.08203,1.39557 -2.08203,2.69727 v 9.39453 c 0,1.55295 1.24978,2.80273 2.80273,2.80273 h 9.125 c -0.046,0.10826 -0.0752,0.22503 -0.10742,0.33985 -0.93746,0.26371 -1.66632,0.9932 -1.92774,1.93164 -0.94404,0.26239 -1.67722,0.99842 -1.9375,1.94336 -0.95077,0.26106 -1.69019,1.00149 -1.94922,1.95312 -0.95631,0.26023 -1.69941,1.00548 -1.95703,1.96289 -0.96306,0.25908 -1.7108,1.01026 -1.96679,1.97461 -1.1987,0.31821 -2.08203,1.39557 -2.08203,2.69727 v 9.39453 c 0,1.55295 1.24978,2.80273 2.80273,2.80273 h 9.125 c -0.046,0.10826 -0.0752,0.22503 -0.10742,0.33985 -0.93746,0.26371 -1.66632,0.9932 -1.92774,1.93164 -0.94404,0.26239 -1.67722,0.99842 -1.9375,1.94336 -0.95077,0.26106 -1.69019,1.00149 -1.94922,1.95312 -0.95631,0.26023 -1.69941,1.00548 -1.95703,1.96289 -0.96306,0.25908 -1.7108,1.01026 -1.96679,1.97461 -1.1987,0.31821 -2.08203,1.39557 -2.08203,2.69727 v 9.39453 c 0,1.55295 1.24978,2.80274 2.80273,2.80273 h 9.39453 c 1.3017,0 2.37906,-0.88333 2.69727,-2.08203 0.96435,-0.25599 1.71553,-1.00373 1.97461,-1.96679 0.95735,-0.2576 1.70261,-1.0008 1.96289,-1.95703 0.95163,-0.25903 1.69206,-0.99845 1.95312,-1.94922 0.94494,-0.26028 1.68097,-0.99346 1.94336,-1.9375 0.93844,-0.26142 1.66793,-0.99028 1.93164,-1.92774 0.93323,-0.26219 1.65896,-0.98588 1.92383,-1.91797 0.92685,-0.26337 1.64811,-0.98247 1.91406,-1.9082 0.92046,-0.26444 1.63523,-0.97914 1.90235,-1.89844 0.91469,-0.26526 1.62627,-0.97528 1.89453,-1.88867 0.90743,-0.26651 1.61344,-0.97077 1.88281,-1.87695 0.90253,-0.26713 1.60468,-0.96802 1.875,-1.86914 0.88244,-0.26472 1.57219,-0.94445 1.85156,-1.82032 h 4.02344 c -0.046,0.10826 -0.0752,0.22503 -0.10742,0.33985 -0.93746,0.26371 -1.66632,0.9932 -1.92774,1.93164 -0.94404,0.26239 -1.67722,0.99842 -1.9375,1.94336 -0.95077,0.26106 -1.69019,1.00149 -1.94922,1.95312 -0.95631,0.26023 -1.69941,1.00548 -1.95703,1.96289 -0.96306,0.25908 -1.7108,1.01026 -1.96679,1.97461 -1.1987,0.31821 -2.08203,1.39557 -2.08203,2.69727 v 9.39453 c 0,1.55295 1.24978,2.80274 2.80273,2.80273 h 32.51758 c 15.954269,0 31.90625,-0.0139 31.906251,-0.0293 1.27265,0 2.32833,-0.91554 2.658203,-2.10156 0.930703,-0.25887 1.662347,-1.04097 1.949218,-1.98438 0.91305,-0.25287 1.640391,-1.04293 1.945313,-1.97461 0.892473,-0.24747 1.610999,-1.04306 1.93164,-1.96289 0.877483,-0.2406 1.594332,-1.04706 1.927735,-1.96289 0.85789,-0.23448 1.563386,-1.04045 1.908203,-1.94922 0.843252,-0.22352 1.538239,-1.03271 1.894531,-1.93945 0.831517,-0.20961 1.521652,-1.0193 1.888672,-1.92774 0.819382,-0.19568 1.504827,-1.00695 1.880859,-1.91797 0.807484,-0.18062 1.487073,-0.99363 1.871094,-1.9082 0.795504,-0.16475 1.472314,-0.97788 1.863282,-1.89648 0.777698,-0.14682 1.447541,-0.95039 1.845703,-1.86524 0.772457,-0.12207 1.442348,-0.95269 1.847656,-1.8789 0.760439,-0.10445 1.420874,-0.93791 1.830078,-1.86914 0.752655,-0.0807 1.40835,-0.91858 1.822266,-1.85938 0.744833,-0.0548 1.396103,-0.89552 1.814453,-1.8457 0.737527,-0.0292 1.382966,-0.87888 1.804687,-1.83985 0.728219,0 1.367655,-0.85057 1.792969,-1.81835 0.0067,-0.004 0.03906,-0.009 0.03906,-0.0137 0.704414,0 1.323315,-0.8363 1.744141,-1.79492 0.02672,-0.009 0.07813,-0.018 0.07813,-0.0273 0.681136,0 1.283401,-0.81881 1.699219,-1.76758 0.05537,-0.014 0.111328,-0.0287 0.111328,-0.043 0.658728,0 1.245894,-0.80529 1.65625,-1.74414 0.0964,-0.0193 0.146484,-0.0387 0.146484,-0.0586 0.639453,0 1.210486,-0.79335 1.615235,-1.72657 0.111052,-0.0217 0.177734,-0.044 0.177734,-0.0664 0.620918,0 1.177235,-0.78133 1.576172,-1.70899 0.124304,-0.024 0.205078,-0.0475 0.205078,-0.0723 0.602119,0 1.146247,-0.77121 1.539063,-1.69141 0.138728,-0.0265 0.232421,-0.0527 0.232421,-0.0801 0.583862,0 1.109597,-0.76143 1.496094,-1.67383 0.157056,-0.0293 0.265625,-0.0575 0.265625,-0.0879 0.565993,0 1.075094,-0.75035 1.455078,-1.65429 0.175561,-0.0322 0.296875,-0.0642 0.296875,-0.0977 0.548841,0 1.042646,-0.73917 1.416016,-1.63476 0.192825,-0.0351 0.326172,-0.0709 0.326172,-0.10743 0.532264,0 1.012245,-0.72813 1.378906,-1.61523 0.210847,-0.038 0.353516,-0.0775 0.353516,-0.11719 0.516434,0 0.98186,-0.71678 1.341797,-1.5957 0.228545,-0.041 0.378906,-0.0821 0.378906,-0.125 0.500855,0 0.95355,-0.70622 1.306641,-1.57617 0.248104,-0.0442 0.40625,-0.0903 0.40625,-0.13672 0.486069,0 0.925181,-0.69312 1.271484,-1.55469 0.266301,-0.0473 0.429687,-0.0967 0.429687,-0.14648 0.472047,0 0.898681,-0.68333 1.238282,-1.53711 0.284923,-0.0506 0.453125,-0.10095 0.453125,-0.1543 0.457896,0 0.874315,-0.67124 1.207031,-1.51562 0.303116,-0.0538 0.474609,-0.10911 0.474609,-0.16602 0.444891,0 0.849686,-0.65935 1.175782,-1.49609 0.320353,-0.057 0.496093,-0.11534 0.496093,-0.17579 0.43166,0 0.825256,-0.64736 1.144531,-1.4746 0.33523,-0.0601 0.517579,-0.12368 0.517579,-0.1875 0.419825,0 0.802355,-0.63657 1.115234,-1.45704 0.342264,-0.0625 0.535156,-0.12686 0.535156,-0.19336 0.408099,0 0.781452,-0.62658 1.087891,-1.43945 0.349577,-0.065 0.554687,-0.13388 0.554687,-0.20312 0.397018,0 0.760364,-0.6158 1.060547,-1.42188 0.356003,-0.0675 0.570313,-0.13703 0.570313,-0.20898 0.386357,0 0.743072,-0.60479 1.037109,-1.4043 0.361836,-0.0699 0.583984,-0.14216 0.583984,-0.2168 0.3759976,0 0.7257142,-0.59387 1.0136725,-1.38672 0.3677268,-0.0724 0.5976562,-0.14723 0.5976562,-0.22461 0.3649818,0 0.7028562,-0.58612 0.984375,-1.36914 0.3758101,-0.0751 0.6171875,-0.15202 0.6171875,-0.23242 0.353956,0 0.6820383,-0.57761 0.9570313,-1.34961 0.3837829,-0.0779 0.6347656,-0.15872 0.6347656,-0.24218 0.3436097,0 0.6609752,-0.56798 0.9296875,-1.33008 0.391209,-0.0806 0.6503906,-0.16349 0.6503906,-0.25 0.3334753,0 0.6418297,-0.56263 0.9042969,-1.31446 0.3988015,-0.0834 0.6679688,-0.16817 0.6679688,-0.25781 0.3235531,0 0.6226435,-0.55176 0.8789062,-1.29297 0.40562039,-0.0862 0.68164062,-0.17485 0.68164062,-0.26757 0.31399745,0 0.60333103,-0.54458 0.85351563,-1.2754 0.41341285,-0.089 0.69726563,-0.17941 0.69726563,-0.27539 0.30461012,0 0.58594082,-0.53587 0.83007812,-1.25586 0.420406,-0.0919 0.7109375,-0.18597 0.7109375,-0.28515 0.2955756,0 0.5703688,-0.52689 0.8085937,-1.23633 0.4259032,-0.0946 0.7226563,-0.19266 0.7226563,-0.29492 0.2870893,0 0.5525907,-0.51877 0.7851563,-1.21875 0.4320943,-0.0975 0.7363281,-0.19727 0.7363281,-0.30274 0.278654,0 0.5348263,-0.50945 0.7617187,-1.19922 0.4387867,-0.10041 0.75,-0.20371 0.75,-0.3125 0.2703877,0 0.5189615,-0.49846 0.7402344,-1.17773 0.4444758,-0.10327 0.7597656,-0.21024 0.7597656,-0.32227 0.2626225,0 0.5067512,-0.4903 0.7226563,-1.16015 0.4491837,-0.10605 0.767578,-0.2149 0.767578,-0.33008 0.255069,0 0.492496,-0.48215 0.703125,-1.14258 0.454576,-0.10894 0.779297,-0.21942 0.779297,-0.33789 0.247587,0 0.476277,-0.47262 0.681641,-1.12304 C 12.670853,219.43502 13,219.31907 13,219.19727 c 0.240079,0 0.462061,-0.46021 0.662109,-1.09961 0.465837,-0.11488 0.796875,-0.23412 0.796875,-0.35938 0.233317,0 0.451321,-0.4532 0.646485,-1.08398 0.46976,-0.1177 0.804687,-0.23871 0.804687,-0.36719 0.226511,0 0.436727,-0.4433 0.626953,-1.06445 0.475032,-0.1207 0.814453,-0.24501 0.814453,-0.37696 0.219797,0 0.424052,-0.43185 0.609376,-1.04297 0.479527,-0.12364 0.820312,-0.25137 0.820312,-0.38671 0.213254,0 0.413246,-0.4224 0.59375,-1.02344 0.483592,-0.12658 0.828125,-0.25973 0.828125,-0.39844 0.207165,0 0.400214,-0.41159 0.576172,-1.00391 0.487564,-0.12951 0.833984,-0.26413 0.833984,-0.40625 0.201205,0 0.38907,-0.40092 0.560547,-0.98437 0.491824,-0.13253 0.839844,-0.2704 0.839844,-0.41602 0.195439,0 0.379767,-0.39201 0.546875,-0.96679 0.49412,-0.13532 0.84375,-0.27499 0.84375,-0.42383 0.18961,0 0.36857,-0.38024 0.53125,-0.94531 0.497555,-0.13829 0.849609,-0.28326 0.849609,-0.43555 0.184178,0 0.359075,-0.36915 0.517578,-0.92578 0.500336,-0.14119 0.851563,-0.28769 0.851563,-0.44336 0.178838,0 0.347577,-0.36024 0.501953,-0.9082 0.50494,-0.14436 0.859375,-0.29374 0.859375,-0.45313 0.172503,0 0.334833,-0.35141 0.484375,-0.88476 0.509403,-0.14755 0.865234,-0.30171 0.865234,-0.46485 0.166193,0 0.324056,-0.34722 0.46875,-0.86523 0.514386,-0.15083 0.871094,-0.30758 0.871094,-0.47461 0.157312,0 0.305391,-0.33423 0.44336,-0.82227 0.56245,-0.15983 0.886718,-0.32949 0.886718,-0.50781 0.151492,0 0.2963,-0.3273 0.429688,-0.80078 0.564447,-0.16286 0.890625,-0.33762 0.890625,-0.51953 0.145969,0 0.285061,-0.32149 0.414062,-0.78125 0.567376,-0.16602 0.896485,-0.34359 0.896485,-0.5293 0.140464,0 0.273835,-0.31437 0.398437,-0.75977 0.569846,-0.16915 0.902344,-0.35154 0.902344,-0.54101 0.135369,0 0.262325,-0.30767 0.382812,-0.74024 0.572845,-0.17237 0.90625,-0.35546 0.90625,-0.54882 0.129961,0 0.253025,-0.30147 0.369141,-0.71875 0.575739,-0.17562 0.912109,-0.36522 0.912109,-0.5625 0.12513,0 0.241354,-0.29271 0.353516,-0.69727 0.577911,-0.17878 0.916016,-0.37115 0.916016,-0.57227 0.120586,0 0.233384,-0.28685 0.341797,-0.67968 0.578286,-0.18173 0.917968,-0.37542 0.917968,-0.58008 0.115865,0 0.223616,-0.27876 0.328125,-0.6582 0.580807,-0.18499 0.921875,-0.38316 0.921875,-0.5918 0.111308,0 0.215689,-0.27034 0.316406,-0.63672 0.581905,-0.18807 0.923829,-0.39113 0.923829,-0.60352 0.106912,0 0.207652,-0.26158 0.304687,-0.61523 0.583485,-0.19124 0.923828,-0.39701 0.923828,-0.61328 0.102625,0 0.201498,-0.25474 0.294922,-0.5957 0.584011,-0.19429 0.925781,-0.40502 0.925781,-0.625 0.09866,0 0.193144,-0.24458 0.283203,-0.57422 0.584595,-0.19736 0.925782,-0.41102 0.925782,-0.63477 0.09488,0 0.186608,-0.23777 0.273437,-0.55664 0.584403,-0.20033 0.927735,-0.41714 0.927735,-0.64453 0.09096,0 0.17629,-0.22647 0.259765,-0.5332 0.586643,-0.20369 0.929688,-0.42468 0.929688,-0.65625 0.08738,0 0.171565,-0.21753 0.251953,-0.51368 0.58505,-0.20648 0.927734,-0.43103 0.927734,-0.66601 0.0837,0 0.163021,-0.20769 0.240235,-0.49219 0.586671,-0.20979 0.929687,-0.43862 0.929687,-0.67773 0.08037,0 0.15616,-0.19821 0.230469,-0.47266 0.586482,-0.21283 0.927734,-0.44265 0.927734,-0.68555 0.07676,0 0.149538,-0.18894 0.220703,-0.45117 0.587913,-0.21615 0.929688,-0.45215 0.929688,-0.69922 0.07362,0 0.144477,-0.17715 0.21289,-0.42968 0.58672,-0.21908 0.925782,-0.4583 0.925782,-0.70899 0.07059,0 0.139346,-0.16911 0.205078,-0.41211 0.585487,-0.222 0.925781,-0.46442 0.925781,-0.71875 0.06761,0 0.132211,-0.15714 0.195313,-0.39062 0.585255,-0.22511 0.923828,-0.47028 0.923828,-0.72852 0.06464,0 0.127042,-0.14563 0.1875,-0.36914 0.584914,-0.2282 0.921875,-0.47808 0.921875,-0.74023 0.06171,0 0.121835,-0.13418 0.179687,-0.34766 0.58389,-0.23121 0.919922,-0.48602 0.919922,-0.75195 0.05905,0 0.11641,-0.12338 0.171875,-0.32813 0.581948,-0.23406 0.916016,-0.49025 0.916016,-0.75976 0.05631,0 0.111058,-0.11344 0.164062,-0.3086 0.582685,-0.23739 0.916016,-0.49768 0.916016,-0.77148 0.05265,0 0.104562,-0.10579 0.154297,-0.28516 0.582443,-0.24058 0.914062,-0.50532 0.914062,-0.7832 0.04888,0 0.0982,-0.10305 0.144532,-0.26563 0.583336,-0.24398 0.916015,-0.51263 0.916015,-0.79492 0.0455,0 0.08954,-0.096 0.132813,-0.24414 0.58192,-0.24699 0.916015,-0.51854 0.916015,-0.80469 0.04209,0 0.08288,-0.0893 0.123047,-0.22265 0.580908,-0.25008 0.916016,-0.52628 0.916016,-0.81641 0.03897,0 0.07598,-0.0829 0.113281,-0.20312 0.57877,-0.25298 0.916016,-0.53233 0.916016,-0.82617 0.03571,0 0.06922,-0.0754 0.103515,-0.18165 0.577868,-0.25611 0.914063,-0.53801 0.914063,-0.83593 0.03297,0 0.06592,-0.0688 0.09766,-0.16407 0.574969,-0.25888 0.912109,-0.54422 0.912109,-0.8457 0.03017,0 0.05876,-0.0586 0.08789,-0.14258 0.573047,-0.26184 0.910156,-0.55014 0.910156,-0.85547 0.02763,0 0.05528,-0.0509 0.08203,-0.125 0.569407,-0.26447 0.908204,-0.55653 0.908204,-0.86523 0.02517,0 0.04979,-0.0408 0.07422,-0.10547 0.566671,-0.26729 0.904297,-0.56069 0.904297,-0.87305 0.0226,0 0.04441,-0.029 0.06641,-0.084 0.564441,-0.27021 0.902343,-0.56858 0.902343,-0.88477 0.01544,0 0.02976,-0.0312 0.04492,-0.0586 0.569359,-0.27459 0.914063,-0.57817 0.914063,-0.90039 0.0086,0 0.01691,-0.0242 0.02539,-0.0332 0.573504,-0.27884 0.923828,-0.58791 0.923828,-0.91602 0.002,0 0.0039,-0.007 0.0059,-0.008 0.569224,-0.27915 0.920845,-0.58714 0.929687,-0.91602 0.558248,-0.27734 0.903889,-0.58543 0.923828,-0.91211 0.543232,-0.27439 0.885,-0.5756 0.916016,-0.89843 0.528354,-0.27133 0.860917,-0.56982 0.902344,-0.88868 0.516112,-0.26909 0.84639,-0.56485 0.896484,-0.88085 0.501721,-0.26607 0.826065,-0.55709 0.884766,-0.86915 0.488022,-0.26313 0.808457,-0.55112 0.875,-0.85937 0.47524,-0.2605 0.791928,-0.54477 0.865234,-0.84961 0.462153,-0.25757 0.775642,-0.53879 0.855469,-0.83984 0.449767,-0.25484 0.76018,-0.53255 0.845703,-0.83008 0.438385,-0.2525 0.745688,-0.5258 0.835937,-0.82031 0.425863,-0.24956 0.73129,-0.51985 0.826172,-0.81055 0.413832,-0.24664 0.715315,-0.5119 0.814454,-0.79883 0.401722,-0.2433 0.697192,-0.50445 0.800781,-0.78711 0.388299,-0.23829 0.675245,-0.49512 0.785156,-0.77148 0.382822,-0.23697 0.665246,-0.49263 0.779297,-0.76758 0.372013,-0.23331 0.651394,-0.48352 0.769531,-0.75391 0.362819,-0.23023 0.63607,-0.47947 0.757813,-0.74609 0.355774,-0.22834 0.627597,-0.47389 0.751953,-0.73828 0.345526,-0.22489 0.613526,-0.46454 0.740234,-0.72461 0.33644,-0.22173 0.601495,-0.45867 0.730469,-0.71485 0.328825,-0.21921 0.58981,-0.45388 0.720703,-0.70703 0.320481,-0.21641 0.578684,-0.44561 0.710937,-0.69531 0.31169,-0.21312 0.567593,-0.4399 0.701172,-0.68555 0.302987,-0.20973 0.552852,-0.43235 0.6875,-0.67382 0.295507,-0.20679 0.542033,-0.42615 0.677735,-0.66407 0.284476,-0.20112 0.523152,-0.41362 0.660156,-0.64453 0.282049,-0.19981 0.514879,-0.41287 0.654297,-0.64258 0.274314,-0.196 0.504344,-0.40379 0.644531,-0.6289 0.254505,-0.18294 0.452979,-0.37904 0.59375,-0.58789 0.265042,-0.18575 0.468273,-0.38792 0.617188,-0.60157 0.261334,-0.18323 0.458914,-0.38477 0.609384,-0.5957 0.25711,-0.18062 0.45206,-0.37789 0.60351,-0.58594 0.25058,-0.17681 0.44042,-0.37067 0.5918,-0.57422 0.24717,-0.17495 0.4341,-0.36872 0.58594,-0.57031 0.24048,-0.17132 0.42525,-0.36135 0.57617,-0.55859 0.2364,-0.1696 0.41609,-0.3574 0.5664,-0.55274 0.23153,-0.16756 0.4114,-0.35195 0.56055,-0.54492 0.22587,-0.16538 0.40547,-0.34677 0.55273,-0.53711 0.21963,-0.16305 0.40008,-0.3399 0.54493,-0.52734 0.21275,-0.16013 0.38908,-0.33378 0.53125,-0.51758 0.20658,-0.15745 0.38368,-0.32536 0.52343,-0.50586 0.20042,-0.15478 0.37651,-0.32085 0.51368,-0.49805 0.19233,-0.1506 0.36431,-0.31045 0.49804,-0.48242 0.18364,-0.14517 0.34431,-0.30152 0.47461,-0.46679 0.17801,-0.14078 0.33422,-0.29107 0.46289,-0.45118 0.17489,-0.13797 0.32692,-0.28634 0.45508,-0.44335 0.17418,-0.13729 0.32462,-0.28486 0.45313,-0.44141 0.16729,-0.13258 0.31401,-0.27297 0.43945,-0.42383 0.16556,-0.13134 0.30857,-0.27224 0.43359,-0.42187 0.15901,-0.12684 0.2981,-0.26207 0.41992,-0.40625 0.15674,-0.1252 0.29503,-0.25797 0.41602,-0.4004 0.15065,-0.12101 0.28457,-0.24933 0.40234,-0.38671 0.14949,-0.12037 0.28304,-0.24793 0.4004,-0.38477 0.14174,-0.11517 0.26997,-0.23674 0.38281,-0.36719 0.13946,-0.11359 0.26527,-0.23456 0.37695,-0.36328 0.136,-0.11144 0.26147,-0.22731 0.37109,-0.35351 0.13347,-0.11026 0.25723,-0.22476 0.36524,-0.34961 0.12429,-0.10393 0.24165,-0.21114 0.34375,-0.32813 0.12471,-0.10458 0.24324,-0.21206 0.3457,-0.33008 0.11828,-0.1004 0.23391,-0.20159 0.33203,-0.31445 0.11726,-0.10034 0.23076,-0.20353 0.32813,-0.31641 0.10865,-0.0945 0.21918,-0.18737 0.31054,-0.29296 0.0662,-0.058 0.12952,-0.11738 0.18946,-0.17969 0.10325,-0.0824 0.18957,-0.1772 0.2793,-0.26953 0.10145,-0.0809 0.18689,-0.17301 0.27539,-0.26368 0.10038,-0.0802 0.18571,-0.17167 0.27343,-0.26171 0.0922,-0.0745 0.17048,-0.15921 0.25196,-0.24219 0.0895,-0.0723 0.16664,-0.15391 0.24609,-0.23438 0.0886,-0.0718 0.16538,-0.15245 0.24414,-0.23242 0.084,-0.0687 0.15737,-0.14447 0.23242,-0.2207 0.0779,-0.0643 0.14663,-0.13424 0.2168,-0.20508 0.0768,-0.0635 0.14554,-0.13306 0.21484,-0.20312 0.0733,-0.0613 0.13866,-0.12796 0.20508,-0.19532 0.0675,-0.0571 0.12974,-0.11734 0.19141,-0.17968 0.0638,-0.0543 0.12112,-0.11278 0.17968,-0.17188 0.0607,-0.052 0.11792,-0.10573 0.17383,-0.16211 0.0587,-0.0506 0.11382,-0.10339 0.16797,-0.1582 0.0527,-0.0461 0.10334,-0.0931 0.15235,-0.14258 0.048,-0.0422 0.0938,-0.0857 0.13867,-0.13086 0.0493,-0.0436 0.0966,-0.0881 0.14258,-0.13477 0.0406,-0.0366 0.0807,-0.0726 0.11914,-0.11132 0.0412,-0.0373 0.0822,-0.0738 0.12109,-0.11328 0.0323,-0.0297 0.0648,-0.0587 0.0957,-0.0898 0.0348,-0.032 0.0704,-0.0621 0.10352,-0.0957 0.0308,-0.0288 0.0604,-0.0578 0.0898,-0.0879 0.0208,-0.0198 0.0424,-0.0382 0.0625,-0.0586 0.0208,-0.0197 0.0423,-0.0382 0.0625,-0.0586 0.0177,-0.017 0.0374,-0.0314 0.0547,-0.0488 0.0153,-0.0148 0.0319,-0.0279 0.0469,-0.043 0.0103,-0.01 0.0211,-0.0191 0.0312,-0.0293 0.009,-0.008 0.0189,-0.0149 0.0273,-0.0234 0.51129,-0.50714 0.82617,-1.2098 0.82617,-1.99024 4e-5,0 0,-9.39449 0,-9.39453 0,-1.55291 -1.24787,-2.80273 -2.80078,-2.80273 0,-1e-5 -7.01394,0 -9.32227,0 0.0436,-0.04666 0.0921,-0.09233 0.13086,-0.140626 0.17489,-0.137974 0.32692,-0.286344 0.45508,-0.443359 0.17418,-0.137287 0.32462,-0.284852 0.45313,-0.441406 0.16729,-0.132581 0.31401,-0.272973 0.43945,-0.423828 0.16556,-0.131341 0.30857,-0.27224 0.43359,-0.421875 0.15901,-0.126838 0.2981,-0.262067 0.41992,-0.40625 0.15674,-0.125193 0.29503,-0.257961 0.41602,-0.400391 0.15065,-0.121015 0.28457,-0.249339 0.40234,-0.386719 0.14949,-0.120361 0.28304,-0.247926 0.4004,-0.384765 0.14174,-0.115174 0.26997,-0.236745 0.38281,-0.367188 0.13946,-0.113591 0.26527,-0.234567 0.37695,-0.363281 0.136,-0.111447 0.26147,-0.227315 0.37109,-0.353516 0.13347,-0.110261 0.25723,-0.22476 0.36524,-0.349609 0.12429,-0.103926 0.24165,-0.211136 0.34375,-0.328125 0.12471,-0.104582 0.24324,-0.212066 0.3457,-0.330078 0.11828,-0.100404 0.23391,-0.201599 0.33203,-0.314453 0.11726,-0.100337 0.23076,-0.203533 0.32813,-0.316407 0.10865,-0.09446 0.21918,-0.187376 0.31054,-0.292968 0.0662,-0.05798 0.12952,-0.117378 0.18946,-0.179688 0.10325,-0.08238 0.18957,-0.177198 0.2793,-0.269531 0.10145,-0.08087 0.18689,-0.173005 0.27539,-0.263672 0.10038,-0.08026 0.18571,-0.171672 0.27343,-0.261719 0.0922,-0.07449 0.17048,-0.159204 0.25196,-0.242187 0.0895,-0.07232 0.16664,-0.153905 0.24609,-0.234375 0.0886,-0.07182 0.16538,-0.152458 0.24414,-0.232422 0.084,-0.06874 0.15737,-0.144473 0.23242,-0.220703 0.0779,-0.06424 0.14663,-0.134244 0.2168,-0.205078 0.0768,-0.06354 0.14554,-0.133061 0.21484,-0.203125 0.0733,-0.06128 0.13866,-0.127956 0.20508,-0.195313 0.0675,-0.05707 0.12974,-0.117338 0.19141,-0.179687 0.0642,-0.05459 0.1228,-0.112435 0.18164,-0.171875 0.0602,-0.05159 0.11639,-0.106163 0.17187,-0.16211 0.0587,-0.05061 0.11382,-0.103391 0.16797,-0.158203 0.0527,-0.04606 0.10334,-0.09306 0.15235,-0.142578 0.049,-0.04317 0.0948,-0.08854 0.14062,-0.134766 0.0468,-0.04151 0.0929,-0.08262 0.13672,-0.126953 0.0435,-0.03894 0.0861,-0.07772 0.12695,-0.11914 0.038,-0.03455 0.0753,-0.06898 0.11133,-0.105469 0.0355,-0.03245 0.0717,-0.06349 0.10547,-0.09766 0.033,-0.03048 0.0661,-0.05982 0.0977,-0.0918 0.0277,-0.02593 0.0554,-0.05112 0.082,-0.07813 0.0259,-0.0244 0.0531,-0.04692 0.0781,-0.07227 0.0174,-0.01657 0.0358,-0.03182 0.0527,-0.04883 0.0214,-0.02038 0.0437,-0.03951 0.0644,-0.06055 0.0133,-0.01287 0.028,-0.02398 0.041,-0.03711 0.0103,-0.01003 0.0211,-0.01911 0.0312,-0.0293 0.009,-0.0084 0.0189,-0.01491 0.0273,-0.02344 0.51129,-0.507144 0.82617,-1.209802 0.82617,-1.990234 4e-5,0 0,-9.394493 0,-9.394531 0,-1.552913 -1.24787,-2.802735 -2.80078,-2.802735 0,-5e-6 -7.01394,6e-6 -9.32227,0 0.0436,-0.04665 0.0921,-0.09233 0.13086,-0.140625 0.17489,-0.137974 0.32692,-0.286344 0.45508,-0.443359 0.17418,-0.137287 0.32462,-0.284852 0.45313,-0.441406 0.16729,-0.132582 0.31401,-0.272973 0.43945,-0.423828 0.16556,-0.131341 0.30857,-0.27224 0.43359,-0.421875 0.15901,-0.126838 0.2981,-0.262067 0.41992,-0.40625 0.15674,-0.125193 0.29503,-0.257961 0.41602,-0.400391 0.15065,-0.121015 0.28457,-0.249339 0.40234,-0.386719 0.14949,-0.120361 0.28304,-0.247926 0.4004,-0.384765 0.14174,-0.115174 0.26997,-0.236745 0.38281,-0.367188 0.13946,-0.113591 0.26527,-0.234567 0.37695,-0.363281 0.136,-0.111447 0.26147,-0.227315 0.37109,-0.353516 0.13347,-0.110261 0.25723,-0.22476 0.36524,-0.349609 0.12429,-0.103926 0.24165,-0.211136 0.34375,-0.328125 0.12471,-0.104582 0.24324,-0.212066 0.3457,-0.330078 0.11828,-0.100404 0.23391,-0.201599 0.33203,-0.314453 0.11726,-0.100337 0.23076,-0.203533 0.32813,-0.316407 0.10865,-0.09446 0.21918,-0.187376 0.31054,-0.292968 0.0662,-0.05798 0.12952,-0.117378 0.18946,-0.179688 0.10325,-0.08238 0.18957,-0.177198 0.2793,-0.269531 0.10145,-0.08087 0.18689,-0.173005 0.27539,-0.263672 0.10038,-0.08026 0.18571,-0.171672 0.27343,-0.261719 0.0922,-0.07449 0.17048,-0.159204 0.25196,-0.242187 0.0895,-0.07232 0.16664,-0.153905 0.24609,-0.234375 0.0886,-0.07182 0.16538,-0.152458 0.24414,-0.232422 0.0847,-0.06934 0.15876,-0.145705 0.23438,-0.222656 0.077,-0.06369 0.14535,-0.132978 0.21484,-0.203125 0.0768,-0.06354 0.14554,-0.133061 0.21484,-0.203125 0.0733,-0.06128 0.13866,-0.127956 0.20508,-0.195313 0.0675,-0.05707 0.12974,-0.117338 0.19141,-0.179687 0.0641,-0.05453 0.12286,-0.112502 0.18164,-0.171875 0.0602,-0.05159 0.11639,-0.106163 0.17187,-0.16211 0.0587,-0.05061 0.11382,-0.103391 0.16797,-0.158203 0.0527,-0.04606 0.10334,-0.09306 0.15235,-0.142578 0.048,-0.04223 0.0938,-0.08571 0.13867,-0.130859 0.0493,-0.04356 0.0966,-0.08809 0.14258,-0.134766 0.042,-0.0378 0.0834,-0.07511 0.12304,-0.115234 0.038,-0.03455 0.0753,-0.06898 0.11133,-0.105469 0.0355,-0.03242 0.0717,-0.06353 0.10547,-0.09766 0.033,-0.03043 0.0662,-0.05987 0.0977,-0.0918 0.0278,-0.02598 0.0553,-0.05107 0.082,-0.07813 0.0246,-0.02314 0.0505,-0.04436 0.0742,-0.06836 0.0208,-0.01972 0.0423,-0.03825 0.0625,-0.05859 0.019,-0.0182 0.0401,-0.03402 0.0586,-0.05273 0.0136,-0.01317 0.0277,-0.02562 0.041,-0.03906 0.0103,-0.01003 0.0211,-0.01911 0.0312,-0.0293 0.009,-0.0084 0.0189,-0.01491 0.0273,-0.02344 0.51129,-0.507144 0.82617,-1.209802 0.82617,-1.990234 4e-5,0 0,-9.394493 0,-9.394531 0,-1.552913 -1.24787,-2.802735 -2.80078,-2.802735 0,-5e-6 -7.01394,6e-6 -9.32227,0 0.0436,-0.04665 0.0921,-0.09233 0.13086,-0.140625 0.17489,-0.137974 0.32692,-0.286344 0.45508,-0.443359 0.17418,-0.137287 0.32462,-0.284852 0.45313,-0.441406 0.16729,-0.132582 0.31401,-0.272973 0.43945,-0.423828 0.16556,-0.131341 0.30857,-0.27224 0.43359,-0.421875 0.15901,-0.126838 0.2981,-0.262067 0.41992,-0.40625 0.15674,-0.125193 0.29503,-0.257961 0.41602,-0.400391 0.15065,-0.121015 0.28457,-0.249339 0.40234,-0.386719 0.14949,-0.120361 0.28304,-0.247926 0.4004,-0.384765 0.14174,-0.115174 0.26997,-0.236745 0.38281,-0.367188 0.13946,-0.113591 0.26527,-0.234567 0.37695,-0.363281 0.136,-0.111447 0.26147,-0.227315 0.37109,-0.353516 0.13347,-0.110261 0.25723,-0.22476 0.36524,-0.349609 0.12429,-0.103926 0.24165,-0.211136 0.34375,-0.328125 0.12471,-0.104582 0.24324,-0.212066 0.3457,-0.330078 0.11828,-0.100404 0.23391,-0.201599 0.33203,-0.314453 0.11726,-0.100337 0.23076,-0.203533 0.32813,-0.316407 0.10865,-0.09446 0.21918,-0.187376 0.31054,-0.292968 0.0662,-0.05798 0.12952,-0.117378 0.18946,-0.179688 0.10325,-0.08238 0.18957,-0.177198 0.2793,-0.269531 0.10145,-0.08087 0.18689,-0.173005 0.27539,-0.263672 0.10038,-0.08026 0.18571,-0.171672 0.27343,-0.261719 0.0922,-0.07449 0.17048,-0.159204 0.25196,-0.242187 0.0895,-0.07232 0.16664,-0.153905 0.24609,-0.234375 0.0886,-0.07182 0.16538,-0.152458 0.24414,-0.232422 0.0847,-0.06934 0.15876,-0.145705 0.23438,-0.222656 0.077,-0.06369 0.14535,-0.132978 0.21484,-0.203125 0.0768,-0.06354 0.14554,-0.133061 0.21484,-0.203125 0.0733,-0.06128 0.13866,-0.127956 0.20508,-0.195313 0.0675,-0.05707 0.12974,-0.117338 0.19141,-0.179687 0.0638,-0.05424 0.12119,-0.112839 0.17968,-0.171875 0.0607,-0.05196 0.11792,-0.10573 0.17383,-0.16211 0.0587,-0.05061 0.11382,-0.103391 0.16797,-0.158203 0.0527,-0.04606 0.10334,-0.09306 0.15235,-0.142578 0.048,-0.04223 0.0938,-0.08571 0.13867,-0.130859 0.0493,-0.04356 0.0966,-0.08809 0.14258,-0.134766 0.0406,-0.03657 0.0807,-0.07259 0.11914,-0.111328 0.0412,-0.03724 0.0822,-0.07378 0.12109,-0.113281 0.0337,-0.03093 0.0675,-0.06128 0.0996,-0.09375 0.0316,-0.02919 0.0635,-0.05733 0.0937,-0.08789 0.0309,-0.02871 0.0623,-0.0559 0.0918,-0.08594 0.0228,-0.0216 0.0463,-0.04212 0.0684,-0.06445 0.0221,-0.02101 0.045,-0.04079 0.0664,-0.0625 0.016,-0.01537 0.0332,-0.02918 0.0488,-0.04492 0.0153,-0.01476 0.0319,-0.02787 0.0469,-0.04297 0.0103,-0.01003 0.0211,-0.01911 0.0312,-0.0293 0.009,-0.0084 0.0189,-0.01493 0.0273,-0.02344 0.51129,-0.507144 0.82617,-1.209802 0.82617,-1.990234 4e-5,0 0,-9.394493 0,-9.394531 0,-1.552913 -1.24787,-2.802735 -2.80078,-2.802735 0,-3.9e-5 -64.394489,0 -64.394527,0 h -0.002 c -0.776476,0 -1.475857,0.311795 -1.982422,0.81836 -6.48e-4,6.48e-4 -0.0013,0.0013 -0.002,0.002 -0.0102,0.01007 -0.01925,0.02102 -0.0293,0.03125 -0.0082,0.0082 -0.01531,0.01712 -0.02344,0.02539 -0.01357,0.01333 -0.02577,0.02741 -0.03906,0.04102 -0.01688,0.0165 -0.03432,0.03191 -0.05078,0.04883 -0.02021,0.01966 -0.03899,0.04029 -0.05859,0.06055 -0.02362,0.02286 -0.04556,0.04664 -0.06836,0.07031 -0.02704,0.02604 -0.05215,0.05297 -0.07813,0.08008 -0.03042,0.02915 -0.06077,0.0574 -0.08984,0.08789 -0.03381,0.03224 -0.0655,0.06572 -0.09766,0.09961 -0.03595,0.03411 -0.06943,0.0695 -0.103516,0.105468 -0.04408,0.04141 -0.0876,0.08277 -0.128906,0.126954 -0.04272,0.0403 -0.08294,0.0821 -0.123047,0.125 -0.04802,0.0449 -0.09197,0.09246 -0.136719,0.140625 -0.05054,0.04697 -0.09954,0.09397 -0.146484,0.144531 -0.05752,0.05305 -0.111173,0.108346 -0.164063,0.166016 -0.05749,0.0531 -0.111215,0.108289 -0.164062,0.166015 -0.0608,0.05567 -0.118164,0.113025 -0.173828,0.173828 -0.06734,0.06112 -0.132271,0.124036 -0.19336,0.191407 -0.07064,0.06405 -0.135465,0.132207 -0.199218,0.203124 -0.07175,0.06497 -0.138475,0.133039 -0.203125,0.205079 -0.07682,0.06894 -0.149994,0.13981 -0.21875,0.216797 -0.07904,0.07059 -0.152108,0.145531 -0.222657,0.224609 -0.08658,0.07658 -0.167664,0.157472 -0.24414,0.244141 -0.08837,0.07826 -0.170234,0.161227 -0.248047,0.25 -0.09023,0.07962 -0.174639,0.16336 -0.253906,0.253906 -0.09438,0.08262 -0.181194,0.171121 -0.263672,0.265625 -0.10138,0.088 -0.195457,0.181593 -0.283203,0.283203 -0.100275,0.08717 -0.192377,0.180753 -0.279297,0.28125 -0.109279,0.09382 -0.209143,0.195208 -0.302735,0.304687 -0.109198,0.09397 -0.209246,0.195063 -0.302734,0.304688 -0.114513,0.09766 -0.220975,0.201654 -0.318359,0.316406 -0.116852,0.09917 -0.223162,0.207313 -0.322266,0.324219 -0.122957,0.103549 -0.236413,0.216783 -0.339844,0.339844 -0.126577,0.106386 -0.241761,0.222604 -0.347656,0.349609 -0.127756,0.10711 -0.244824,0.223484 -0.351562,0.351563 -0.134399,0.111496 -0.255826,0.234626 -0.367188,0.36914 -0.138337,0.114409 -0.264935,0.240194 -0.378906,0.378906 -0.141877,0.116987 -0.270424,0.246204 -0.386719,0.388672 -0.143869,0.118208 -0.274927,0.248234 -0.392578,0.392578 -0.148293,0.12087 -0.281696,0.255816 -0.402344,0.404297 -0.154882,0.125282 -0.295021,0.266672 -0.419922,0.421875 -0.155286,0.125532 -0.296711,0.264325 -0.421875,0.419922 -0.162658,0.130257 -0.309595,0.278414 -0.439453,0.441406 -0.164267,0.131462 -0.310595,0.280502 -0.441406,0.445313 -0.168477,0.133721 -0.319567,0.284513 -0.453125,0.453125 -0.175951,0.138749 -0.334645,0.296097 -0.472656,0.472656 -0.174906,0.138264 -0.331424,0.295021 -0.46875,0.470703 -0.181472,0.141852 -0.344907,0.302551 -0.486328,0.484375 -0.185451,0.144242 -0.350355,0.31027 -0.494141,0.496094 -0.189526,0.146651 -0.357721,0.315953 -0.503906,0.505859 -0.193616,0.149041 -0.365108,0.321623 -0.513672,0.515625 -0.19732,0.151106 -0.372713,0.32581 -0.523438,0.523438 -0.20262,0.154166 -0.381431,0.334134 -0.535156,0.537109 -0.207028,0.156795 -0.390734,0.339323 -0.546875,0.546875 -0.208661,0.157667 -0.393718,0.341637 -0.550781,0.550782 -0.215639,0.161561 -0.405531,0.352175 -0.566407,0.568359 -0.21739,0.162404 -0.408441,0.354451 -0.570312,0.572265 -0.225146,0.166932 -0.425923,0.363865 -0.591797,0.589844 -0.224532,0.166708 -0.422384,0.364366 -0.587891,0.589844 -0.230737,0.169366 -0.43254,0.372509 -0.601562,0.603516 -0.235472,0.171895 -0.443791,0.379409 -0.615234,0.615234 -0.239372,0.174059 -0.44968,0.383138 -0.623047,0.623047 -0.244045,0.176355 -0.457056,0.390258 -0.632813,0.634765 -0.248313,0.178492 -0.464695,0.39575 -0.642578,0.644532 -0.252594,0.180608 -0.472354,0.401227 -0.652344,0.654297 -0.256478,0.182414 -0.480189,0.405253 -0.662109,0.662109 -0.263865,0.186469 -0.496426,0.414871 -0.681641,0.679688 -0.262949,0.186059 -0.491012,0.415758 -0.675781,0.679687 -0.103446,0.07242 -0.198536,0.154809 -0.291015,0.240234 h -3.308594 c 0.04118,-0.04568 0.07711,-0.09618 0.115234,-0.144531 0.168612,-0.133558 0.319404,-0.284648 0.453125,-0.453125 0.164811,-0.130811 0.313851,-0.277139 0.445313,-0.441406 0.162992,-0.129858 0.311149,-0.276795 0.441406,-0.439453 0.155597,-0.125164 0.29439,-0.266589 0.419922,-0.421875 0.155203,-0.124901 0.296593,-0.26504 0.421875,-0.419922 0.148481,-0.120648 0.283427,-0.254051 0.404297,-0.402344 0.144344,-0.117651 0.27437,-0.248709 0.392578,-0.392578 0.142468,-0.116295 0.271685,-0.244842 0.388672,-0.386719 0.138712,-0.113971 0.264497,-0.240569 0.378906,-0.378906 0.134514,-0.111362 0.257644,-0.232789 0.36914,-0.367188 0.128079,-0.106738 0.244453,-0.223806 0.351563,-0.351562 0.127005,-0.105895 0.243223,-0.221079 0.349609,-0.347656 0.123061,-0.103431 0.236295,-0.216887 0.339844,-0.339844 0.116906,-0.0991 0.225053,-0.205414 0.324219,-0.322266 0.114752,-0.09738 0.21875,-0.203846 0.316406,-0.318359 0.109625,-0.09349 0.210718,-0.193536 0.304688,-0.302734 0.109479,-0.09359 0.210868,-0.193456 0.304687,-0.302735 0.100497,-0.08692 0.194081,-0.179022 0.28125,-0.279297 0.10161,-0.08775 0.195199,-0.181823 0.283203,-0.283203 0.0945,-0.08248 0.183005,-0.169295 0.265625,-0.263672 0.09055,-0.07927 0.174289,-0.163676 0.253906,-0.253906 0.08877,-0.07781 0.171739,-0.15968 0.25,-0.248047 0.08667,-0.07648 0.167566,-0.157561 0.244141,-0.24414 0.07908,-0.07055 0.154019,-0.143617 0.224609,-0.222657 0.07699,-0.06876 0.147857,-0.14193 0.216797,-0.21875 0.07204,-0.06465 0.14011,-0.131378 0.205079,-0.203125 0.07092,-0.06375 0.139071,-0.128578 0.203124,-0.199218 0.06737,-0.06109 0.130289,-0.126017 0.191407,-0.19336 0.0608,-0.05566 0.118163,-0.113025 0.173828,-0.173828 0.05773,-0.05285 0.112913,-0.106575 0.166015,-0.164062 0.05767,-0.05289 0.112971,-0.106538 0.166016,-0.164063 0.05057,-0.04694 0.09757,-0.09594 0.144531,-0.146484 0.04816,-0.04475 0.09573,-0.0887 0.140625,-0.136719 0.0429,-0.04011 0.0847,-0.08033 0.125,-0.123047 0.04418,-0.04131 0.08554,-0.08483 0.126954,-0.128906 0.03597,-0.03409 0.07136,-0.06757 0.105468,-0.103516 0.03389,-0.03216 0.06737,-0.06385 0.09961,-0.09766 0.03049,-0.02907 0.05874,-0.05943 0.08789,-0.08984 0.02711,-0.02597 0.05404,-0.05108 0.08008,-0.07813 0.02367,-0.0228 0.04745,-0.04474 0.07031,-0.06836 0.02026,-0.01961 0.04089,-0.03838 0.06055,-0.05859 0.01692,-0.01646 0.03233,-0.0339 0.04883,-0.05078 0.0136,-0.0133 0.02769,-0.02549 0.04102,-0.03906 0.0083,-0.0081 0.01722,-0.01521 0.02539,-0.02344 0.01023,-0.01005 0.02118,-0.01909 0.03125,-0.0293 6.46e-4,-6.54e-4 0.0013,-0.0013 0.002,-0.002 0.506565,-0.506565 0.81836,-1.205946 0.81836,-1.982422 v -9.394531 c 0,-1.552951 -1.249784,-2.802735 -2.802735,-2.802735 z"
       id="path14360"
       inkscape:export-xdpi="299"
       inkscape:export-ydpi="299"
       clip-path="url(#clipPath15269)"
       inkscape:connector-curvature="0"
       transform="matrix(0.89664755,0,0,0.89664755,8.5975609,5.9957342)" />
    <path
       id="rect850"
       d="M 22.802734,25 C 21.249783,25 20,26.249783 20,27.802734 v 9.394532 C 20,38.750217 21.249783,40 22.802734,40 h 9.394532 C 33.750217,40 35,38.750217 35,37.197266 V 27.802734 C 35,26.249783 33.750217,25 32.197266,25 Z m 30,0 C 51.249783,25 50,26.249783 50,27.802734 v 9.394532 C 50,38.750217 51.249783,40 52.802734,40 H 117.19727 C 118.75022,40 120,38.750217 120,37.197266 V 27.802734 C 120,26.249783 118.75022,25 117.19727,25 Z m -30,25 C 21.249783,50 20,51.249783 20,52.802734 v 9.394532 C 20,63.750217 21.249783,65 22.802734,65 h 9.394532 C 33.750217,65 35,63.750217 35,62.197266 V 52.802734 C 35,51.249783 33.750217,50 32.197266,50 Z m 30,0 C 51.249783,50 50,51.249783 50,52.802734 v 9.394532 C 50,63.750217 51.249783,65 52.802734,65 H 117.19727 C 118.75022,65 120,63.750217 120,62.197266 V 52.802734 C 120,51.249783 118.75022,50 117.19727,50 Z m -30,25 C 21.249783,75 20,76.249783 20,77.802734 v 9.394532 C 20,88.750217 21.249783,90 22.802734,90 h 9.394532 C 33.750217,90 35,88.750217 35,87.197266 V 77.802734 C 35,76.249783 33.750217,75 32.197266,75 Z m 30,0 C 51.249783,75 50,76.249783 50,77.802734 v 9.394532 C 50,88.750217 51.249783,90 52.802734,90 H 117.19727 C 118.75022,90 120,88.750217 120,87.197266 V 77.802734 C 120,76.249783 118.75022,75 117.19727,75 Z m -30,25 C 21.249783,100 20,101.24978 20,102.80273 v 9.39454 C 20,113.75022 21.249783,115 22.802734,115 h 9.394532 C 33.750217,115 35,113.75022 35,112.19727 v -9.39454 C 35,101.24978 33.750217,100 32.197266,100 Z m 30,0 C 51.249783,100 50,101.24978 50,102.80273 v 9.39454 C 50,113.75022 51.249783,115 52.802734,115 H 117.19727 C 118.75022,115 120,113.75022 120,112.19727 v -9.39454 C 120,101.24978 118.75022,100 117.19727,100 Z"
       style="fill:#f8f8f8;fill-opacity:1;filter:url(#filter852)"
       clip-path="url(#clipPath15265)"
       inkscape:connector-curvature="0"
       transform="matrix(0.89664755,0,0,0.89664755,8.5975609,5.9957342)" />
  </g>
</svg>
